<svg width="408" height="68" viewBox="0 0 408 68" fill="none" xmlns="http://www.w3.org/2000/svg">
<rect width="408" height="68" rx="13" fill="white" fill-opacity="0.85"/>
<path d="M54.55 29.35C54.22 31.96 53.71 34.3 52.96 36.34C52.15 34.18 51.55 31.84 51.13 29.35H54.55ZM43.09 32.89H41.35C41.8 32.41 42.22 31.9 42.64 31.39H46.21C45.76 32.2 45.28 32.92 44.77 33.55L43.72 32.71L43.09 32.89ZM39.85 26.32H42.19C41.77 27.01 41.32 27.67 40.84 28.33H39.85V26.32ZM60.01 29.35V26.05H52.03C52.45 24.46 52.78 22.81 53.08 21.13L49.48 20.59C48.94 24.13 48.04 27.58 46.72 30.37V28.33H44.83C46.03 26.44 47.08 24.43 47.95 22.24L44.65 21.31C44.11 22.72 43.48 24.1 42.76 25.36V23.32H39.85V20.59H36.52V23.32H33.13V26.32H36.52V28.33H32.14V31.39H38.17C37.63 31.9 37.09 32.41 36.52 32.89H34.6V34.33C33.61 34.99 32.56 35.62 31.45 36.16C32.17 36.82 33.37 38.2 33.85 38.89C35.5 37.96 37.03 36.88 38.5 35.65H40.63C40.12 36.19 39.58 36.7 39.07 37.15H37.9V39.49C35.65 39.67 33.58 39.82 31.9 39.94L32.26 43.12C33.91 42.97 35.83 42.79 37.9 42.61V45.16C37.9 45.49 37.78 45.58 37.39 45.61C37.03 45.61 35.71 45.61 34.57 45.58C34.99 46.42 35.44 47.68 35.59 48.61C37.45 48.61 38.83 48.58 39.91 48.1C40.99 47.59 41.26 46.78 41.26 45.25V42.31C43.06 42.16 44.89 42.01 46.69 41.83V38.77C44.89 38.92 43.06 39.1 41.26 39.22V38.62C42.73 37.45 44.26 35.92 45.46 34.51C46.21 35.11 47.05 35.89 47.44 36.34C47.92 35.71 48.37 35.02 48.82 34.27C49.36 36.49 50.02 38.53 50.86 40.36C49.3 42.55 47.23 44.23 44.41 45.49C45.07 46.24 46.12 47.89 46.45 48.73C49.06 47.41 51.13 45.79 52.78 43.81C54.13 45.79 55.78 47.41 57.85 48.64C58.39 47.65 59.5 46.24 60.31 45.52C58.09 44.38 56.35 42.64 55 40.51C56.59 37.45 57.61 33.79 58.24 29.35H60.01ZM70.33 41.41V39.97H81.7V41.41H70.33ZM81.7 36.1V37.54H70.33V36.1H81.7ZM85.33 33.22H66.76V48.61H70.33V43.87H81.7V45.25C81.7 45.67 81.55 45.82 81.01 45.82C80.56 45.85 78.64 45.85 77.2 45.76C77.59 46.57 78.07 47.74 78.25 48.61C80.68 48.61 82.45 48.58 83.68 48.16C84.91 47.71 85.33 46.96 85.33 45.28V33.22ZM80.59 26.26L79.15 27.13C79.78 27.58 80.44 28.09 81.1 28.63C77.95 28.69 74.83 28.72 71.92 28.78C72.61 27.97 73.33 27.1 73.99 26.26H80.59ZM89.26 26.26V23.14H77.8V20.59H74.14V23.14H62.68V26.26H69.49C69.01 27.1 68.47 28 67.9 28.81L63.73 28.87L63.82 32.08C69.07 31.96 76.9 31.75 84.37 31.48C85.09 32.17 85.72 32.83 86.17 33.4L89.32 31.39C88 29.86 85.51 27.85 83.32 26.26H89.26ZM101.56 21.52H93.49V24.22H101.56V21.52ZM98.74 40.75V44.2H96.13V40.75H98.74ZM101.68 37.96H93.22V48.19H96.13V46.99H101.68V37.96ZM93.31 36.49H101.62V33.82H93.31V36.49ZM101.62 29.71H93.31V32.44H101.62V29.71ZM106.84 28.6C108.49 27.07 109.93 25.33 110.86 23.8C111.91 25.33 113.44 27.07 115.12 28.6H106.84ZM105.73 31.51H116.17V29.5C116.95 30.16 117.76 30.73 118.54 31.21C119.05 30.19 119.74 28.93 120.43 28.09C117.43 26.62 114.4 23.62 112.36 20.62H109.15C107.86 22.99 105.34 25.9 102.61 27.79V25.54H91.99V28.36H101.71L101.5 28.48C102.07 29.26 102.85 30.52 103.21 31.39C104.08 30.88 104.92 30.25 105.73 29.59V31.51ZM114.04 39.43V36.13H115.63V39.43H114.04ZM110.2 39.43V36.13H111.7V39.43H110.2ZM106.42 39.43V36.13H107.86V39.43H106.42ZM118.69 33.31H103.45V48.43H106.42V42.22H107.86V48.22H110.2V42.22H111.7V48.22H114.04V42.22H115.63V45.46C115.63 45.7 115.57 45.79 115.33 45.79C115.12 45.79 114.61 45.79 114.07 45.76C114.43 46.54 114.82 47.68 114.91 48.49C116.14 48.49 117.04 48.43 117.76 47.98C118.51 47.5 118.69 46.75 118.69 45.49V33.31ZM149.8 22.69H142.24V20.62H138.7V22.69H131.08V25.27H149.8V22.69ZM141.88 31.51H138.94V30.46H141.88V31.51ZM144.25 28.99H136.66V32.98H144.25V28.99ZM145.54 33.82H135.46V28.12H145.54V33.82ZM148.57 26.11H132.58V35.86H148.57V26.11ZM136.9 41.38H143.95V42.4H136.9V41.38ZM136.9 38.56H143.95V39.58H136.9V38.56ZM147.37 44.29V36.7H133.66V44.29H147.37ZM131.02 37C130.15 37.36 129.28 37.72 128.41 38.05V31.09H130.78V27.7H128.41V21.04H125.17V27.7H122.41V31.09H125.17V39.31C123.91 39.79 122.74 40.21 121.78 40.54L122.92 44.17C125.59 43.03 128.83 41.65 131.8 40.3L131.02 37ZM129.73 45.16V47.77H150.04V45.16H129.73Z" fill="#2ABAF3" fill-opacity="0.85"/>
<line x1="187.219" y1="23.4444" x2="192.28" y2="29.697" stroke="#F2CFD9" stroke-width="6" stroke-linecap="round"/>
<line x1="228.132" y1="23.6451" x2="233.193" y2="29.8977" stroke="#F2CFD9" stroke-width="6" stroke-linecap="round"/>
<line x1="269.045" y1="23.8463" x2="274.106" y2="30.0989" stroke="#F2CFD9" stroke-width="6" stroke-linecap="round"/>
<line x1="309.958" y1="24.0474" x2="315.019" y2="30.3" stroke="#F2CFD9" stroke-width="6" stroke-linecap="round"/>
<line x1="350.871" y1="24.2481" x2="355.932" y2="30.5007" stroke="#F2CFD9" stroke-width="6" stroke-linecap="round"/>
<line x1="199.775" y1="38.692" x2="204.836" y2="44.9446" stroke="#F2CFD9" stroke-width="6" stroke-linecap="round"/>
<line x1="240.688" y1="38.8931" x2="245.749" y2="45.1457" stroke="#F2CFD9" stroke-width="6" stroke-linecap="round"/>
<line x1="281.601" y1="39.0943" x2="286.662" y2="45.3469" stroke="#F2CFD9" stroke-width="6" stroke-linecap="round"/>
<line x1="322.513" y1="39.295" x2="327.574" y2="45.5476" stroke="#F2CFD9" stroke-width="6" stroke-linecap="round"/>
<line x1="363.426" y1="39.4962" x2="368.487" y2="45.7488" stroke="#F2CFD9" stroke-width="6" stroke-linecap="round"/>
<line x1="200.051" y1="30.7109" x2="206.304" y2="25.6499" stroke="#F2CFD9" stroke-width="6" stroke-linecap="round"/>
<line x1="240.964" y1="30.912" x2="247.216" y2="25.8511" stroke="#F2CFD9" stroke-width="6" stroke-linecap="round"/>
<line x1="281.877" y1="31.1132" x2="288.129" y2="26.0523" stroke="#F2CFD9" stroke-width="6" stroke-linecap="round"/>
<line x1="322.79" y1="31.3139" x2="329.042" y2="26.2529" stroke="#F2CFD9" stroke-width="6" stroke-linecap="round"/>
<line x1="363.702" y1="31.5151" x2="369.955" y2="26.4541" stroke="#F2CFD9" stroke-width="6" stroke-linecap="round"/>
<line x1="183.847" y1="42.8642" x2="190.1" y2="37.8032" stroke="#F2CFD9" stroke-width="6" stroke-linecap="round"/>
<line x1="224.76" y1="43.0654" x2="231.012" y2="38.0044" stroke="#F2CFD9" stroke-width="6" stroke-linecap="round"/>
<line x1="265.673" y1="43.2665" x2="271.925" y2="38.2056" stroke="#F2CFD9" stroke-width="6" stroke-linecap="round"/>
<line x1="306.586" y1="43.4672" x2="312.838" y2="38.4063" stroke="#F2CFD9" stroke-width="6" stroke-linecap="round"/>
<line x1="347.498" y1="43.6679" x2="353.751" y2="38.6069" stroke="#F2CFD9" stroke-width="6" stroke-linecap="round"/>
</svg>
