<svg width="390" height="15" viewBox="0 0 390 15" fill="none" xmlns="http://www.w3.org/2000/svg">
<path d="M0.882 9.698H15.462V7.988H0.882V9.698ZM42.8257 14H45.3457V8.654C45.3457 7.124 45.1477 5.45 45.0217 4.01H45.1117L46.4617 6.872L50.3137 14H53.0137V0.68H50.4937V5.99C50.4937 7.502 50.6917 9.266 50.8357 10.652H50.7457L49.4137 7.772L45.5437 0.68H42.8257V14ZM65.1641 14.252C66.8921 14.252 68.3141 13.568 69.4121 12.29L68.0081 10.634C67.2881 11.408 66.3881 11.948 65.2541 11.948C63.1481 11.948 61.7801 10.202 61.7801 7.304C61.7801 4.442 63.2921 2.714 65.3081 2.714C66.3161 2.714 67.0901 3.182 67.7561 3.83L69.1601 2.138C68.2961 1.238 66.9461 0.428 65.2541 0.428C61.8881 0.428 59.0621 3.002 59.0621 7.394C59.0621 11.84 61.7981 14.252 65.1641 14.252ZM74.9782 14H77.6422V10.256L79.3882 8.024L82.8262 14H85.7602L80.9722 5.918L85.0402 0.68H82.1062L77.6962 6.458H77.6422V0.68H74.9782V14ZM95.516 14.252C98.774 14.252 100.664 12.434 100.664 8.006V0.68H98.108V8.24C98.108 11.012 97.1 11.948 95.516 11.948C93.95 11.948 92.996 11.012 92.996 8.24V0.68H90.332V8.006C90.332 12.434 92.276 14.252 95.516 14.252ZM114.625 14H122.635V11.858H120.133V0.68H118.171C117.325 1.202 116.407 1.544 115.075 1.796V3.434H117.487V11.858H114.625V14ZM130.121 8.528L132.191 5.216C132.569 4.496 132.929 3.758 133.253 3.056H133.325C133.289 3.83 133.217 5.036 133.217 5.81V8.528H130.121ZM137.267 8.528H135.683V0.68H132.515L127.547 8.744V10.544H133.217V14H135.683V10.544H137.267V8.528ZM145.472 14H148.136V2.894H151.916V0.68H141.728V2.894H145.472V14ZM157.496 14H160.16V8.24H165.2V14H167.846V0.68H165.2V5.918H160.16V0.68H157.496V14ZM182.037 14H186.789C189.723 14 191.955 12.758 191.955 10.076C191.955 8.276 190.893 7.268 189.453 6.926V6.836C190.587 6.44 191.271 5.18 191.271 3.956C191.271 1.472 189.183 0.68 186.447 0.68H182.037V14ZM184.701 6.098V2.714H186.285C187.887 2.714 188.679 3.182 188.679 4.352C188.679 5.414 187.941 6.098 186.249 6.098H184.701ZM184.701 11.948V8.078H186.555C188.391 8.078 189.363 8.618 189.363 9.914C189.363 11.3 188.373 11.948 186.555 11.948H184.701ZM197.709 14H200.373V0.68H197.709V14ZM207.071 14H209.735V10.256L211.481 8.024L214.919 14H217.853L213.065 5.918L217.133 0.68H214.199L209.789 6.458H209.735V0.68H207.071V14ZM222.831 14H231.201V11.768H225.495V8.204H230.175V5.972H225.495V2.894H231.003V0.68H222.831V14ZM244.823 14H247.487V8.6H252.221V6.368H247.487V2.894H253.031V0.68H244.823V14ZM258.772 14H267.142V11.768H261.436V8.204H266.116V5.972H261.436V2.894H266.944V0.68H258.772V14ZM277.244 14.252C280.322 14.252 282.14 12.398 282.14 10.22C282.14 8.294 281.078 7.268 279.458 6.602L277.712 5.864C276.578 5.414 275.624 5.072 275.624 4.118C275.624 3.236 276.38 2.714 277.55 2.714C278.648 2.714 279.53 3.11 280.376 3.812L281.726 2.138C280.646 1.04 279.098 0.428 277.55 0.428C274.85 0.428 272.942 2.102 272.942 4.28C272.942 6.224 274.292 7.304 275.642 7.862L277.424 8.618C278.612 9.122 279.422 9.428 279.422 10.418C279.422 11.354 278.684 11.948 277.298 11.948C276.128 11.948 274.868 11.354 273.914 10.472L272.384 12.308C273.68 13.55 275.462 14.252 277.244 14.252ZM290.143 14H292.807V2.894H296.587V0.68H286.399V2.894H290.143V14ZM302.167 14H304.831V0.68H302.167V14ZM313.868 14H317.036L321.122 0.68H318.422L316.694 7.16C316.28 8.636 315.974 9.968 315.56 11.462H315.47C315.038 9.968 314.768 8.636 314.354 7.16L312.59 0.68H309.8L313.868 14ZM328.243 8.51L328.639 7.052C329.035 5.666 329.431 4.154 329.773 2.696H329.845C330.241 4.136 330.601 5.666 331.015 7.052L331.411 8.51H328.243ZM332.923 14H335.713L331.429 0.68H328.297L324.031 14H326.731L327.667 10.58H331.987L332.923 14ZM340.693 14H348.757V11.768H343.357V0.68H340.693V14ZM375.165 9.698H389.745V7.988H375.165V9.698Z" fill="#2ABAF3" fill-opacity="0.6"/>
</svg>
