<svg width="332" height="102" viewBox="0 0 332 102" fill="none" xmlns="http://www.w3.org/2000/svg">
<rect x="79.1834" y="69.7568" width="217" height="17" rx="8.5" fill="#FFE3B8" fill-opacity="0.35"/>
<path d="M123.995 52.2088H110.443V49.9648H123.995V52.2088ZM123.995 57.8408H110.443V55.6408H123.995V57.8408ZM123.995 63.5608H110.443V61.3168H123.995V63.5608ZM105.515 46.3128V67.2128H129.187V46.3128H116.471C116.647 45.5648 116.779 44.7288 116.955 43.8928H133.719V39.0968H117.747C117.967 37.9088 118.099 36.7208 118.275 35.5328L112.115 35.3568C112.071 36.5008 112.027 37.7768 111.939 39.0968H94.7354V43.8928H111.455C111.367 44.7288 111.235 45.5648 111.103 46.3128H105.515ZM134.159 69.7648H101.951V47.6768H96.7594V76.6288H101.951V74.6488H134.159V69.7648ZM160.207 58.8088C162.671 57.2248 164.915 55.1568 166.719 52.8248V58.1488H171.427V52.3408C173.363 54.8048 175.827 57.0928 178.379 58.8088H160.207ZM171.119 71.2168V68.6648H175.607V71.2168H171.119ZM162.715 68.6648H166.807V71.2168H162.715V68.6648ZM166.807 65.0568H162.715V62.5928H166.807V65.0568ZM175.607 65.0568H171.119V62.5928H175.607V65.0568ZM166.719 46.4448H162.583L165.003 45.6088C164.695 44.5088 163.859 42.7928 163.199 41.3848C164.387 41.3408 165.531 41.2528 166.719 41.1648V46.4448ZM182.559 50.6248V46.4448H177.543C178.335 44.9488 179.259 43.2328 180.139 41.5168L175.651 40.3288C175.035 42.1768 173.891 44.5968 172.967 46.4448H171.427V40.7688C174.903 40.4168 178.247 39.9768 181.107 39.4488L178.379 35.6648C172.923 36.7648 163.991 37.5568 156.379 37.8648C156.819 38.8768 157.391 40.5048 157.523 41.6048C159.019 41.5608 160.559 41.5168 162.143 41.4288L158.975 42.3968C159.547 43.6288 160.207 45.2128 160.603 46.4448H156.247V50.6248H163.067C161.175 52.7808 158.447 54.7608 155.587 56.0368L155.191 53.9248L151.979 54.9808V48.6448H155.939V43.8048H151.979V35.5328H147.183V43.8048H142.563V48.6448H147.183V56.5648C145.159 57.1368 143.355 57.7088 141.815 58.1488L142.739 63.2088L147.183 61.7128V71.0408C147.183 71.6128 146.963 71.7888 146.435 71.7888C145.907 71.8328 144.411 71.8328 142.827 71.7448C143.443 73.1528 144.015 75.3088 144.147 76.5848C147.007 76.6288 148.899 76.4528 150.219 75.6168C151.539 74.7808 151.979 73.4608 151.979 71.0408V60.0408C153.299 59.5568 154.575 59.0728 155.895 58.5888C156.423 59.2488 156.863 59.9088 157.171 60.4368C157.479 60.3048 157.787 60.1728 158.095 59.9968V76.4968H162.715V74.8688H175.607V76.3208H180.447V59.9968L180.667 60.1288C181.415 58.9408 182.867 57.2248 183.923 56.3448C180.887 55.1568 177.631 52.9568 175.387 50.6248H182.559ZM213.887 56.5208H218.507L217.627 57.2248C218.199 57.4448 218.815 57.7528 219.431 58.0168L213.887 58.0608V56.5208ZM200.995 53.3088V51.6368H208.783V53.3088H200.995ZM200.995 47.0168H208.783V48.6448H200.995V47.0168ZM222.071 47.0168V48.6448H213.887V47.0168H222.071ZM213.887 53.3088V51.6368H222.071V53.3088H213.887ZM231.443 63.1208H221.631V61.3608L224.843 61.2728C225.547 61.7568 226.163 62.2848 226.691 62.7248L229.903 60.0408C228.495 58.9848 226.427 57.6648 224.227 56.5208H227.175V43.8488H213.887V42.2648H229.947V38.3048H213.887V35.5328H208.783V38.3048H192.635V42.2648H208.783V43.8488H196.111V56.5208H208.783V58.1048C202.843 58.1048 197.431 58.1488 193.295 58.1048L193.427 61.8448C199.587 61.8008 207.903 61.6688 216.571 61.4928V63.1208H191.447V67.2568H200.247L198.399 68.7968C200.775 70.4248 203.723 72.9328 204.999 74.6488L208.871 71.3048C207.859 70.1168 206.011 68.5768 204.163 67.2568H216.571V71.3488C216.571 71.9208 216.351 72.0528 215.647 72.0968C214.943 72.0968 212.435 72.0968 210.323 72.0088C210.939 73.3288 211.599 75.1768 211.819 76.5848C215.163 76.5848 217.627 76.5408 219.387 75.8808C221.191 75.1768 221.631 73.9448 221.631 71.5248V67.2568H231.443V63.1208ZM280.283 70.1168H246.843V41.6048H279.139V36.9848H241.739V76.5848H246.843V74.8248H280.283V70.1168ZM266.071 50.7128H258.855V47.1048H266.071V50.7128ZM271.219 43.6728H253.971V54.1448H271.219V43.6728ZM253.707 59.6008H257.139V64.3968H253.707V59.6008ZM249.483 67.9168H261.627V56.0808H249.483V67.9168ZM271.439 64.3968H267.875V59.6008H271.439V64.3968ZM275.971 56.0808H263.563V67.9168H275.971V56.0808Z" fill="#2ABAF3" fill-opacity="0.85"/>
<path d="M299.183 19.9959L312.632 7.9525" stroke="#2ABAF3" stroke-opacity="0.85" stroke-width="10" stroke-linecap="round" stroke-linejoin="round"/>
<path d="M306.175 35.7416L324.183 37.0018" stroke="#2ABAF3" stroke-opacity="0.85" stroke-width="10" stroke-linecap="round" stroke-linejoin="round"/>
<path fill-rule="evenodd" clip-rule="evenodd" d="M70.8241 52.3545C68.9447 46.3369 57.6222 47.8278 52.5151 44.7041C48.3511 42.1573 48.3696 33.5705 41.7621 30.9551C36.761 28.9755 31.9948 30.023 27.1348 32.1302C20.9908 34.7941 18.0821 41.6669 17.3991 47.5253C16.7249 53.3089 18.6987 59.2162 21.1198 64.6433C23.1899 69.284 26.7989 72.6643 30.6361 75.7113C34.1859 78.5301 38.0783 80.3002 42.2859 81.4508C47.2633 82.812 52.5411 85.0873 57.1359 82.9582C61.9558 80.7248 64.5039 75.2239 66.7992 70.0921C69.2902 64.5229 72.7171 58.4158 70.8241 52.3545Z" fill="url(#paint0_linear)"/>
<defs>
<linearGradient id="paint0_linear" x1="22.4541" y1="45.0808" x2="61.8271" y2="53.0526" gradientUnits="userSpaceOnUse">
<stop stop-color="#97D3F1"/>
<stop offset="0.9999" stop-color="#EDE3D8"/>
<stop offset="1" stop-color="#EDE3D8"/>
</linearGradient>
</defs>
</svg>
