<svg width="408" height="68" viewBox="0 0 408 68" fill="none" xmlns="http://www.w3.org/2000/svg">
<rect width="408" height="68" rx="13" fill="white" fill-opacity="0.85"/>
<path d="M41.41 21.52H33.46V24.22H41.41V21.52ZM42.37 25.66H31.99V28.48H42.37V25.66ZM41.5 29.95H33.28V32.62H41.5V29.95ZM33.28 36.82H41.5V34.12H33.28V36.82ZM38.62 41.17V44.59H36.13V41.17H38.62ZM41.59 38.35H33.19V48.58H36.13V47.41H41.59V38.35ZM52.6 41.41V40H55.39V41.41H52.6ZM46.84 40H49.66V41.41H46.84V40ZM49.66 36.4V37.81H46.84V36.4H49.66ZM55.39 36.4V37.81H52.6V36.4H55.39ZM49.48 28.87H52.96V30.16H49.48V28.87ZM49.48 25.21H52.96V26.41H49.48V25.21ZM60.13 41.41H58.63V33.94H52.6V32.86H60.07V30.16H56.17V28.87H58.9V26.41H56.17V25.21H59.53V22.69H56.17V20.59H52.96V22.69H49.48V20.59H46.3V22.69H43.18V25.21H46.3V26.41H43.72V28.87H46.3V30.16H42.4V32.86H49.66V33.94H43.84V41.41H42.34V44.23H43.84V48.61H46.84V44.23H55.39V45.43C55.39 45.79 55.27 45.88 54.88 45.91C54.52 45.91 53.2 45.91 52.03 45.85C52.39 46.63 52.75 47.77 52.84 48.61C54.85 48.61 56.32 48.58 57.31 48.13C58.33 47.68 58.63 46.96 58.63 45.46V44.23H60.13V41.41ZM139.63 41.86H147.61V38.77H139.63V36.25C140.26 36.76 140.89 37.33 141.22 37.72C142.3 36.88 143.2 35.83 143.92 34.63C145.24 35.77 146.53 36.97 147.31 37.84L149.38 35.38C148.45 34.42 146.77 33.01 145.24 31.78C145.6 30.73 145.87 29.56 146.05 28.33L142.87 27.97C142.48 30.88 141.46 33.28 139.63 34.9V27.58H136.18V34.57C135.49 33.76 134.41 32.74 133.39 31.81C133.72 30.73 133.96 29.5 134.11 28.21L130.87 27.97C130.51 31.45 129.37 34.18 126.91 35.83C127 34.24 127.03 32.77 127.03 31.48V26.59H149.02V23.32H138.19V20.62H134.47V23.32H123.52V31.45C123.52 35.83 123.34 42.1 121 46.39C121.84 46.75 123.4 47.77 124.03 48.37C125.89 44.95 126.64 40.09 126.91 35.83C127.63 36.31 128.95 37.36 129.49 37.93C130.57 37.06 131.47 35.98 132.19 34.72C133.09 35.65 133.99 36.61 134.47 37.33L136.18 35.29V38.77H128.65V41.86H136.18V44.83H126.76V47.89H149.23V44.83H139.63V41.86Z" fill="#2ABAF3" fill-opacity="0.85"/>
<line x1="187.219" y1="23.4444" x2="192.28" y2="29.697" stroke="#90D9D7" stroke-width="6" stroke-linecap="round"/>
<line x1="228.132" y1="23.6451" x2="233.193" y2="29.8977" stroke="#90D9D7" stroke-width="6" stroke-linecap="round"/>
<line x1="269.045" y1="23.8463" x2="274.106" y2="30.0989" stroke="#90D9D7" stroke-width="6" stroke-linecap="round"/>
<line x1="309.958" y1="24.0474" x2="315.019" y2="30.3" stroke="#90D9D7" stroke-width="6" stroke-linecap="round"/>
<line x1="350.871" y1="24.2481" x2="355.932" y2="30.5007" stroke="#90D9D7" stroke-width="6" stroke-linecap="round"/>
<line x1="199.775" y1="38.692" x2="204.836" y2="44.9446" stroke="#90D9D7" stroke-width="6" stroke-linecap="round"/>
<line x1="240.688" y1="38.8931" x2="245.749" y2="45.1457" stroke="#90D9D7" stroke-width="6" stroke-linecap="round"/>
<line x1="281.601" y1="39.0943" x2="286.662" y2="45.3469" stroke="#90D9D7" stroke-width="6" stroke-linecap="round"/>
<line x1="322.513" y1="39.295" x2="327.574" y2="45.5476" stroke="#90D9D7" stroke-width="6" stroke-linecap="round"/>
<line x1="363.426" y1="39.4962" x2="368.487" y2="45.7488" stroke="#90D9D7" stroke-width="6" stroke-linecap="round"/>
<line x1="200.051" y1="30.7109" x2="206.304" y2="25.6499" stroke="#90D9D7" stroke-width="6" stroke-linecap="round"/>
<line x1="240.964" y1="30.912" x2="247.216" y2="25.8511" stroke="#90D9D7" stroke-width="6" stroke-linecap="round"/>
<line x1="281.877" y1="31.1132" x2="288.129" y2="26.0523" stroke="#90D9D7" stroke-width="6" stroke-linecap="round"/>
<line x1="322.79" y1="31.3139" x2="329.042" y2="26.2529" stroke="#90D9D7" stroke-width="6" stroke-linecap="round"/>
<line x1="363.702" y1="31.5151" x2="369.955" y2="26.4541" stroke="#90D9D7" stroke-width="6" stroke-linecap="round"/>
<line x1="183.847" y1="42.8642" x2="190.1" y2="37.8032" stroke="#90D9D7" stroke-width="6" stroke-linecap="round"/>
<line x1="224.76" y1="43.0654" x2="231.012" y2="38.0044" stroke="#90D9D7" stroke-width="6" stroke-linecap="round"/>
<line x1="265.673" y1="43.2665" x2="271.925" y2="38.2056" stroke="#90D9D7" stroke-width="6" stroke-linecap="round"/>
<line x1="306.586" y1="43.4672" x2="312.838" y2="38.4063" stroke="#90D9D7" stroke-width="6" stroke-linecap="round"/>
<line x1="347.498" y1="43.6679" x2="353.751" y2="38.6069" stroke="#90D9D7" stroke-width="6" stroke-linecap="round"/>
</svg>
