<svg width="337" height="109" viewBox="0 0 337 109" fill="none" xmlns="http://www.w3.org/2000/svg">
<rect x="84.1833" y="69.7568" width="217" height="17" rx="8.5" fill="#FFE3B8" fill-opacity="0.35"/>
<path d="M127.939 63.2088V70.3808H110.559V63.2088H127.939ZM105.411 76.6288H110.559V75.0008H127.939V76.6288H133.307V58.5888H105.411V76.6288ZM110.295 49.6128C113.903 46.7528 116.983 43.6288 119.051 40.6808C121.163 43.5848 124.419 46.7528 128.071 49.6128H110.295ZM116.103 35.5328C112.803 40.9008 105.763 47.5448 98.1953 51.1968C99.3393 52.2968 100.791 54.1888 101.495 55.4648C103.827 54.1888 106.159 52.7368 108.315 51.1528V54.2328H130.227V51.1968C132.427 52.7808 134.715 54.2328 136.959 55.3768C137.883 53.7488 139.071 52.0328 140.347 50.6688C133.351 47.8528 126.223 42.2648 121.515 35.5328H116.103ZM156.891 35.6648C154.691 41.9128 150.863 48.1608 146.859 52.1208C147.783 53.4408 149.279 56.4328 149.763 57.7088C150.643 56.7408 151.567 55.6408 152.491 54.5408V76.5408H157.771V46.4008C159.399 43.4528 160.851 40.3288 161.995 37.2488L156.891 35.6648ZM188.439 47.6328V42.6608H171.367C172.203 40.8568 172.907 39.0528 173.523 37.2048L168.463 35.9288C166.483 42.2208 163.007 48.5568 159.135 52.5168C160.235 53.3528 162.303 55.2008 163.139 56.1688C165.119 53.8808 167.143 50.8888 168.903 47.6328H170.575V76.5848H175.943V66.8168H187.911V61.9768H175.943V57.0048H187.339V52.2528H175.943V47.6328H188.439ZM228.743 42.8808H222.451V40.3288H228.743V42.8808ZM233.627 37.2048H217.831V46.0048H233.627V37.2048ZM210.263 42.8808H204.103V40.3288H210.263V42.8808ZM215.147 37.2048H199.439V46.0048H215.147V37.2048ZM206.127 60.2168V57.8408H213.563V60.2168H206.127ZM206.127 51.7688H213.563V54.1008H206.127V51.7688ZM226.851 54.1008H218.931V51.7688H226.851V54.1008ZM226.851 60.2168H218.931V57.8408H226.851V60.2168ZM236.047 66.5088H218.931V64.2208H232.219V47.7208H201.023V64.2208H213.563V66.5088H196.843V70.9968H213.563V76.5848H218.931V70.9968H236.047V66.5088ZM258.223 43.4088V48.3808H284.843V43.4088H273.843V36.0608H268.563V43.4088H258.223ZM269.091 67.3008C268.783 62.9888 267.463 55.9048 265.967 50.3608L261.259 51.1968C262.667 56.8288 263.767 64.1328 263.899 68.4008L269.091 67.3008ZM254.307 35.5768C251.931 41.8248 247.883 47.9848 243.703 51.8568C244.583 53.1328 245.991 56.0368 246.475 57.3128C247.707 56.0808 248.895 54.7168 250.083 53.1768V76.4528H255.055V45.6968C256.639 42.9248 258.047 40.0208 259.191 37.2048L254.307 35.5768ZM276.835 69.8088C278.551 64.6608 280.443 57.4008 281.719 51.0208L275.999 50.0968C275.295 56.3008 273.491 64.4408 271.775 69.8088H257.343V74.7368H285.767V69.8088H276.835Z" fill="#2ABAF3" fill-opacity="0.85"/>
<path d="M304.183 19.9959L317.632 7.9525" stroke="#2ABAF3" stroke-opacity="0.85" stroke-width="10" stroke-linecap="round" stroke-linejoin="round"/>
<path d="M311.175 35.7416L329.183 37.0018" stroke="#2ABAF3" stroke-opacity="0.85" stroke-width="10" stroke-linecap="round" stroke-linejoin="round"/>
<path fill-rule="evenodd" clip-rule="evenodd" d="M77.4326 53.7632C76.2048 47.7498 70.3095 44.4645 65.6185 40.9478C61.7938 38.0805 57.4717 36.8747 53.0311 35.4702C47.9864 33.8746 42.9627 30.6275 37.9785 32.2054C32.6883 33.8802 28.1866 38.4301 26.1424 43.9828C24.1763 49.3233 25.5867 55.4293 27.4064 60.9222C28.9623 65.6191 32.1572 69.2412 35.61 72.5621C38.8043 75.6343 42.4421 77.7226 46.4526 79.2406C51.1968 81.0362 56.1423 83.7468 60.8685 82.1223C65.8263 80.4182 68.8897 75.3291 71.6672 70.5738C74.6815 65.413 78.6692 59.8203 77.4326 53.7632Z" fill="url(#paint0_linear)"/>
<defs>
<linearGradient id="paint0_linear" x1="77.3724" y1="53.1846" x2="26.4718" y2="60.3696" gradientUnits="userSpaceOnUse">
<stop stop-color="#99D4F1"/>
<stop offset="0.322917" stop-color="#98D5EE"/>
<stop offset="0.572917" stop-color="#93D7E1"/>
<stop offset="1" stop-color="#90D9D7"/>
</linearGradient>
</defs>
</svg>
