<svg width="328" height="102" viewBox="0 0 328 102" fill="none" xmlns="http://www.w3.org/2000/svg">
<rect x="75.1834" y="69.7568" width="217" height="17" rx="8.5" fill="#FFE3B8" fill-opacity="0.35"/>
<path d="M129.587 43.7168C128.311 41.6488 125.407 38.7448 123.075 36.7208L119.115 39.4048C121.491 41.5168 124.219 44.6408 125.363 46.6648L129.587 43.7168ZM123.955 54.3648C122.811 56.4768 121.359 58.4568 119.775 60.3488C119.291 58.1048 118.851 55.5528 118.499 52.9128H129.939V47.9408H117.971C117.619 44.0688 117.443 39.9768 117.531 35.8848H112.031C112.075 39.8888 112.207 43.9808 112.559 47.9408H104.111V42.0008C106.663 41.4728 109.083 40.9008 111.283 40.2408L107.763 35.7968C103.275 37.2488 96.4554 38.6568 90.2954 39.4928C90.8674 40.6808 91.5714 42.6168 91.7914 43.8928C94.0354 43.6288 96.4554 43.3208 98.8314 42.9248V47.9408H90.5154V52.9128H98.8314V58.8088C95.3554 59.4248 92.1874 59.9088 89.6794 60.3048L90.9554 65.5848C93.2874 65.1448 96.0154 64.5728 98.8314 64.0008V70.3808C98.8314 71.0848 98.5674 71.3048 97.7754 71.3048C96.9834 71.3488 94.4314 71.3928 91.9674 71.2608C92.7154 72.7128 93.5954 75.0888 93.8154 76.5408C97.3794 76.5848 100.019 76.3648 101.735 75.5288C103.495 74.6928 104.111 73.2848 104.111 70.4248V62.9008L111.283 61.4488L110.887 56.6968C108.643 57.0928 106.355 57.5328 104.111 57.9288V52.9128H113.043C113.571 57.2248 114.319 61.2288 115.287 64.7048C112.251 67.2128 108.863 69.3688 105.475 70.9088C106.751 72.0968 108.203 73.9008 108.951 75.1328C111.767 73.6808 114.539 71.8768 117.091 69.7648C118.983 74.0768 121.447 76.7168 124.659 76.7168C128.663 76.7168 130.291 74.7808 131.127 67.0808C129.719 66.5088 127.959 65.3208 126.815 64.0888C126.595 69.2808 126.067 71.3928 125.143 71.3928C123.823 71.3928 122.459 69.3688 121.271 65.9808C124.131 63.1208 126.595 59.9088 128.575 56.3448L123.955 54.3648ZM153.875 63.4288H164.611C163.555 65.0568 162.235 66.4208 160.607 67.5208C157.923 66.8168 155.151 66.1568 152.423 65.5848L153.875 63.4288ZM146.483 48.2048H151.103V52.2968H146.483V48.2048ZM156.031 41.5608H161.003V44.0688H156.031V41.5608ZM171.211 48.2048V52.2968H165.931V48.2048H171.211ZM156.031 52.2968V48.2048H161.003V52.2968H156.031ZM178.911 63.4288V59.2048H156.691C157.307 58.2368 157.879 57.3128 158.451 56.3888H176.447V44.0688H165.931V41.5608H177.855V37.0288H139.531V41.5608H151.103V44.0688H141.555V56.3888H152.467C151.895 57.3128 151.323 58.2368 150.707 59.2048H138.739V63.4288H147.891C146.571 65.3208 145.295 67.0368 144.195 68.4448L149.255 70.0288L149.739 69.3688C151.191 69.6768 152.599 70.0288 154.007 70.3808C150.091 71.3928 145.339 71.9208 139.531 72.1408C140.323 73.2848 141.159 75.1328 141.511 76.6288C150.047 75.9688 156.559 74.8248 161.487 72.4048C166.459 73.8568 170.903 75.3968 174.247 76.7608L177.459 72.4928C174.467 71.4368 170.639 70.2488 166.371 69.0608C167.999 67.5208 169.363 65.6728 170.463 63.4288H178.911ZM200.295 56.2568H193.915L195.323 55.8608C195.147 54.6288 194.531 52.7368 193.783 51.1528H200.471C200.075 52.6488 199.415 54.5408 198.887 55.8608L200.295 56.2568ZM199.547 43.7168H205.267V39.4048H199.547V35.5768H194.707V39.4048H188.415V43.7168H194.707V46.7528H186.875V51.1528H191.231L189.647 51.5488C190.263 53.0008 190.835 54.8488 191.099 56.2568H187.799V60.6568H194.707V64.0448H188.151V68.4448H194.707V76.4528H199.547V68.4448H205.751V64.0448H199.547V60.6568H206.235V56.2568H202.935C203.551 54.9368 204.211 53.2208 204.959 51.5928L203.243 51.1528H206.895V46.7528H199.547V43.7168ZM212.439 58.3688C213.539 61.8448 214.947 65.0568 216.663 67.8728C215.431 69.5888 214.023 71.0848 212.439 72.3608V58.3688ZM221.591 56.5648C221.063 58.9408 220.271 61.2728 219.259 63.3848C217.983 61.2728 216.927 58.9848 216.135 56.5648H221.591ZM223.923 52.2088L223.043 52.4288H212.439V41.9128H221.195V45.5208C221.195 46.0048 220.975 46.1368 220.315 46.1808C219.655 46.1808 217.235 46.1808 215.079 46.0928C215.695 47.3688 216.355 49.1728 216.575 50.5808C219.787 50.5808 222.163 50.5368 223.835 49.8328C225.551 49.1288 226.035 47.8528 226.035 45.6088V37.3368H207.687V76.5408H212.439V73.9448C213.363 74.7808 214.287 75.7928 214.859 76.6728C216.663 75.3528 218.247 73.7688 219.655 71.9648C221.283 73.8128 223.087 75.3968 225.155 76.6288C225.903 75.3088 227.399 73.4608 228.543 72.4928C226.255 71.3488 224.231 69.6768 222.427 67.6968C224.671 63.5608 226.211 58.6328 227.047 53.3088L223.923 52.2088ZM253.095 70.1168V61.5368H268.011V70.1168H253.095ZM260.839 44.3768C259.255 47.2808 257.187 50.0088 254.723 52.4288C252.875 50.5368 250.059 48.3368 247.727 46.6208C248.475 45.8728 249.179 45.1248 249.883 44.3768H260.839ZM273.467 56.7848H257.759C262.159 52.6048 265.723 47.4568 267.967 41.4288L264.359 39.5368L263.479 39.8008H253.491C254.283 38.6568 255.031 37.5128 255.691 36.3688L249.795 35.2688C247.243 40.0648 242.403 45.4328 235.187 49.2608C236.375 50.1408 238.091 52.0768 238.883 53.3528C240.643 52.2968 242.271 51.1968 243.767 50.0088C246.099 51.8568 248.739 54.1448 250.499 56.0808C245.923 59.4688 240.599 62.1088 235.099 63.6928C236.199 64.7488 237.519 66.9048 238.135 68.3568C241.479 67.2128 244.779 65.8048 247.859 64.0448V76.5408H253.095V74.8248H268.011V76.5848H273.467V56.7848Z" fill="#2ABAF3" fill-opacity="0.85"/>
<path d="M295.183 19.9959L308.632 7.9525" stroke="#2ABAF3" stroke-opacity="0.85" stroke-width="10" stroke-linecap="round" stroke-linejoin="round"/>
<path d="M302.175 35.7416L320.183 37.0018" stroke="#2ABAF3" stroke-opacity="0.85" stroke-width="10" stroke-linecap="round" stroke-linejoin="round"/>
<path fill-rule="evenodd" clip-rule="evenodd" d="M49.1564 76.4814C53.1864 73.2776 55.5503 68.7998 57.9626 64.2463C60.5422 59.377 64.8124 54.5401 63.6386 49.1444C62.4669 43.7583 57.0743 40.3363 52.2021 37.7669C48.1586 35.6346 43.3881 37.164 38.9414 36.1205C33.5987 34.8667 29.0444 29.9105 23.6885 31.0756C17.9015 32.3345 12.7 36.8069 10.4932 42.3093C8.3189 47.7305 10.453 53.7939 12.3576 59.3276C14.0408 64.2179 17.3229 68.0415 20.6985 71.9598C24.5683 76.4516 27.5667 82.8362 33.4108 83.7648C39.2727 84.6962 44.5158 80.1706 49.1564 76.4814Z" fill="url(#paint0_linear)"/>
<defs>
<linearGradient id="paint0_linear" x1="50.7141" y1="76.8233" x2="24.3627" y2="29.8421" gradientUnits="userSpaceOnUse">
<stop stop-color="#97D3F1"/>
<stop offset="0.9999" stop-color="#EDE3D8"/>
<stop offset="1" stop-color="#EDE3D8"/>
</linearGradient>
</defs>
</svg>
