<svg width="514" height="463" viewBox="0 0 514 463" fill="none" xmlns="http://www.w3.org/2000/svg">
<g style="mix-blend-mode:lighten">
<path fill-rule="evenodd" clip-rule="evenodd" d="M268.603 225.539C241.718 251.224 230.946 295.62 191.783 302.581C151.292 309.778 106.316 282.118 63.6803 261.962C15.8601 239.355 -39.1767 223.114 -70.0834 178.784C-101.674 133.475 -106.268 77.805 -96.5335 32.1694C-87.6185 -9.62517 -47.1245 -28.0453 -19.658 -57.6161C8.66339 -88.1074 20.634 -142.461 66.6535 -143.521C112.714 -144.581 153.941 -94.5233 195.606 -62.573C230.054 -36.1571 261.867 -8.92838 287.574 25.8905C316.441 64.9875 356.083 107.672 352.117 149.407C348.159 191.066 296.513 198.875 268.603 225.539Z" stroke="white" stroke-width="2"/>
</g>
<path fill-rule="evenodd" clip-rule="evenodd" d="M337.425 214.547C310.798 244.323 301.203 291.356 261.456 303.386C220.362 315.825 173.592 292.945 129.447 277.498C79.934 260.172 23.2569 250.295 -9.67966 208.51C-43.3446 165.802 -49.7861 109.076 -41.2893 60.8966C-33.5076 16.7728 7.23686 -7.2175 34.3354 -41.0656C62.2774 -75.9672 72.7818 -133.397 119.712 -140.206C166.684 -147.021 210.333 -100.623 253.859 -72.9157C289.845 -50.0082 323.167 -25.9366 350.499 6.70555C381.188 43.3584 422.988 82.3648 420.255 125.812C417.527 169.18 365.068 183.636 337.425 214.547Z" fill="url(#paint0_linear)"/>
<defs>
<linearGradient id="paint0_linear" x1="18.1802" y1="-17.1727" x2="323.164" y2="222.512" gradientUnits="userSpaceOnUse">
<stop stop-color="#75D9DE"/>
<stop offset="0.520833" stop-color="#CFD2DA"/>
<stop offset="0.9375" stop-color="#F2CFD9"/>
</linearGradient>
</defs>
</svg>
