<svg width="204" height="265" viewBox="0 0 204 265" fill="none" xmlns="http://www.w3.org/2000/svg">
<path fill-rule="evenodd" clip-rule="evenodd" d="M20.73 121.519C26.7073 97.1728 72.014 100.302 91.5149 86.6462C107.415 75.5123 105.227 41.4353 130.808 29.4275C150.17 20.339 169.345 23.3227 189.154 30.4895C214.196 39.5497 227.433 66.1117 231.586 89.1957C235.687 111.985 229.307 135.917 221.035 158.054C213.961 176.983 200.469 191.288 185.99 204.327C172.595 216.389 157.582 224.373 141.165 229.976C121.744 236.604 101.357 246.935 82.5954 239.616C62.915 231.938 51.4469 210.733 41.073 190.93C29.8147 169.439 14.7093 146.043 20.73 121.519Z" fill="url(#paint0_linear)"/>
<path fill-rule="evenodd" clip-rule="evenodd" d="M27.8467 142.345C29.5995 118.35 72.1303 114.087 88.0985 98.0545C101.118 84.9823 93.7778 53.0811 115.645 37.6381C132.196 25.9496 150.455 25.7159 169.954 29.3399C194.603 33.9215 211.026 56.9488 218.478 78.1329C225.834 99.0465 223.643 122.713 219.416 144.982C215.801 164.024 205.511 179.713 194.106 194.362C183.555 207.913 170.868 217.863 156.507 225.784C139.518 235.153 122.209 248.18 103.658 244.245C84.1993 240.118 70.2528 221.877 57.5404 204.79C43.7441 186.246 26.0811 166.514 27.8467 142.345Z" stroke="white" stroke-width="2"/>
<defs>
<linearGradient id="paint0_linear" x1="210.921" y1="80.738" x2="56.6115" y2="122.075" gradientUnits="userSpaceOnUse">
<stop stop-color="#EDE3D8"/>
<stop offset="1" stop-color="#97D3F1"/>
</linearGradient>
</defs>
</svg>
