<svg width="226" height="343" viewBox="0 0 226 343" fill="none" xmlns="http://www.w3.org/2000/svg">
<path fill-rule="evenodd" clip-rule="evenodd" d="M-38.519 138.225C-28.5957 114.458 -1.93093 105.584 20.0267 94.8112C37.9295 86.0276 56.4921 84.4692 75.6996 82.1865C97.52 79.5932 120.609 70.1908 139.582 80.6028C159.718 91.6539 174.291 113.91 178.05 138.357C181.665 161.869 170.922 185.873 159.019 207.034C148.841 225.128 132.88 237.512 116.117 248.454C100.61 258.576 84.1061 264.303 66.5544 267.391C45.7915 271.043 23.4603 278.3 5.57536 267.9C-13.1858 256.99 -21.4683 233.648 -28.8622 211.904C-36.8866 188.305 -48.5145 162.165 -38.519 138.225Z" fill="url(#paint0_linear)"/>
<g style="mix-blend-mode:lighten">
<path fill-rule="evenodd" clip-rule="evenodd" d="M-49.2572 149.08C-41.6715 123.615 -15.4921 111.566 5.70059 98.0903C22.9798 87.1033 41.6914 83.4507 60.9825 78.9842C82.8979 73.9101 105.386 61.7146 125.776 70.2891C147.417 79.3899 164.582 100.594 170.981 125.242C177.135 148.947 168.742 174.746 158.868 197.758C150.425 217.435 135.5 231.898 119.608 244.972C104.906 257.066 88.7269 264.765 71.2043 269.873C50.4761 275.916 28.5329 285.828 9.24977 277.145C-10.978 268.037 -21.8607 245.023 -31.6714 223.548C-42.3185 200.243 -56.898 174.73 -49.2572 149.08Z" stroke="white" stroke-width="2"/>
</g>
<defs>
<linearGradient id="paint0_linear" x1="-37.7999" y1="135.893" x2="163.137" y2="205.885" gradientUnits="userSpaceOnUse">
<stop stop-color="#99D4F1"/>
<stop offset="0.505208" stop-color="#98D5EE"/>
<stop offset="0.802083" stop-color="#93D7E1"/>
<stop offset="1" stop-color="#90D9D7"/>
</linearGradient>
</defs>
</svg>
