<svg width="218" height="206" viewBox="0 0 218 206" fill="none" xmlns="http://www.w3.org/2000/svg">
<path fill-rule="evenodd" clip-rule="evenodd" d="M127.901 -84.5325C152.824 -90.2955 173.004 -43.8683 195.178 -31.0884C213.257 -20.6684 242.784 -39.1995 266.562 -19.5994C284.56 -4.76441 291.609 15.6818 295.219 38.7644C299.782 67.9454 282.62 93.8247 263.974 109.027C245.567 124.035 220.813 129.2 196.712 131.626C176.104 133.7 156.396 127.19 137.325 119.093C119.682 111.603 104.885 100.55 91.5157 86.9615C75.7005 70.8875 56.066 55.6316 53.1244 33.5143C50.0387 10.3136 63.2834 -11.2396 75.8224 -31.0342C89.4303 -52.5164 102.798 -78.7276 127.901 -84.5325Z" fill="url(#paint0_linear)"/>
<path fill-rule="evenodd" clip-rule="evenodd" d="M140.185 -72.1293C164.919 -73.8793 179.354 -28.4094 199.4 -13.5334C215.745 -1.40453 246.33 -14.2178 267.181 7.14459C282.963 23.3134 287.542 43.077 288.506 64.7718C289.725 92.1982 270.293 113.51 250.596 124.813C231.15 135.972 206.644 137.197 183.069 136.002C162.911 134.98 144.563 126.208 127.005 116.07C110.762 106.691 97.6612 94.4471 86.2188 80.0796C72.6831 63.0835 55.3639 46.296 54.9405 25.582C54.4963 3.85336 69.6656 -14.0449 83.9597 -30.4296C99.4725 -48.2111 115.27 -70.3665 140.185 -72.1293Z" stroke="white" stroke-width="2"/>
<defs>
<linearGradient id="paint0_linear" x1="168.429" y1="108.749" x2="269.973" y2="-25.0194" gradientUnits="userSpaceOnUse">
<stop stop-color="#F0DDC7"/>
<stop offset="0.569804" stop-color="#BAD7E0"/>
<stop offset="1" stop-color="#97D3F1"/>
</linearGradient>
</defs>
</svg>
