<svg width="433" height="105" viewBox="0 0 433 105" fill="none" xmlns="http://www.w3.org/2000/svg">
<g style="mix-blend-mode:soft-light">
<line x1="3.29628" y1="96.8522" x2="12.0576" y2="89.7606" stroke="#80C0BB" stroke-opacity="0.36" stroke-width="4" stroke-linecap="round"/>
<line x1="3.51454" y1="52.3634" x2="12.2758" y2="45.2719" stroke="#80C0BB" stroke-opacity="0.36" stroke-width="4" stroke-linecap="round"/>
<line x1="3.73329" y1="7.87561" x2="12.4946" y2="0.784072" stroke="#80C0BB" stroke-opacity="0.36" stroke-width="4" stroke-linecap="round"/>
<line x1="19.8768" y1="83.1998" x2="28.6381" y2="76.1083" stroke="#80C0BB" stroke-opacity="0.36" stroke-width="4" stroke-linecap="round"/>
<line x1="20.0956" y1="38.7106" x2="28.8569" y2="31.619" stroke="#80C0BB" stroke-opacity="0.36" stroke-width="4" stroke-linecap="round"/>
<line x1="13.1603" y1="81.3107" x2="6.06874" y2="72.5494" stroke="#80C0BB" stroke-opacity="0.36" stroke-width="4" stroke-linecap="round"/>
<line x1="13.379" y1="36.8224" x2="6.28749" y2="28.0611" stroke="#80C0BB" stroke-opacity="0.36" stroke-width="4" stroke-linecap="round"/>
<line x1="26.3756" y1="98.9308" x2="19.2841" y2="90.1695" stroke="#80C0BB" stroke-opacity="0.36" stroke-width="4" stroke-linecap="round"/>
<line x1="26.5944" y1="54.4425" x2="19.5028" y2="45.6812" stroke="#80C0BB" stroke-opacity="0.36" stroke-width="4" stroke-linecap="round"/>
<line x1="26.8131" y1="9.95372" x2="19.7216" y2="1.19243" stroke="#80C0BB" stroke-opacity="0.36" stroke-width="4" stroke-linecap="round"/>
<line x1="43.1605" y1="84.0475" x2="51.9218" y2="76.9559" stroke="#80C0BB" stroke-opacity="0.36" stroke-width="4" stroke-linecap="round"/>
<line x1="43.3793" y1="39.5582" x2="52.1406" y2="32.4667" stroke="#80C0BB" stroke-opacity="0.36" stroke-width="4" stroke-linecap="round"/>
<line x1="59.7406" y1="70.3942" x2="68.5019" y2="63.3026" stroke="#80C0BB" stroke-opacity="0.36" stroke-width="4" stroke-linecap="round"/>
<line x1="59.9594" y1="25.9054" x2="68.7207" y2="18.8139" stroke="#80C0BB" stroke-opacity="0.36" stroke-width="4" stroke-linecap="round"/>
<line x1="53.0245" y1="68.5055" x2="45.933" y2="59.7442" stroke="#80C0BB" stroke-opacity="0.36" stroke-width="4" stroke-linecap="round"/>
<line x1="53.2433" y1="24.0172" x2="46.1517" y2="15.2559" stroke="#80C0BB" stroke-opacity="0.36" stroke-width="4" stroke-linecap="round"/>
<line x1="66.2399" y1="86.1261" x2="59.1483" y2="77.3648" stroke="#80C0BB" stroke-opacity="0.36" stroke-width="4" stroke-linecap="round"/>
<line x1="66.4586" y1="41.6378" x2="59.3671" y2="32.8765" stroke="#80C0BB" stroke-opacity="0.36" stroke-width="4" stroke-linecap="round"/>
<line x1="83.0248" y1="97.235" x2="91.7861" y2="90.1434" stroke="#80C0BB" stroke-opacity="0.36" stroke-width="4" stroke-linecap="round"/>
<line x1="83.244" y1="52.7462" x2="92.0053" y2="45.6547" stroke="#80C0BB" stroke-opacity="0.36" stroke-width="4" stroke-linecap="round"/>
<line x1="83.4623" y1="8.25793" x2="92.2236" y2="1.1664" stroke="#80C0BB" stroke-opacity="0.36" stroke-width="4" stroke-linecap="round"/>
<line x1="99.6054" y1="83.5822" x2="108.367" y2="76.4906" stroke="#80C0BB" stroke-opacity="0.36" stroke-width="4" stroke-linecap="round"/>
<line x1="99.8241" y1="39.0929" x2="108.585" y2="32.0014" stroke="#80C0BB" stroke-opacity="0.36" stroke-width="4" stroke-linecap="round"/>
<line x1="92.8893" y1="81.6935" x2="85.7977" y2="72.9322" stroke="#80C0BB" stroke-opacity="0.36" stroke-width="4" stroke-linecap="round"/>
<line x1="93.108" y1="37.2047" x2="86.0165" y2="28.4434" stroke="#80C0BB" stroke-opacity="0.36" stroke-width="4" stroke-linecap="round"/>
<line x1="106.104" y1="99.3136" x2="99.0126" y2="90.5523" stroke="#80C0BB" stroke-opacity="0.36" stroke-width="4" stroke-linecap="round"/>
<line x1="106.323" y1="54.8253" x2="99.2313" y2="46.064" stroke="#80C0BB" stroke-opacity="0.36" stroke-width="4" stroke-linecap="round"/>
<line x1="106.542" y1="10.3365" x2="99.4501" y2="1.57524" stroke="#80C0BB" stroke-opacity="0.36" stroke-width="4" stroke-linecap="round"/>
<line x1="122.889" y1="84.4303" x2="131.65" y2="77.3388" stroke="#80C0BB" stroke-opacity="0.36" stroke-width="4" stroke-linecap="round"/>
<line x1="123.108" y1="39.9415" x2="131.869" y2="32.85" stroke="#80C0BB" stroke-opacity="0.36" stroke-width="4" stroke-linecap="round"/>
<line x1="139.47" y1="70.7775" x2="148.231" y2="63.6859" stroke="#80C0BB" stroke-opacity="0.36" stroke-width="4" stroke-linecap="round"/>
<line x1="139.688" y1="26.2892" x2="148.45" y2="19.1976" stroke="#80C0BB" stroke-opacity="0.36" stroke-width="4" stroke-linecap="round"/>
<line x1="132.753" y1="68.8888" x2="125.662" y2="60.1275" stroke="#80C0BB" stroke-opacity="0.36" stroke-width="4" stroke-linecap="round"/>
<line x1="132.972" y1="24.4" x2="125.881" y2="15.6387" stroke="#80C0BB" stroke-opacity="0.36" stroke-width="4" stroke-linecap="round"/>
<line x1="145.969" y1="86.5094" x2="138.877" y2="77.7481" stroke="#80C0BB" stroke-opacity="0.36" stroke-width="4" stroke-linecap="round"/>
<line x1="146.187" y1="42.0206" x2="139.096" y2="33.2593" stroke="#80C0BB" stroke-opacity="0.36" stroke-width="4" stroke-linecap="round"/>
<line x1="146.406" y1="-2.46815" x2="139.314" y2="-11.2294" stroke="#80C0BB" stroke-opacity="0.36" stroke-width="4" stroke-linecap="round"/>
<line x1="162.754" y1="97.6183" x2="171.515" y2="90.5267" stroke="#80C0BB" stroke-opacity="0.36" stroke-width="4" stroke-linecap="round"/>
<line x1="162.973" y1="53.129" x2="171.734" y2="46.0375" stroke="#80C0BB" stroke-opacity="0.36" stroke-width="4" stroke-linecap="round"/>
<line x1="163.191" y1="8.64075" x2="171.952" y2="1.54921" stroke="#80C0BB" stroke-opacity="0.36" stroke-width="4" stroke-linecap="round"/>
<line x1="179.334" y1="83.9655" x2="188.096" y2="76.8739" stroke="#80C0BB" stroke-opacity="0.36" stroke-width="4" stroke-linecap="round"/>
<line x1="179.553" y1="39.4762" x2="188.314" y2="32.3847" stroke="#80C0BB" stroke-opacity="0.36" stroke-width="4" stroke-linecap="round"/>
<line x1="172.618" y1="82.0763" x2="165.526" y2="73.315" stroke="#80C0BB" stroke-opacity="0.36" stroke-width="4" stroke-linecap="round"/>
<line x1="172.837" y1="37.5875" x2="165.745" y2="28.8262" stroke="#80C0BB" stroke-opacity="0.36" stroke-width="4" stroke-linecap="round"/>
<line x1="185.833" y1="99.6969" x2="178.742" y2="90.9356" stroke="#80C0BB" stroke-opacity="0.36" stroke-width="4" stroke-linecap="round"/>
<line x1="186.052" y1="55.2086" x2="178.96" y2="46.4473" stroke="#80C0BB" stroke-opacity="0.36" stroke-width="4" stroke-linecap="round"/>
<line x1="186.271" y1="10.7198" x2="179.179" y2="1.95854" stroke="#80C0BB" stroke-opacity="0.36" stroke-width="4" stroke-linecap="round"/>
<line x1="202.619" y1="84.8136" x2="211.38" y2="77.7221" stroke="#80C0BB" stroke-opacity="0.36" stroke-width="4" stroke-linecap="round"/>
<line x1="202.837" y1="40.3248" x2="211.599" y2="33.2333" stroke="#80C0BB" stroke-opacity="0.36" stroke-width="4" stroke-linecap="round"/>
<line x1="219.199" y1="71.1608" x2="227.96" y2="64.0692" stroke="#80C0BB" stroke-opacity="0.36" stroke-width="4" stroke-linecap="round"/>
<line x1="219.417" y1="26.672" x2="228.178" y2="19.5805" stroke="#80C0BB" stroke-opacity="0.36" stroke-width="4" stroke-linecap="round"/>
<line x1="212.482" y1="69.2726" x2="205.391" y2="60.5113" stroke="#80C0BB" stroke-opacity="0.36" stroke-width="4" stroke-linecap="round"/>
<line x1="212.701" y1="24.7833" x2="205.61" y2="16.022" stroke="#80C0BB" stroke-opacity="0.36" stroke-width="4" stroke-linecap="round"/>
<line x1="225.698" y1="86.8922" x2="218.606" y2="78.1309" stroke="#80C0BB" stroke-opacity="0.36" stroke-width="4" stroke-linecap="round"/>
<line x1="225.916" y1="42.4039" x2="218.825" y2="33.6426" stroke="#80C0BB" stroke-opacity="0.36" stroke-width="4" stroke-linecap="round"/>
<line x1="226.135" y1="-2.08485" x2="219.043" y2="-10.8461" stroke="#80C0BB" stroke-opacity="0.36" stroke-width="4" stroke-linecap="round"/>
<line x1="242.483" y1="98.0021" x2="251.244" y2="90.9105" stroke="#80C0BB" stroke-opacity="0.36" stroke-width="4" stroke-linecap="round"/>
<line x1="242.701" y1="53.5128" x2="251.462" y2="46.4213" stroke="#80C0BB" stroke-opacity="0.36" stroke-width="4" stroke-linecap="round"/>
<line x1="242.92" y1="9.02454" x2="251.681" y2="1.933" stroke="#80C0BB" stroke-opacity="0.36" stroke-width="4" stroke-linecap="round"/>
<line x1="259.063" y1="84.3488" x2="267.825" y2="77.2572" stroke="#80C0BB" stroke-opacity="0.36" stroke-width="4" stroke-linecap="round"/>
<line x1="259.281" y1="39.86" x2="268.042" y2="32.7684" stroke="#80C0BB" stroke-opacity="0.36" stroke-width="4" stroke-linecap="round"/>
<line x1="252.347" y1="82.4596" x2="245.255" y2="73.6983" stroke="#80C0BB" stroke-opacity="0.36" stroke-width="4" stroke-linecap="round"/>
<line x1="252.566" y1="37.9713" x2="245.474" y2="29.21" stroke="#80C0BB" stroke-opacity="0.36" stroke-width="4" stroke-linecap="round"/>
<line x1="265.562" y1="100.08" x2="258.471" y2="91.3189" stroke="#80C0BB" stroke-opacity="0.36" stroke-width="4" stroke-linecap="round"/>
<line x1="265.781" y1="55.5919" x2="258.689" y2="46.8306" stroke="#80C0BB" stroke-opacity="0.36" stroke-width="4" stroke-linecap="round"/>
<line x1="265.999" y1="11.1031" x2="258.908" y2="2.34184" stroke="#80C0BB" stroke-opacity="0.36" stroke-width="4" stroke-linecap="round"/>
<line x1="282.348" y1="85.1964" x2="291.109" y2="78.1049" stroke="#80C0BB" stroke-opacity="0.36" stroke-width="4" stroke-linecap="round"/>
<line x1="282.566" y1="40.7072" x2="291.327" y2="33.6156" stroke="#80C0BB" stroke-opacity="0.36" stroke-width="4" stroke-linecap="round"/>
<line x1="298.928" y1="71.5436" x2="307.689" y2="64.452" stroke="#80C0BB" stroke-opacity="0.36" stroke-width="4" stroke-linecap="round"/>
<line x1="299.146" y1="27.0543" x2="307.908" y2="19.9628" stroke="#80C0BB" stroke-opacity="0.36" stroke-width="4" stroke-linecap="round"/>
<line x1="292.212" y1="69.6544" x2="285.12" y2="60.8931" stroke="#80C0BB" stroke-opacity="0.36" stroke-width="4" stroke-linecap="round"/>
<line x1="292.43" y1="25.1661" x2="285.339" y2="16.4048" stroke="#80C0BB" stroke-opacity="0.36" stroke-width="4" stroke-linecap="round"/>
<line x1="305.427" y1="87.275" x2="298.335" y2="78.5137" stroke="#80C0BB" stroke-opacity="0.36" stroke-width="4" stroke-linecap="round"/>
<line x1="305.646" y1="42.7867" x2="298.554" y2="34.0254" stroke="#80C0BB" stroke-opacity="0.36" stroke-width="4" stroke-linecap="round"/>
<line x1="305.864" y1="-1.70253" x2="298.773" y2="-10.4638" stroke="#80C0BB" stroke-opacity="0.36" stroke-width="4" stroke-linecap="round"/>
<line x1="322.212" y1="98.3849" x2="330.973" y2="91.2934" stroke="#80C0BB" stroke-opacity="0.36" stroke-width="4" stroke-linecap="round"/>
<line x1="322.431" y1="53.8956" x2="331.192" y2="46.8041" stroke="#80C0BB" stroke-opacity="0.36" stroke-width="4" stroke-linecap="round"/>
<line x1="322.649" y1="9.40735" x2="331.411" y2="2.31581" stroke="#80C0BB" stroke-opacity="0.36" stroke-width="4" stroke-linecap="round"/>
<line x1="338.792" y1="84.7321" x2="347.554" y2="77.6405" stroke="#80C0BB" stroke-opacity="0.36" stroke-width="4" stroke-linecap="round"/>
<line x1="339.011" y1="40.2433" x2="347.772" y2="33.1517" stroke="#80C0BB" stroke-opacity="0.36" stroke-width="4" stroke-linecap="round"/>
<line x1="332.076" y1="82.8429" x2="324.985" y2="74.0816" stroke="#80C0BB" stroke-opacity="0.36" stroke-width="4" stroke-linecap="round"/>
<line x1="332.294" y1="38.3546" x2="325.203" y2="29.5933" stroke="#80C0BB" stroke-opacity="0.36" stroke-width="4" stroke-linecap="round"/>
<line x1="345.291" y1="100.463" x2="338.2" y2="91.7017" stroke="#80C0BB" stroke-opacity="0.36" stroke-width="4" stroke-linecap="round"/>
<line x1="345.509" y1="55.9752" x2="338.418" y2="47.2139" stroke="#80C0BB" stroke-opacity="0.36" stroke-width="4" stroke-linecap="round"/>
<line x1="345.728" y1="11.486" x2="338.637" y2="2.72466" stroke="#80C0BB" stroke-opacity="0.36" stroke-width="4" stroke-linecap="round"/>
<line x1="362.076" y1="85.5797" x2="370.837" y2="78.4882" stroke="#80C0BB" stroke-opacity="0.36" stroke-width="4" stroke-linecap="round"/>
<line x1="362.295" y1="41.0909" x2="371.056" y2="33.9994" stroke="#80C0BB" stroke-opacity="0.36" stroke-width="4" stroke-linecap="round"/>
<line x1="378.657" y1="71.9269" x2="387.418" y2="64.8353" stroke="#80C0BB" stroke-opacity="0.36" stroke-width="4" stroke-linecap="round"/>
<line x1="378.875" y1="27.4376" x2="387.637" y2="20.3461" stroke="#80C0BB" stroke-opacity="0.36" stroke-width="4" stroke-linecap="round"/>
<line x1="371.94" y1="70.0387" x2="364.849" y2="61.2774" stroke="#80C0BB" stroke-opacity="0.36" stroke-width="4" stroke-linecap="round"/>
<line x1="372.159" y1="25.5494" x2="365.067" y2="16.7881" stroke="#80C0BB" stroke-opacity="0.36" stroke-width="4" stroke-linecap="round"/>
<line x1="385.155" y1="87.6583" x2="378.064" y2="78.897" stroke="#80C0BB" stroke-opacity="0.36" stroke-width="4" stroke-linecap="round"/>
<line x1="385.374" y1="43.1705" x2="378.283" y2="34.4092" stroke="#80C0BB" stroke-opacity="0.36" stroke-width="4" stroke-linecap="round"/>
<line x1="385.593" y1="-1.31922" x2="378.501" y2="-10.0805" stroke="#80C0BB" stroke-opacity="0.36" stroke-width="4" stroke-linecap="round"/>
<line x1="401.94" y1="98.7682" x2="410.702" y2="91.6767" stroke="#80C0BB" stroke-opacity="0.36" stroke-width="4" stroke-linecap="round"/>
<line x1="402.16" y1="54.2799" x2="410.921" y2="47.1884" stroke="#80C0BB" stroke-opacity="0.36" stroke-width="4" stroke-linecap="round"/>
<line x1="402.378" y1="9.79114" x2="411.139" y2="2.6996" stroke="#80C0BB" stroke-opacity="0.36" stroke-width="4" stroke-linecap="round"/>
<line x1="418.521" y1="85.1154" x2="427.282" y2="78.0238" stroke="#80C0BB" stroke-opacity="0.36" stroke-width="4" stroke-linecap="round"/>
<line x1="418.74" y1="40.6271" x2="427.501" y2="33.5355" stroke="#80C0BB" stroke-opacity="0.36" stroke-width="4" stroke-linecap="round"/>
<line x1="411.805" y1="83.2272" x2="404.713" y2="74.4659" stroke="#80C0BB" stroke-opacity="0.36" stroke-width="4" stroke-linecap="round"/>
<line x1="412.023" y1="38.7384" x2="404.932" y2="29.9771" stroke="#80C0BB" stroke-opacity="0.36" stroke-width="4" stroke-linecap="round"/>
<line x1="425.021" y1="100.847" x2="417.929" y2="92.0855" stroke="#80C0BB" stroke-opacity="0.36" stroke-width="4" stroke-linecap="round"/>
<line x1="425.239" y1="56.3585" x2="418.147" y2="47.5972" stroke="#80C0BB" stroke-opacity="0.36" stroke-width="4" stroke-linecap="round"/>
<line x1="425.457" y1="11.8702" x2="418.366" y2="3.10893" stroke="#80C0BB" stroke-opacity="0.36" stroke-width="4" stroke-linecap="round"/>
</g>
</svg>
