<svg width="373" height="391" viewBox="0 0 373 391" fill="none" xmlns="http://www.w3.org/2000/svg">
<path d="M289.061 192.253C287.623 194.206 286.028 196.102 284.504 197.998C281.006 202.347 277.16 206.406 273.006 210.134C272.33 210.68 269.858 213.136 269.039 213.136C268.636 212.863 268.493 212.734 268.493 212.461C268.493 212.461 273.552 203.168 274.098 202.206C278.41 194.134 285.87 177.057 286.416 168.44C286.524 168.29 286.67 168.172 286.84 168.099C287.009 168.025 287.196 167.999 287.379 168.023C288.816 168.023 297.915 171.585 299.826 172.548C300.789 172.95 302.701 173.768 302.701 175.004C302.701 176.239 299.007 177.46 298.173 177.732C296.736 180.16 295.299 182.616 293.861 185.086C292.412 187.572 290.808 189.966 289.061 192.253ZM290.785 250.564V273.128C295.845 271.347 300.847 269.566 305.963 267.526C304.594 264.467 302.949 261.54 301.048 258.78C300.904 258.363 300.502 258.09 300.502 257.544C300.502 257.271 301.45 257.271 301.594 257.271C302.27 257.271 306.237 260 306.926 260.417C311.583 263.419 321.156 271.907 321.156 277.767C321.156 281.328 319.374 285.982 315.134 285.982C308.565 285.982 308.838 278.183 307.947 273.946C307.704 272.876 307.382 271.824 306.984 270.801C299.194 276.962 291.389 283.109 283.872 289.673L277.03 276C279.632 274.219 280.322 273.673 280.322 270.399V224.18C280.322 221.868 279.905 218.852 279.905 216.396C279.761 214.888 278.942 213.394 278.942 211.886C278.942 211.197 279.488 211.053 280.178 211.053C281.615 211.053 289.621 214.342 291.389 214.888H307.961C308.234 214.615 311.526 210.249 312.072 210.249C313.294 210.249 322.593 215.994 322.593 217.617C322.593 219.053 319.719 220.36 318.77 220.906V243.469C318.77 246.6 319.187 249.889 319.446 253.035C315.905 254.023 312.298 254.753 308.651 255.218L309.054 250.564H290.785ZM309.111 219.814H292.007L290.785 221.595V229.107H309.111V219.814ZM309.111 245.796V234.033H290.785V245.796H309.111ZM293.933 193.56C296.391 193.56 302.413 197.251 304.469 198.903C305.321 199.45 306.028 200.196 306.529 201.077C307.029 201.957 307.309 202.946 307.343 203.958C307.343 206.687 305.159 210.795 302.155 210.795C301.56 210.78 300.974 210.646 300.433 210.399C299.892 210.152 299.407 209.798 299.007 209.358C296.276 207.319 297.081 201.991 295.73 198.845C294.769 197.299 293.9 195.697 293.128 194.048C293.114 193.703 293.588 193.56 293.933 193.56ZM337.843 187.686H357.678C358.497 186.867 362.608 181.538 363.7 181.538C365.21 181.538 370.542 187.542 371.361 188.504C372.229 189.184 372.813 190.162 373 191.247C373 191.616 372.859 191.971 372.605 192.238C372.35 192.506 372.003 192.665 371.634 192.684H334.695C330.907 198.079 326.572 203.07 321.76 207.578C321.213 208.138 319.431 210.033 318.612 210.033C318.45 210.015 318.302 209.934 318.2 209.808C318.098 209.682 318.05 209.52 318.066 209.358C318.418 208.091 318.971 206.889 319.704 205.797C322.579 200.195 325.037 194.723 327.365 188.849C329.15 184.683 330.527 180.354 331.476 175.923C331.605 174.831 331.878 173.61 332.022 172.375C332.151 171.686 332.022 168.268 333.114 168.268C334.753 168.268 344.872 172.375 346.525 173.467C347.071 174.013 347.962 174.702 347.962 175.521C347.962 176.612 344.412 178.12 343.65 178.393C341.681 181.395 339.755 184.54 337.843 187.686ZM340.847 215.434H352.518H340.847ZM340.847 220.173L339.625 222.227V283.986C339.625 288.079 340.042 292.316 340.301 296.423C336.568 297.498 332.777 298.361 328.946 299.009C329.219 293.824 329.765 288.495 329.765 283.296V227.742C329.7 224.172 329.426 220.609 328.946 217.071C328.817 215.721 327.71 212.762 327.71 212.016C327.71 211.269 328.673 211.053 329.147 211.053C330.383 211.053 339.209 214.759 340.775 215.362L340.847 220.173ZM353.711 220.145H340.775H353.711ZM352.518 215.434C353.079 214.759 356.356 210.378 357.448 210.378C358.54 210.378 368.4 217.215 368.4 218.163C368.4 219.111 364.419 221.595 364.017 221.997V269.982C364.065 272.053 363.833 274.121 363.327 276.129C361.889 280.926 353.266 282.291 349.097 282.98C348.695 278.456 347.876 275.871 343.909 273.673C343.362 273.271 340.89 272.309 340.89 271.49C340.89 270.672 341.436 270.528 342.126 270.528C344.584 270.528 347.056 271.074 349.514 271.074C352.245 271.074 353.826 270.399 353.826 267.526V220.173L352.518 215.434ZM341.508 193.517C343.017 193.517 346.165 195.298 347.531 195.843C350.405 197.28 355.479 199.951 355.479 203.771C355.479 206.788 353.424 211.57 350.003 211.57C348.739 211.526 347.529 211.044 346.582 210.206C343.564 207.879 345.145 201.043 341.652 196.389C341.379 195.843 340.416 194.752 340.416 194.206C340.416 193.66 341.02 193.56 341.393 193.56L341.508 193.517Z" fill="white"/>
<path d="M55.2936 14.9799C55.1162 12.4585 54.5238 9.98371 53.5401 7.65508C53.2342 7.11698 53.0479 6.51935 52.9939 5.90286C53.1917 5.58515 53.4736 5.32839 53.8085 5.16106C54.1434 4.99374 54.5182 4.92239 54.8912 4.95495C57.0615 4.95495 62.897 6.5779 65.1967 7.12367C66.634 7.52582 71.0322 8.55991 71.0322 10.6425C71.0322 12.2654 68.7181 13.9027 67.6401 14.707C67.4964 18.6423 67.2377 22.7069 67.2377 26.7714C67.2377 30.2902 67.6401 33.6798 67.7695 37.1985H85.5347C86.0809 36.5235 90.6947 30.5631 92.1895 30.5631C92.6705 30.5884 93.1394 30.7232 93.5604 30.9572C93.9814 31.1911 94.3433 31.5181 94.6186 31.9132L100.612 38.563C101.344 39.2523 101.846 40.1498 102.049 41.1338C102.033 41.4653 101.903 41.7808 101.68 42.027C101.457 42.2731 101.156 42.4345 100.828 42.4839H68.445C68.8096 49.951 69.7175 57.3816 71.1616 64.7169L75.7754 83.6897C79.521 75.9895 82.038 67.7512 83.235 59.2736C83.5522 57.7558 83.735 56.2131 83.7812 54.6632C83.7602 54.2568 83.8039 53.8496 83.9106 53.4568C85.3479 53.4568 96.6595 58.0671 97.8812 58.8714C98.4274 59.2736 99.2323 59.9486 99.2323 60.7673C99.2323 61.8444 96.7889 63.2089 96.1134 63.7546L92.4482 74.6844C89.8754 82.3252 85.6784 89.3772 81.6108 96.228C82.8326 98.6553 89.746 110.188 91.7727 110.188C93.7993 110.188 97.3351 99.8761 97.7375 99.0718C98.5568 97.0323 99.5054 94.8636 100.454 92.6949C100.583 92.2927 101 92.2927 101.403 92.2927C101.805 92.2927 102.078 92.8385 102.078 93.2407C101.403 98.526 100.856 103.682 100.454 109.039C100.325 110.806 100.052 112.558 100.052 114.454C100.052 118.518 102.351 122.454 102.351 126.518C102.351 129.391 100.727 129.635 98.1543 129.635C92.9944 129.635 80.2454 115.948 77.2702 111.883L73.2026 106.282C68.3223 111.293 62.91 115.757 57.0615 119.596C54.0913 121.557 51.0103 123.346 47.8339 124.953C46.2312 125.826 44.5522 126.552 42.8177 127.122C42.6225 127.134 42.43 127.071 42.2801 126.945C42.1303 126.819 42.0346 126.641 42.0128 126.447C42.0347 126.175 42.1186 125.912 42.2582 125.678C42.3977 125.444 42.5892 125.245 42.8177 125.096C47.6733 121.172 52.2502 116.915 56.5153 112.357C59.6063 109.157 62.4869 105.76 65.1392 102.188L68.9912 96.8313C66.5622 90.4831 64.1187 84.0918 62.3508 77.5569C59.1025 66.067 58.4126 54.2467 57.3346 42.4552H28.7464L27.5247 43.8914C27.3953 50.7997 27.1222 62.9934 26.9785 70.0454H43.637C44.1832 69.4996 46.5116 60.5518 47.3021 60.5518C48.4604 60.8377 49.5598 61.3238 50.5505 61.9881C51.4991 62.5338 58.4126 66.1819 58.4126 67.9485C58.4126 69.715 55.9691 71.338 54.7618 72.4295C54.6181 83.6753 55.4373 96.4004 51.3697 107.115C49.3288 112.4 40.3743 114.023 35.5593 114.698C35.0275 110.102 34.4813 107.517 30.27 104.946C29.7382 104.673 26.6048 103.05 26.6048 102.375C26.6048 101.7 27.4241 101.427 28.0421 101.427C30.6149 101.427 33.3314 102.232 36.1773 102.232C37.3515 102.383 38.5414 102.112 39.5341 101.468C40.5269 100.823 41.2577 99.8465 41.596 98.7127C43.0333 95.1939 43.4933 73.636 43.637 69.9879H26.9498C26.2742 85.7004 26.8204 102.648 17.3341 116.192C15.6956 118.49 14.0714 120.802 12.1742 122.971C9.91432 125.865 7.21263 128.385 4.16832 130.439C3.36342 130.712 3.09033 130.296 3.09033 129.894C4.0631 127.709 5.24225 125.621 6.61175 123.66C9.48123 118.481 11.5825 112.912 12.8497 107.129C16.3711 92.0917 15.7243 70.5337 15.7243 55.4963C15.7243 49.7513 15.595 43.8483 15.1925 38.1608C14.9194 36.5235 13.7552 33.2776 13.7552 32.5882C13.7552 31.6547 15.1925 31.6547 15.7962 31.6547C18.369 31.6547 28.5452 36.2506 30.4424 37.1985H56.7453C56.386 29.7445 55.5667 22.434 55.2936 14.9799ZM74.7405 9.8238C81.2371 9.8238 93.713 13.9027 93.713 22.0318C93.713 25.8235 91.6864 29.4859 87.3457 29.4859C79.613 29.4859 81.7833 18.3694 77.1695 14.1612C76.494 13.6298 73.6481 11.4611 73.6481 10.7861C73.6469 10.6481 73.6753 10.5114 73.7316 10.3853C73.7879 10.2593 73.8706 10.1468 73.9743 10.0555C74.0779 9.96425 74.1999 9.89631 74.3321 9.85633C74.4643 9.81635 74.6036 9.80525 74.7405 9.8238Z" fill="white"/>
<path d="M46.7271 255.548H26.9353V259.67C22.8181 260.802 18.6441 261.718 14.4306 262.413C15.6667 249.788 15.3936 236.876 15.3936 224.108C15.3936 221.767 15.3936 219.44 15.2499 217.099C15.2342 215.348 14.8626 213.618 14.1576 212.015C13.8493 211.37 13.664 210.674 13.6114 209.961C13.6114 209.272 13.8845 208.855 14.7037 208.855C17.3196 208.855 28.7319 213.81 29.9536 213.81H77.7875C78.8799 212.848 81.7689 208.855 83.278 208.855C84.7872 208.855 92.7643 214.356 94.4172 215.448C94.8197 215.591 95.3802 216.137 95.3802 216.554C95.3802 217.645 91.6576 220.403 90.982 221.078V242.909C90.982 247.864 91.3845 253.077 91.6576 258.162C87.4083 259.798 83.0468 261.128 78.6068 262.14L79.1529 255.548H58.8149V268.043H89.7316C90.4215 267.368 96.4726 260.488 96.9182 260.488C98.0105 260.488 104.608 267.914 105.715 269.005C106.335 269.526 106.727 270.268 106.807 271.073C106.807 272.165 105.571 272.854 104.608 272.854H58.8149V282.736C58.8149 287.131 59.3611 291.942 59.6486 296.337C55.0563 297.907 50.3713 299.193 45.6204 300.186C46.0372 295.647 46.7271 290.132 46.7271 285.824V272.897H7.68964L5.36119 274.678L0 267.224C3.29145 267.497 6.74101 268.043 10.0612 268.043C22.2928 268.33 34.4956 268.043 46.7559 268.043L46.7271 255.548ZM21.5597 206.385C17.8515 207.218 13.9994 208.037 10.2912 208.726C10.5643 204.331 10.9811 199.663 10.9811 195.269V184.425C10.9811 181.811 10.708 179.068 10.5643 176.31C10.4349 174.673 9.60126 172.332 9.60126 171.642C9.63031 171.338 9.77416 171.055 10.0037 170.853C10.2332 170.65 10.5312 170.542 10.8374 170.551C12.3609 170.551 21.7035 174.86 22.6665 175.219H35.9329C36.3353 174.802 39.9142 170.68 40.8772 170.68C42.3146 170.68 49.2568 175.764 50.4929 176.727C51.0391 177 51.9302 177.689 51.9302 178.378C51.9302 179.815 48.9118 181.394 47.9488 181.955V192.525C47.9488 196.504 48.3657 200.755 48.6387 204.748L36.6803 207.907L37.0971 202.68H21.5597V206.385ZM37.0971 197.868V180.03H23.6438L21.9909 181.667V197.868H37.0971ZM46.7127 237.149V218.607L29.12 218.751L26.9209 221.078V237.149H46.7127ZM46.7127 250.751V237.149H26.9353V250.751H46.7127ZM70.2128 206.658C66.3608 207.62 62.6526 208.453 58.8006 209.143C59.0737 204.604 59.6342 200.066 59.6342 195.541V184.425C59.6342 181.552 59.2174 178.508 59.0737 175.492C58.9443 174.256 58.2544 172.878 58.2544 171.642C58.2575 171.488 58.2928 171.335 58.3579 171.194C58.4231 171.054 58.5167 170.928 58.6329 170.826C58.749 170.723 58.8852 170.646 59.0328 170.598C59.1804 170.551 59.3363 170.535 59.4905 170.551C61.1434 170.551 69.9398 174.673 71.3052 175.219H84.8016C85.4915 174.529 88.6536 170.68 89.746 170.68C91.1833 170.68 97.9961 175.764 99.376 176.727C99.9221 177 100.885 177.689 100.885 178.378C100.885 179.815 97.8668 181.394 96.9038 181.955V193.071C96.9038 197.049 97.3062 201.172 97.5937 205.15C93.598 206.385 89.6118 207.486 85.6352 208.453L86.0377 202.708H70.2272L70.2128 206.658ZM79.1386 237.149V218.607H61.2871C61.045 219.103 60.7713 219.583 60.4678 220.044L58.8149 220.733V237.207L79.1386 237.149ZM79.1386 237.149H58.8149V250.751H79.1529L79.1386 237.149ZM86.0089 197.868V180.03H72.0095L70.2272 181.667V197.868H86.0089Z" fill="white"/>
<path d="M179.525 261.953V247.677H160.466V251.067C156.771 252.431 152.898 253.258 148.967 253.523C149.241 248.769 149.787 243.728 149.787 238.974V212.719C149.856 210.875 149.647 209.03 149.169 207.247C148.896 206.299 147.257 202.622 147.257 202.35C147.257 201.804 147.674 201.66 148.076 201.66C151.756 201.66 161.285 205.883 164.692 207.52H179.525V193.158H144.541L141.005 195.47L136.104 187.858C139.237 188.131 142.5 188.662 145.633 188.662H179.525V179.829C179.525 177.646 179.525 175.607 179.395 173.424C179.043 171.714 178.563 170.034 177.958 168.397C177.941 168.285 177.95 168.171 177.986 168.064C178.021 167.957 178.081 167.86 178.16 167.78C178.24 167.7 178.338 167.641 178.445 167.606C178.552 167.57 178.666 167.561 178.777 167.578C181.911 167.578 195.522 172.203 195.522 174.113C195.522 175.549 191.57 177.517 190.894 178.063V188.576H217.973C218.246 188.174 223.564 180.82 225.059 180.82C225.878 180.82 227.646 182.73 228.192 183.276C229.012 184.224 235.135 190.07 235.135 191.894C235.086 192.239 234.913 192.554 234.649 192.782C234.384 193.009 234.046 193.132 233.697 193.129H190.966V207.491H207.984C208.242 206.945 211.793 201.631 212.885 201.631C214.236 201.631 221.595 206.802 222.946 207.621C223.492 208.037 224.987 208.985 224.987 209.66C224.987 210.895 221.451 213.753 220.776 214.428V235.369C220.776 240.266 221.178 245.307 221.451 250.205C217.477 251.901 213.32 253.13 209.062 253.867L209.608 247.62H190.923V261.896H221.106C221.379 261.494 226.554 254.715 227.775 254.715C228.997 254.715 230.909 256.898 231.455 257.587C232.274 258.406 237.722 263.576 237.722 265.199C237.722 265.889 236.902 266.435 236.083 266.435H190.966V280.309C190.966 285.063 191.498 290.104 191.771 294.858C187.553 296.325 183.228 297.463 178.835 298.262C178.964 292.689 179.51 287.102 179.51 281.529V266.449L179.525 261.953ZM179.51 225.358V212.03H161.544L160.452 213.94V225.43L179.51 225.358ZM179.51 243.182V229.854H160.466V243.153L179.51 243.182ZM209.593 225.358V212.03H190.908V225.358H209.593ZM209.593 243.182V229.854H190.908V243.153L209.593 243.182Z" fill="white"/>
<path d="M310.952 15.3821C310.952 16.4019 310.952 17.4791 310.952 18.5131H323.772C323.93 15.5401 324.132 12.5671 324.275 9.57973C325.368 8.76107 328.774 6.70724 328.774 5.271C328.774 4.46671 327.955 4.19382 327.409 3.92094C325.31 2.70013 312.59 0 310.678 0C310.132 0 309.313 0.129262 309.313 0.804295C309.313 1.47933 310.405 2.97302 310.405 3.67678C310.535 7.55463 310.952 11.4899 310.952 15.3821Z" fill="white"/>
<path d="M370.973 118.446C368.437 117.141 365.971 115.703 363.585 114.138C360.923 112.12 358.411 109.912 356.068 107.531C352.72 104.597 349.57 101.445 346.64 98.095C335.702 85.6715 326.402 66.3684 323.398 50.2681H367.696C368.372 50.2681 370.025 49.7224 370.025 48.8319C370.025 47.9414 368.242 45.8732 367.552 45.1982C366.115 43.762 361.674 38.5771 359.489 38.5771C357.851 38.5771 353.481 44.5232 352.648 45.4567H274.903C272.172 45.4567 269.025 44.9253 266.15 44.7817L271.08 52.0778L273.624 50.2681H308.896C308.565 53.9162 308.148 57.5212 307.588 61.0543C305.072 76.853 299.884 91.3015 288.903 104.142C283.013 111.269 276.394 117.763 269.154 123.516C268.907 123.659 268.694 123.853 268.53 124.086C268.366 124.32 268.255 124.586 268.205 124.866C268.219 125.043 268.296 125.209 268.423 125.334C268.55 125.458 268.718 125.532 268.895 125.542C270.534 125.542 279.287 120.141 281.055 119.064C286.2 115.78 291.135 112.178 295.83 108.278C302.416 102.795 307.774 95.9877 311.555 88.2998C315.195 81.4451 317.777 74.0802 319.216 66.4546C319.474 64.6449 319.747 62.8496 320.035 61.0543C320.48 58.1818 320.926 55.2088 321.257 52.2789C321.803 57.6792 322.076 63.0794 322.909 68.3361C326.733 93.025 335.213 106.928 351.756 125.269C356.311 122.057 361.762 120.358 367.337 120.414C368.3 120.414 371.85 120.816 371.85 119.337C371.793 118.992 371.39 118.719 370.973 118.446Z" fill="white"/>
<path d="M159.308 125.571H157.935V31.7503L137.82 51.7107L136.861 50.7575L157.39 30.3486H159.27L159.308 125.571Z" stroke="white" stroke-width="3" stroke-miterlimit="10" stroke-linejoin="round"/>
<path d="M234.844 75.3715H221.158V125.571H219.786V75.3715H186.266V74.0072L219.241 30.3486H221.121V74.0072H234.807L234.844 75.3715ZM219.805 74.0072V32.1241L187.845 74.0072H219.805Z" stroke="white" stroke-width="3" stroke-miterlimit="10" stroke-linejoin="round"/>
<path d="M129.162 379.676V333.593" stroke="white" stroke-width="3" stroke-linecap="round" stroke-linejoin="round"/>
<path d="M121.147 374.767C121.147 374.767 110.296 360.722 120.107 343.989C120.185 343.855 120.302 343.749 120.442 343.683C120.583 343.618 120.74 343.596 120.892 343.622C121.045 343.647 121.186 343.719 121.297 343.827C121.409 343.934 121.485 344.073 121.515 344.225L129.162 379.676" stroke="white" stroke-width="3" stroke-linecap="round" stroke-linejoin="round"/>
<path d="M146.087 329.016C143.946 328.92 139.685 329.788 138.084 330.129C137.914 330.165 137.762 330.259 137.652 330.394C137.543 330.53 137.484 330.699 137.484 330.873V386.234C137.483 386.406 137.541 386.573 137.648 386.708C137.755 386.842 137.905 386.936 138.072 386.974C139.577 387.326 143.634 388.203 146.075 388.079" stroke="white" stroke-width="3" stroke-linecap="round" stroke-linejoin="round"/>
<path d="M151.173 328.016V388.691" stroke="white" stroke-width="3" stroke-linecap="round" stroke-linejoin="round"/>
<path d="M161.86 331.817L151.165 361.111" stroke="white" stroke-width="3" stroke-linecap="round" stroke-linejoin="round"/>
<path d="M161.86 385.286L154.317 352.748" stroke="white" stroke-width="3" stroke-linecap="round" stroke-linejoin="round"/>
<path d="M165.537 336.01V379.072C165.536 379.221 165.578 379.367 165.66 379.492C165.741 379.617 165.858 379.716 165.995 379.775C166.132 379.834 166.283 379.852 166.43 379.826C166.577 379.8 166.713 379.731 166.821 379.628C183.226 363.575 172.083 343.989 172.083 343.989" stroke="white" stroke-width="3" stroke-linecap="round" stroke-linejoin="round"/>
<path d="M252.014 345.521C250.501 341.76 246.176 337.442 243.763 335.23C243.155 334.673 242.083 335.05 242.083 335.822V382.232C242.083 382.989 243.115 383.373 243.735 382.849C246.136 380.824 250.421 376.783 252.014 372.733" stroke="white" stroke-width="3" stroke-linecap="round" stroke-linejoin="round"/>
<path d="M242.083 359.129H254.618" stroke="white" stroke-width="3" stroke-linecap="round" stroke-linejoin="round"/>
<path d="M218.327 329.44V387.254" stroke="white" stroke-width="3" stroke-linecap="round" stroke-linejoin="round"/>
<path d="M195.288 358.785L207.756 363.587C207.899 363.646 208.021 363.747 208.105 363.877C208.19 364.007 208.232 364.16 208.228 364.315V382.476C208.225 382.614 208.184 382.749 208.11 382.865C208.036 382.982 207.933 383.077 207.809 383.139C207.686 383.201 207.549 383.229 207.411 383.22C207.273 383.21 207.141 383.163 207.028 383.085C203.639 380.52 194.348 372.249 194.348 358.545" stroke="white" stroke-width="3" stroke-linecap="round" stroke-linejoin="round"/>
<path d="M228.515 328.216V388.883" stroke="white" stroke-width="3" stroke-linecap="round" stroke-linejoin="round"/>
<path d="M239.198 332.009L228.502 361.302" stroke="white" stroke-width="3" stroke-linecap="round" stroke-linejoin="round"/>
<path d="M239.198 385.478L231.679 353.023" stroke="white" stroke-width="3" stroke-linecap="round" stroke-linejoin="round"/>
<path d="M194.344 358.545C194.344 344.24 203.699 336.61 207.06 334.333C207.174 334.252 207.309 334.204 207.45 334.195C207.59 334.185 207.73 334.215 207.854 334.28C207.979 334.346 208.082 334.445 208.154 334.566C208.226 334.687 208.262 334.825 208.26 334.966V353.167C208.26 353.333 208.207 353.494 208.107 353.626C208.007 353.758 207.867 353.854 207.708 353.899L195.172 357.501" stroke="white" stroke-width="3" stroke-linecap="round" stroke-linejoin="round"/>
<path d="M212.021 331.241C212.021 331.241 219.919 328.216 225.361 329.076" stroke="white" stroke-width="3" stroke-linecap="round" stroke-linejoin="round"/>
<path d="M225.361 388.01C220.452 388.734 212.021 385.849 212.021 385.849" stroke="white" stroke-width="3" stroke-linecap="round" stroke-linejoin="round"/>
</svg>
