<svg width="327" height="102" viewBox="0 0 327 102" fill="none" xmlns="http://www.w3.org/2000/svg">
<rect x="74.1833" y="69.7568" width="217" height="17" rx="8.5" fill="#FFE3B8" fill-opacity="0.35"/>
<path d="M102.055 40.4608C100.163 39.2288 96.3353 37.2928 93.8713 36.0608L90.9233 39.8448C93.4753 41.2968 97.2153 43.3648 98.9313 44.6848L102.055 40.4608ZM99.9433 52.3408C98.0073 51.1528 94.0913 49.2608 91.6713 48.0728L88.8553 51.9448C91.4513 53.3528 95.2353 55.4208 97.0393 56.6968L99.9433 52.3408ZM93.8713 76.1008C96.5553 71.8328 99.3273 66.8168 101.659 62.1968L97.8313 58.6768C95.1913 63.7808 91.8033 69.2368 89.4713 72.5368L93.8713 76.1008ZM122.427 70.0288H109.227V63.5608H122.427V70.0288ZM129.599 53.2648V48.2488H118.423V42.2208C121.855 41.5608 125.155 40.6808 127.971 39.6248L123.967 35.4888C119.127 37.4248 110.855 38.8768 103.375 39.6248C103.991 40.8128 104.695 42.8368 104.915 44.1128C107.643 43.8488 110.591 43.5408 113.451 43.1008V48.2488H101.747V53.2648H113.451V58.8088H104.475V76.5848H109.227V74.7808H122.427V76.3648H127.399V58.8088H118.423V53.2648H129.599ZM150.939 67.4768H158.903V63.7808H150.939V62.0648H158.727V48.4688H150.939V46.7528H159.387V50.1848H163.391C163.083 58.0608 162.027 64.3528 158.595 69.1048C156.043 69.3248 153.447 69.5448 150.939 69.7208V67.4768ZM142.755 58.8088V56.8288H146.187V58.8088H142.755ZM154.371 56.8288V58.8088H150.939V56.8288H154.371ZM150.939 53.7048V51.7688H154.371V53.7048H150.939ZM142.755 51.7688H146.187V53.7048H142.755V51.7688ZM168.495 45.3888C168.583 42.4848 168.583 39.4048 168.583 36.1928H163.567C163.567 39.4488 163.567 42.4848 163.523 45.3888H159.387V42.9688H150.939V40.8128C153.799 40.5048 156.527 40.1088 158.859 39.6248L156.571 35.7088C151.731 36.7648 144.119 37.5128 137.607 37.8648C138.091 38.8768 138.575 40.5048 138.751 41.5608C141.127 41.5168 143.635 41.3848 146.187 41.2088V42.9688H137.519V46.7528H146.187V48.4688H138.619V62.0648H146.187V63.7808H138.443V67.4768H146.187V70.1168C142.799 70.3368 139.719 70.5568 137.255 70.7328L137.871 75.1328C142.623 74.7368 148.959 74.0768 155.295 73.4168C156.439 74.3848 157.715 75.8368 158.375 76.8928C165.767 71.0408 167.791 61.9768 168.363 50.1848H172.323C172.059 64.3968 171.619 69.7648 170.695 70.9528C170.299 71.5248 169.859 71.7008 169.199 71.7008C168.363 71.7008 166.691 71.6568 164.755 71.4808C165.635 72.9328 166.207 75.0448 166.295 76.4968C168.407 76.5408 170.431 76.5848 171.751 76.3208C173.203 76.0128 174.215 75.5728 175.227 74.1208C176.635 72.0968 176.987 65.7168 177.383 47.7208C177.383 47.1048 177.427 45.3888 177.427 45.3888H168.495ZM206.247 40.7248C209.811 46.4448 217.027 52.5608 224.023 56.1248C224.991 54.4968 226.135 52.6928 227.455 51.3288C220.327 48.5568 213.331 42.7928 208.799 35.4008H203.211C200.131 41.1648 193.311 48.2488 185.567 51.9448C186.711 53.0008 188.119 54.9808 188.779 56.2568C196.127 52.3848 202.859 46.3128 206.247 40.7248ZM211.131 51.5048V76.5408H216.587V51.5048H211.131ZM195.995 51.7248V57.0488C195.995 62.0648 195.247 68.2688 187.547 72.8448C188.911 73.6808 191.023 75.4408 191.903 76.5848C200.483 71.1728 201.407 63.3848 201.407 57.1808V51.7248H195.995ZM236.167 61.2288C235.815 64.9248 235.111 68.8408 233.835 71.4368C234.979 71.8328 236.915 72.7568 237.839 73.3288C239.115 70.5128 240.039 66.1128 240.479 61.9768L236.167 61.2288ZM245.715 62.0208C246.727 64.6168 247.871 68.0048 248.267 70.2048L252.139 68.7968C251.655 66.5968 250.511 63.3848 249.411 60.8768L245.715 62.0208ZM244.791 51.1528C245.319 52.1208 245.847 53.2208 246.331 54.3208L242.107 54.4968C244.879 50.9328 247.915 46.4888 250.335 42.6608L246.067 40.6808C245.055 42.8368 243.647 45.3448 242.151 47.8088C241.711 47.2808 241.227 46.6648 240.655 46.0488C242.239 43.5848 243.999 40.1968 245.583 37.2048L241.051 35.5328C240.303 37.8648 239.071 40.7688 237.839 43.1888C237.487 42.8808 237.135 42.5728 236.827 42.3088L234.319 45.8728C236.123 47.6328 238.235 49.9648 239.511 51.8568C238.807 52.8688 238.103 53.8368 237.443 54.6728L234.275 54.8048L234.715 59.3368L241.095 58.9408V76.6288H245.627V58.6328L247.871 58.4568C248.135 59.2928 248.311 60.0408 248.443 60.7008L252.139 59.0288C251.655 56.5208 249.939 52.6928 248.267 49.7008L244.791 51.1528ZM268.639 62.5488V70.0288H258.431V62.5488H268.639ZM253.635 76.4968H258.431V74.6488H268.639V76.3208H273.699V57.9288H253.635V76.4968ZM252.095 37.5568V42.3528H258.035C257.375 46.7528 255.747 50.4488 250.291 52.8248C251.391 53.7048 252.799 55.5528 253.371 56.7408C260.147 53.5288 262.303 48.4688 263.183 42.3528H269.607C269.387 47.6328 269.123 49.8328 268.595 50.4928C268.243 50.8448 267.803 50.9328 267.187 50.9328C266.351 50.9328 264.591 50.9328 262.743 50.7568C263.579 52.0768 264.151 54.0568 264.239 55.5968C266.351 55.6408 268.419 55.6408 269.607 55.4648C270.971 55.2888 271.939 54.8928 272.863 53.7488C273.963 52.3848 274.271 48.6008 274.535 39.4488C274.579 38.8328 274.579 37.5568 274.579 37.5568H252.095Z" fill="#2ABAF3" fill-opacity="0.85"/>
<path d="M294.183 19.9959L307.631 7.9525" stroke="#2ABAF3" stroke-opacity="0.85" stroke-width="10" stroke-linecap="round" stroke-linejoin="round"/>
<path d="M301.175 35.7416L319.183 37.0018" stroke="#2ABAF3" stroke-opacity="0.85" stroke-width="10" stroke-linecap="round" stroke-linejoin="round"/>
<path fill-rule="evenodd" clip-rule="evenodd" d="M63.401 48.8936C64.7194 53.3596 68.7933 57.1957 67.5479 61.8738C66.2603 66.7104 61.1235 69.9434 56.8843 73.372C52.1298 77.2175 47.6741 82.2301 41.5117 82.9321C35.2131 83.6497 29.1946 80.8088 24.9398 77.0112C21.043 73.5333 21.1641 68.0228 19.4709 63.2603C17.725 58.3495 12.6763 53.7856 14.8799 48.7157C17.0855 43.6413 24.3624 42.1603 29.7788 39.5451C34.2569 37.3829 38.6871 35.5561 43.5994 34.8489C49.1153 34.0549 55.546 32.3038 59.6854 35.2398C63.8171 38.1703 62.0324 44.2573 63.401 48.8936Z" fill="url(#paint0_linear)"/>
<path fill-rule="evenodd" clip-rule="evenodd" d="M17.7069 48.2751C20.2164 42.6742 26.6862 40.7534 32.0312 38.3443C36.3891 36.38 40.8701 36.1458 45.5101 35.7433C50.7814 35.2862 56.3922 33.2127 60.9124 35.8395C65.7101 38.6276 69.1113 44.0496 69.8955 49.9145C70.6498 55.5552 67.9418 61.2067 64.9682 66.1706C62.4254 70.4151 58.5176 73.2534 54.4237 75.7415C50.6364 78.0432 46.6308 79.288 42.3858 79.8949C37.3641 80.6128 31.9466 82.1797 27.6884 79.5637C23.2215 76.8195 21.3416 71.185 19.6678 65.9384C17.8514 60.2444 15.1792 53.9168 17.7069 48.2751Z" fill="url(#paint1_linear)"/>
<defs>
<linearGradient id="paint0_linear" x1="20.8485" y1="66.3273" x2="63.3159" y2="50.7959" gradientUnits="userSpaceOnUse">
<stop stop-color="#75D9DE"/>
<stop offset="0.520833" stop-color="#CFD2DA"/>
<stop offset="0.9375" stop-color="#F2CFD9"/>
</linearGradient>
<linearGradient id="paint1_linear" x1="17.8918" y1="47.7236" x2="66.0007" y2="65.8351" gradientUnits="userSpaceOnUse">
<stop stop-color="#99D4F1"/>
<stop offset="0.322917" stop-color="#98D5EE"/>
<stop offset="0.572917" stop-color="#93D7E1"/>
<stop offset="1" stop-color="#90D9D7"/>
</linearGradient>
</defs>
</svg>
