<svg width="327" height="102" viewBox="0 0 327 102" fill="none" xmlns="http://www.w3.org/2000/svg">
<rect x="74.1833" y="69.7568" width="217" height="17" rx="8.5" fill="#FFE3B8" fill-opacity="0.35"/>
<path d="M118.555 44.4648C117.235 42.5288 114.155 39.9328 111.779 38.1288L108.347 41.1208C110.811 43.0128 113.671 45.8288 114.903 47.7208L118.555 44.4648ZM117.323 55.9928C115.871 54.1008 112.615 51.3728 110.107 49.6128L106.763 52.6048C109.315 54.5848 112.395 57.4008 113.759 59.3368L117.323 55.9928ZM106.191 59.4248C105.355 58.4128 101.747 54.2768 100.471 53.0448V52.6928H106.279V47.8088H100.471V41.7808C102.495 41.3408 104.431 40.8128 106.147 40.1528L103.199 35.8848C99.5474 37.3808 94.0473 38.7008 89.0313 39.4928C89.6033 40.6368 90.2633 42.3528 90.4393 43.5408C92.0674 43.3648 93.6953 43.1008 95.4113 42.8368V47.8088H88.7673V52.6928H94.7073C93.1233 56.9608 90.6593 61.6688 88.1953 64.4848C88.9873 65.8048 90.1313 67.9608 90.6153 69.4568C92.3313 67.2568 93.9594 64.1328 95.4113 60.7448V76.5848H100.471V58.7208C101.527 60.4808 102.583 62.3288 103.111 63.5608L106.191 59.4248ZM129.995 64.5288L129.159 59.6448L124.803 60.3928V35.4888H119.655V61.2728L105.531 63.6928L106.367 68.6648L119.655 66.3768V76.5408H124.803V65.4528L129.995 64.5288ZM146.715 64.7048C144.427 67.5208 140.599 70.5128 137.035 72.3608C138.355 73.1968 140.643 74.9568 141.743 75.9688C145.175 73.7688 149.399 70.1608 152.127 66.6848L146.715 64.7048ZM178.527 62.4168C176.371 59.4248 171.795 55.0688 168.231 52.1208L163.919 54.8488C164.931 55.7288 166.031 56.7408 167.131 57.7968C163.083 57.9288 159.035 58.0168 155.163 58.0608C159.915 54.4528 165.019 50.0968 169.111 45.8728L164.095 43.1448C161.499 46.1368 157.979 49.5248 154.371 52.6048C153.403 51.7688 152.215 50.8888 150.983 50.0088C153.315 47.8968 155.911 45.2128 158.111 42.6168L157.979 42.5288C164.095 42.0448 170.035 41.3408 174.963 40.2848L171.267 35.8848C163.435 37.4688 150.543 38.3928 139.235 38.6128C139.763 39.8448 140.379 41.9568 140.511 43.3208C143.811 43.2768 147.331 43.1888 150.851 43.0128C149.663 44.5088 148.255 46.0048 146.979 47.3248C146.187 46.8408 145.483 46.4008 144.779 46.0048L141.171 49.3488C144.163 51.1968 147.727 53.8368 150.147 56.0368C149.135 56.8288 148.123 57.5768 147.155 58.2368C143.767 58.2808 140.643 58.3248 137.959 58.3688L138.399 63.6048C142.975 63.4728 148.739 63.3408 154.899 63.1208V76.5848H160.487V62.9448C164.139 62.8128 167.835 62.6368 171.531 62.5048C172.455 63.6048 173.291 64.6608 173.863 65.5848L178.527 62.4168ZM163.039 67.4328C166.559 69.8968 171.091 73.5048 173.115 75.8808L177.823 72.5368C175.535 70.1168 170.871 66.6848 167.395 64.4408L163.039 67.4328ZM207.039 41.7808V45.3448H204.047V41.7808H207.039ZM204.047 53.0448V49.3048H207.039V53.0448H204.047ZM217.511 53.2208V41.9568H219.667V45.2568C219.667 47.5888 219.579 50.3168 219.139 53.2208H217.511ZM222.923 71.7888C222.703 71.7888 222.483 71.7448 222.395 71.5688C222.307 71.4368 222.307 71.1728 222.307 70.9088V58.7648C222.395 58.4128 222.483 58.0608 222.571 57.7088H226.927V53.2208H223.407C223.803 50.3168 223.891 47.6328 223.891 45.2568V41.9568H226.311V37.5568H212.187V41.9568H213.551V53.2208H211.879V57.7088H218.127C217.159 60.9208 215.619 64.1768 213.155 67.2568C212.407 64.7048 211.175 61.5368 209.987 58.9408L205.983 60.3048C206.555 61.6688 207.127 63.2088 207.655 64.7488L204.047 65.8048V57.2248H211.219V37.6448H199.823V56.7408C198.811 55.4648 196.479 52.7368 195.643 51.8568V49.0408H198.943V44.2888H195.643V35.4888H190.891V44.2888H186.227V49.0408H190.671C189.659 54.3208 187.503 60.7008 185.259 64.4408C186.051 65.6728 187.107 67.5648 187.635 68.9728C188.823 67.0368 189.923 64.3528 190.891 61.4048V76.5408H195.643V57.9288C196.435 59.2928 197.227 60.7008 197.667 61.7128L199.823 57.9728V67.0808C198.811 67.3448 197.887 67.6088 197.095 67.8288L199.119 72.5808C202.023 71.4808 205.499 70.1608 208.887 68.8408C209.107 69.5888 209.239 70.2488 209.371 70.8208L210.031 70.5568C208.975 71.5248 207.787 72.4928 206.467 73.3728C207.479 74.1208 209.063 75.6168 209.723 76.5848C213.419 73.9888 216.147 71.0408 218.171 67.9608V71.2168C218.171 73.7248 218.347 74.4288 219.007 75.1328C219.667 75.8808 220.679 76.1448 221.691 76.1448H223.759C224.551 76.1448 225.387 75.9248 225.915 75.4848C226.531 75.0008 226.971 74.4288 227.191 73.4168C227.455 72.4928 227.631 70.1608 227.675 67.9608C226.663 67.5648 225.255 66.8168 224.507 66.1568C224.507 68.1808 224.463 69.8968 224.375 70.6448C224.331 71.0848 224.199 71.4368 224.067 71.5688C223.979 71.7448 223.759 71.7888 223.495 71.7888H222.923ZM241.051 48.4688H244.175V50.2728H241.051V48.4688ZM244.175 39.8008V41.2968H241.051V39.8008H244.175ZM249.323 45.7408H241.051V44.0688H249.323V45.7408ZM254.955 50.2728H248.267V48.4688H253.679V42.5728C254.735 43.2328 256.143 44.4648 256.891 45.3448C257.727 44.6408 258.519 43.8928 259.179 43.1448V45.0808H272.731V42.2208H259.927C260.235 41.8248 260.543 41.4288 260.807 40.9888H274.711V37.7328H262.567C262.787 37.2488 263.007 36.7208 263.183 36.2368L258.695 35.5328C257.859 37.7768 256.275 40.2848 253.679 42.2648V41.2968H248.267V39.8008H254.603V36.8088H236.607V53.2208H254.955V50.2728ZM260.059 48.6448H261.731V50.8888H260.059V48.6448ZM264.283 48.6448H266.087V50.8888H264.283V48.6448ZM268.639 48.6448H270.399V50.8888H268.639V48.6448ZM256.583 53.2648H274.051V46.2688H256.583V53.2648ZM246.111 65.1008H263.799V66.5528H246.111V65.1008ZM246.111 61.1408H263.799V62.5488H246.111V61.1408ZM246.111 57.1808H263.799V58.5888H246.111V57.1808ZM264.063 72.1848C262.303 72.1848 261.951 72.0528 261.951 70.9528V69.2368H268.947V54.4968H241.139V69.2368H246.727C245.539 71.3048 242.811 72.1848 234.407 72.5808C235.287 73.5928 236.343 75.3968 236.651 76.5848C247.255 75.5728 250.687 73.5048 252.051 69.2368H256.891V70.9968C256.891 74.9128 258.167 76.1008 263.403 76.1008H269.915C273.743 76.1008 275.019 74.9128 275.547 70.3808C274.271 70.2048 272.247 69.5448 271.235 68.8848C271.059 71.7008 270.751 72.1848 269.387 72.1848H264.063Z" fill="#2ABAF3" fill-opacity="0.85"/>
<path d="M294.183 19.9959L307.632 7.9525" stroke="#2ABAF3" stroke-opacity="0.85" stroke-width="10" stroke-linecap="round" stroke-linejoin="round"/>
<path d="M301.175 35.7416L319.183 37.0018" stroke="#2ABAF3" stroke-opacity="0.85" stroke-width="10" stroke-linecap="round" stroke-linejoin="round"/>
<path fill-rule="evenodd" clip-rule="evenodd" d="M14.7119 50.3549C17.0556 44.5025 28.2271 46.8733 33.5626 44.1582C37.9128 41.9444 38.5652 33.3824 45.3568 31.2912C50.4972 29.7084 55.167 31.125 59.8476 33.6054C65.7647 36.7412 68.1277 43.8202 68.3509 49.714C68.5712 55.5326 66.142 61.2676 63.3044 66.4891C60.878 70.9538 57.016 74.0418 52.9525 76.7798C49.1933 79.3127 45.1746 80.7733 40.8899 81.5917C35.8214 82.5599 30.3819 84.4159 25.9675 81.9344C21.3368 79.3313 19.2262 73.6482 17.3388 68.3528C15.2906 62.6059 12.3512 56.2498 14.7119 50.3549Z" fill="url(#paint0_linear)"/>
<defs>
<linearGradient id="paint0_linear" x1="63.5023" y1="46.882" x2="23.6269" y2="51.7538" gradientUnits="userSpaceOnUse">
<stop stop-color="#97D3F1"/>
<stop offset="0.9999" stop-color="#EDE3D8"/>
<stop offset="1" stop-color="#EDE3D8"/>
</linearGradient>
</defs>
</svg>
