<svg width="405" height="225" viewBox="0 0 405 225" fill="none" xmlns="http://www.w3.org/2000/svg">
<path fill-rule="evenodd" clip-rule="evenodd" d="M42.6998 189.472C54.6088 151.331 125.001 160.522 156.888 140.633C182.887 124.416 183.081 70.0501 224.285 53.3459C255.471 40.7028 285.088 47.23 315.25 60.4648C353.38 77.1963 371.231 120.647 375.269 157.723C379.256 194.326 366.763 231.771 351.505 266.185C338.459 295.613 315.883 317.094 291.9 336.47C269.712 354.395 245.431 365.687 219.211 373.065C188.194 381.792 155.275 396.314 126.764 382.935C96.8561 368.9 81.2003 334.128 67.104 301.687C51.8059 266.481 30.7041 227.89 42.6998 189.472Z" stroke="white" stroke-width="2"/>
<path fill-rule="evenodd" clip-rule="evenodd" d="M42.04 209.58C47.5136 171.794 116.651 169.863 144.198 146.29C166.659 127.071 158.323 75.7396 195.33 53.7694C223.34 37.1406 252.845 38.8384 283.927 46.7836C323.22 56.8278 347.199 95.1406 356.895 129.519C366.468 163.459 360.323 200.676 351.045 235.45C343.111 265.184 324.768 288.856 304.741 310.753C286.213 331.01 264.633 345.324 240.573 356.236C212.113 369.144 182.731 387.807 153.214 379.477C122.251 370.739 101.744 340.284 83.1017 311.795C62.8702 280.877 36.5267 247.64 42.04 209.58Z" fill="url(#paint0_linear)"/>
<defs>
<linearGradient id="paint0_linear" x1="324.324" y1="119.744" x2="96.5111" y2="205.136" gradientUnits="userSpaceOnUse">
<stop stop-color="#97D3F1"/>
<stop offset="0.9999" stop-color="#EDE3D8"/>
<stop offset="1" stop-color="#EDE3D8"/>
</linearGradient>
</defs>
</svg>
