<svg width="486" height="270" viewBox="0 0 486 270" fill="none" xmlns="http://www.w3.org/2000/svg">
<path fill-rule="evenodd" clip-rule="evenodd" d="M256.112 418.904C209.001 419.332 174.878 380.884 140.952 351.719C113.29 327.94 97.3032 297.849 79.6337 267.194C59.5604 232.37 27.1235 200.315 30.97 160.915C35.0526 119.097 61.9826 78.566 100.385 54.6419C137.318 31.6325 185.418 32.4106 229.571 37.189C267.325 41.2749 299.643 59.1956 330.113 79.5036C358.301 98.2907 379.815 121.919 397.645 149.209C418.738 181.492 447.022 213.817 442.412 251.38C437.576 290.784 404.29 321.519 373.051 349.61C339.148 380.096 303.565 418.472 256.112 418.904Z" fill="url(#paint0_linear)"/>
<g style="mix-blend-mode:lighten">
<path fill-rule="evenodd" clip-rule="evenodd" d="M282.097 429.144C233.814 434.726 194.701 399.381 156.781 373.448C125.864 352.304 106.248 323.47 84.8463 294.248C60.533 261.051 23.8325 232.018 23.5683 191.557C23.2879 148.613 46.5831 104.481 83.4212 75.9731C118.851 48.5548 168.277 44.0909 214.082 44.1234C253.249 44.1511 288.316 58.8327 321.744 76.1421C352.668 92.1552 377.263 113.817 398.471 139.603C423.558 170.107 456.027 199.867 455.312 238.545C454.561 279.118 423.7 313.989 394.654 345.949C363.132 380.635 330.73 423.522 282.097 429.144Z" stroke="white" stroke-width="2"/>
</g>
<defs>
<linearGradient id="paint0_linear" x1="251.672" y1="419.374" x2="224.674" y2="31.0922" gradientUnits="userSpaceOnUse">
<stop stop-color="#99D4F1"/>
<stop offset="0.505208" stop-color="#98D5EE"/>
<stop offset="0.802083" stop-color="#93D7E1"/>
<stop offset="1" stop-color="#90D9D7"/>
</linearGradient>
</defs>
</svg>
