<svg width="327" height="102" viewBox="0 0 327 102" fill="none" xmlns="http://www.w3.org/2000/svg">
<rect x="75" y="70" width="217" height="17" rx="8.5" fill="#FFE3B8" fill-opacity="0.35"/>
<path d="M119.24 42.288H100.584V40.484H119.24V42.288ZM119.24 47.304H100.584V45.456H119.24V47.304ZM124.476 37.14H95.568V50.648H124.476V37.14ZM121.968 62.044C121.176 63.628 120.164 65.08 118.976 66.356C117.788 65.08 116.776 63.628 116.028 62.044H121.968ZM98.648 67.28H104.368V68.996C102.432 69.172 100.496 69.304 98.648 69.436V67.28ZM98.648 61.824H104.368V63.672H98.648V61.824ZM104.368 56.412V58.172H98.648V56.412H104.368ZM125.048 57.864L124.168 58.04H110.484V62.044H114.532L111.628 62.836C112.684 65.256 114.048 67.456 115.632 69.348C113.784 70.712 111.628 71.768 109.384 72.516V56.412H129.536V52.276H90.42V56.412H93.852V69.788C92.488 69.92 91.168 69.964 90.024 70.052L90.42 74.54C94.292 74.188 99.308 73.748 104.368 73.264V76.828H109.384V73.264C110.264 74.32 111.232 75.772 111.716 76.784C114.444 75.772 116.952 74.408 119.196 72.692C121.528 74.496 124.256 75.86 127.38 76.784C128.084 75.552 129.448 73.66 130.46 72.692C127.556 71.988 124.916 70.888 122.716 69.436C125.18 66.664 127.072 63.232 128.26 59.096L125.048 57.864ZM152.064 44.356C151.712 45.852 151.008 47.876 150.436 49.196L153.34 49.812H144.716L146.916 49.196C146.74 47.876 146.168 45.852 145.42 44.356H152.064ZM151.492 61.912H158.752V57.512H151.492V54.124H159.148V49.812H154.704C155.32 48.492 156.024 46.732 156.816 44.84L154.264 44.356H158.796V40.088H151.492V36.084H146.432V40.088H139.04V44.356H143.968L141.284 44.972C141.9 46.468 142.428 48.36 142.604 49.812H138.556V54.124H146.432V57.512H138.688V61.912H145.376C143.352 65.212 140.316 68.512 137.456 70.404C138.556 71.24 140.052 72.956 140.844 74.1C142.736 72.56 144.716 70.36 146.432 67.896V76.74H151.492V67.368C152.768 68.6 154 69.92 154.704 70.8L157.74 67.06C156.728 66.268 153.076 63.364 151.492 62.264V61.912ZM179.124 50.208H165.396V44.048C170.016 43.08 175.032 41.716 178.904 40L174.724 36.172C172.04 37.624 167.684 39.032 163.504 40.044L160.468 39.208V54.432C160.468 60.504 159.94 67.984 154.88 73.352C156.068 73.968 157.96 75.772 158.62 76.916C164.428 70.888 165.352 61.604 165.396 55.048H169.884V76.564H174.944V55.048H179.124V50.208ZM222.156 36.744C221.276 39.384 219.604 42.904 218.284 45.148L222.816 46.82C224.18 44.752 225.852 41.628 227.26 38.548L222.156 36.744ZM192.412 76.608C194.788 72.164 197.208 67.104 199.232 62.396L195.36 59.228C192.984 64.376 189.992 69.92 187.792 73.264L192.412 76.608ZM197.604 52.716C195.844 51.088 192.28 48.976 189.552 47.7L186.604 51.396C189.376 52.848 192.852 55.136 194.48 56.808L197.604 52.716ZM188.628 39.78C191.312 41.232 194.744 43.52 196.284 45.192L199.54 41.144C197.824 39.472 194.392 37.36 191.664 36.128L188.628 39.78ZM209.088 44.972C208.428 42.684 206.536 39.472 204.776 37.052L200.376 38.988C202.092 41.54 203.808 44.972 204.336 47.128L209.088 44.972ZM206.888 63.76V60.46H220.22V63.76H206.888ZM220.22 52.848V56.06H206.888V52.848H220.22ZM225.324 47.964H216.348V35.732H211.068V47.964H201.74V76.74H206.888V68.16H220.22V71.064C220.22 71.636 220 71.856 219.34 71.9C218.636 71.9 216.348 71.9 214.324 71.768C215.028 73.132 215.732 75.288 215.908 76.696C219.208 76.696 221.584 76.652 223.212 75.816C224.884 75.024 225.324 73.66 225.324 71.108V47.964ZM247.148 54.96H264.924V57.204H247.148V54.96ZM247.148 48.976H264.924V51.22H247.148V48.976ZM247.148 43.08H264.924V45.236H247.148V43.08ZM251.328 63.32C253.66 65.212 256.212 67.94 257.312 69.832L261.404 67.016C260.26 65.168 257.84 62.836 255.64 61.164H270.204V39.076H257.928C258.412 38.152 258.984 37.14 259.512 36.04L253.176 35.292C253 36.392 252.604 37.8 252.208 39.076H242.088V61.164H254.628L251.328 63.32ZM239.36 75.332C242 72.736 243.584 68.82 244.684 65.212L240.02 63.54C239.096 66.796 237.336 70.184 234.96 72.296L239.36 75.332ZM254.1 72.032C251.988 72.032 251.68 71.9 251.68 70.624V64.332H246.488V70.712C246.488 75.244 247.852 76.696 253.572 76.696H260.7C264.968 76.696 266.42 75.376 266.992 70.184C265.628 69.876 263.428 69.084 262.372 68.336C262.152 71.592 261.844 72.032 260.216 72.032H254.1ZM264.968 65.652C268.004 68.556 271.128 72.604 272.36 75.42L276.848 72.472C275.528 69.524 272.228 65.696 269.148 62.968L264.968 65.652Z" fill="#2ABAF3" fill-opacity="0.85"/>
<path d="M295 20.239L308.448 8.19567" stroke="#2ABAF3" stroke-opacity="0.85" stroke-width="10" stroke-linecap="round" stroke-linejoin="round"/>
<path d="M301.991 35.9847L320 37.2449" stroke="#2ABAF3" stroke-opacity="0.85" stroke-width="10" stroke-linecap="round" stroke-linejoin="round"/>
<path fill-rule="evenodd" clip-rule="evenodd" d="M64.2177 49.1367C65.5362 53.6028 69.61 57.4389 68.3646 62.117C67.077 66.9536 61.9402 70.1865 57.7011 73.6152C52.9465 77.4607 48.4909 82.4733 42.3285 83.1753C36.0298 83.8929 30.0113 81.0519 25.7565 77.2544C21.8598 73.7765 21.9808 68.2659 20.2876 63.5034C18.5417 58.5927 13.493 54.0288 15.6966 48.9589C17.9022 43.8845 25.1791 42.4035 30.5955 39.7883C35.0737 37.6261 39.5038 35.7993 44.4162 35.0921C49.932 34.298 56.3627 32.547 60.5021 35.4829C64.6339 38.4135 62.8491 44.5005 64.2177 49.1367Z" fill="url(#paint0_linear)"/>
<defs>
<linearGradient id="paint0_linear" x1="21.6652" y1="66.5705" x2="64.1326" y2="51.0391" gradientUnits="userSpaceOnUse">
<stop stop-color="#75D9DE"/>
<stop offset="0.520833" stop-color="#CFD2DA"/>
<stop offset="0.9375" stop-color="#F2CFD9"/>
</linearGradient>
</defs>
</svg>
