<svg width="321" height="95" viewBox="0 0 321 95" fill="none" xmlns="http://www.w3.org/2000/svg">
<rect x="69" y="70" width="217" height="17" rx="8.5" fill="#FFE3B8" fill-opacity="0.35"/>
<path d="M90.58 43.96H117.376V49.02H122.744V39.208H106.64V35.776H101.272V39.208H85.432V49.02H90.58V43.96ZM118.652 51.484C117.068 52.98 114.736 54.784 112.536 56.28C111.832 54.652 111.216 52.936 110.732 51.176H115.748V46.776H92.12V51.176H98.544C94.672 53.156 89.788 54.696 85.08 55.62C85.916 56.632 87.236 58.7 87.764 59.712C91.24 58.788 94.848 57.512 98.192 55.972C98.588 56.324 98.94 56.676 99.292 57.028C95.992 59.272 90.14 61.692 85.696 62.748C86.664 63.76 87.764 65.564 88.336 66.708C92.516 65.256 97.928 62.616 101.668 60.108C101.976 60.592 102.24 61.12 102.504 61.648C98.148 65.344 90.492 68.952 84.156 70.536C85.124 71.68 86.268 73.572 86.884 74.892C92.384 73 98.896 69.7 103.692 66.18C103.868 68.512 103.252 70.316 102.24 71.108C101.536 71.9 100.7 72.032 99.6 72.032C98.456 72.032 97.048 71.944 95.376 71.812C96.344 73.264 96.784 75.376 96.872 76.828C98.148 76.916 99.512 76.96 100.612 76.916C102.9 76.916 104.352 76.476 105.98 75.068C110.336 71.9 110.644 60.944 102.372 53.728C103.692 52.936 104.924 52.1 106.024 51.176H106.112C108.62 61.428 112.976 69.524 120.808 73.704C121.644 72.252 123.316 70.184 124.46 69.172C120.324 67.324 117.068 64.2 114.648 60.328C117.2 58.876 120.236 56.896 122.744 55.004L118.652 51.484ZM166.216 61.032C164.324 62.528 161.816 64.244 159.484 65.608C158.12 64.244 156.976 62.748 156.008 61.032H166.216ZM167.756 61.032H172.464V56.412H145.492V54.124H166.656V50.076H145.492V47.876H166.656V43.828H145.492V41.496H167.888V37.228H140.124V56.412H132.82V61.032H140.08V71.108C138.1 71.328 136.296 71.592 134.712 71.768L135.9 76.564C141.224 75.772 148.484 74.672 155.216 73.572L154.996 68.952C151.828 69.436 148.572 69.92 145.492 70.36V61.032H150.552C154.204 69.348 160.056 74.584 170 76.872C170.704 75.464 172.2 73.308 173.3 72.164C169.252 71.416 165.864 70.14 163.048 68.38C165.688 66.972 168.636 65.212 171.144 63.408L167.756 61.032ZM203.704 56.764H208.324L207.444 57.468C208.016 57.688 208.632 57.996 209.248 58.26L203.704 58.304V56.764ZM190.812 53.552V51.88H198.6V53.552H190.812ZM190.812 47.26H198.6V48.888H190.812V47.26ZM211.888 47.26V48.888H203.704V47.26H211.888ZM203.704 53.552V51.88H211.888V53.552H203.704ZM221.26 63.364H211.448V61.604L214.66 61.516C215.364 62 215.98 62.528 216.508 62.968L219.72 60.284C218.312 59.228 216.244 57.908 214.044 56.764H216.992V44.092H203.704V42.508H219.764V38.548H203.704V35.776H198.6V38.548H182.452V42.508H198.6V44.092H185.928V56.764H198.6V58.348C192.66 58.348 187.248 58.392 183.112 58.348L183.244 62.088C189.404 62.044 197.72 61.912 206.388 61.736V63.364H181.264V67.5H190.064L188.216 69.04C190.592 70.668 193.54 73.176 194.816 74.892L198.688 71.548C197.676 70.36 195.828 68.82 193.98 67.5H206.388V71.592C206.388 72.164 206.168 72.296 205.464 72.34C204.76 72.34 202.252 72.34 200.14 72.252C200.756 73.572 201.416 75.42 201.636 76.828C204.98 76.828 207.444 76.784 209.204 76.124C211.008 75.42 211.448 74.188 211.448 71.768V67.5H221.26V63.364ZM260.86 47.832V45.896H264.512V47.832H260.86ZM264.512 40.836V42.64H260.86V40.836H264.512ZM252.588 63.716H254.744V64.948H252.588V63.716ZM252.588 60.196H254.744V61.428H252.588V60.196ZM259.804 61.428H257.604V60.196H259.804V61.428ZM259.804 64.948H257.604V63.716H259.804V64.948ZM251.444 40.836V42.64H247.968V40.836H251.444ZM247.968 47.832V45.896H251.444V47.832H247.968ZM269.132 37.052H256.9V51.572H264.512V71.944C264.512 72.428 264.38 72.56 263.94 72.604H263.764C263.94 72.428 264.116 72.296 264.248 72.164C262.488 71.064 260.508 69.172 259.144 67.324H262.884V57.776H257.868V56.676H263.456V53.904H257.868V52.1H254.348V53.904H249.068V56.676H254.348V57.776H249.596V67.324H253.38C251.972 69.216 249.904 71.02 247.968 72.164V51.572H255.404V37.052H243.568V58.832C242.512 57.028 240.312 53.332 239.3 51.88V49.548H242.952V44.796H239.3V35.732H234.636V44.796H229.928V49.548H234.284C233.272 54.784 231.204 60.9 228.916 64.376C229.62 65.564 230.632 67.456 231.116 68.82C232.436 66.708 233.624 63.76 234.636 60.548V76.784H239.3V57.864C240.18 59.844 241.104 61.912 241.544 63.232L243.568 60.284V76.872H247.968V72.648C248.672 73.352 249.596 74.408 250.124 75.112C251.532 74.188 253.028 72.78 254.304 71.196V75.992H258.044V70.8C259.188 72.428 260.464 73.924 261.652 74.936C261.784 74.76 261.96 74.54 262.136 74.32C262.4 75.244 262.664 76.212 262.752 76.916C264.952 76.916 266.448 76.784 267.636 76.036C268.824 75.244 269.132 74.012 269.132 71.988V37.052Z" fill="#2ABAF3" fill-opacity="0.85"/>
<path d="M289 20.239L302.448 8.19567" stroke="#2ABAF3" stroke-opacity="0.85" stroke-width="10" stroke-linecap="round" stroke-linejoin="round"/>
<path d="M295.991 35.9847L314 37.2449" stroke="#2ABAF3" stroke-opacity="0.85" stroke-width="10" stroke-linecap="round" stroke-linejoin="round"/>
<path fill-rule="evenodd" clip-rule="evenodd" d="M18.6105 44.1923C16.2091 48.1819 11.3 50.8675 11.3262 55.7084C11.3533 60.7135 15.5096 65.1366 18.7478 69.5229C22.3797 74.4426 25.4283 80.4163 31.2148 82.6487C37.1294 84.9305 43.6695 83.698 48.7441 81.0954C53.3915 78.7118 54.6632 73.3486 57.502 69.1665C60.4291 64.8543 66.4651 61.71 65.6103 56.2485C64.7547 50.782 58.086 47.5149 53.5035 43.619C49.7148 40.398 45.888 37.5137 41.3124 35.5914C36.1747 33.4328 30.3929 30.1177 25.6473 31.9156C20.9103 33.7103 21.1034 40.0506 18.6105 44.1923Z" fill="url(#paint0_linear)"/>
<defs>
<linearGradient id="paint0_linear" x1="55.3959" y1="71.7874" x2="18.2135" y2="46.0547" gradientUnits="userSpaceOnUse">
<stop stop-color="#75D9DE"/>
<stop offset="0.520833" stop-color="#CFD2DA"/>
<stop offset="0.9375" stop-color="#F2CFD9"/>
</linearGradient>
</defs>
</svg>
