<svg width="342" height="159" viewBox="0 0 342 159" fill="none" xmlns="http://www.w3.org/2000/svg">
<path d="M40.65 19.045H50.255V14.115H60.115V19.045H69.975V14.115H79.495V5.785H69.975V0.0899987H60.115V5.785H50.255V0.0899987H40.65V5.785H30.705V14.115H40.65V19.045ZM31.895 43.61C30.365 41.145 24.075 31.455 21.525 28.14V25.165H29.175V15.815H21.525V0.00499469H11.92V15.815H2.74V25.165H11.92V27.375C9.54 36.98 5.46 47.775 0.785 53.895C2.4 56.615 4.61 61.205 5.63 64.095C7.84 60.525 10.05 55.85 11.92 50.58V79.31H21.525V41.06C23.31 44.63 24.925 48.2 25.86 50.665L31.895 43.61ZM42.435 37.66H65.81V41.4H42.435V37.66ZM42.435 27.46H65.81V31.115H42.435V27.46ZM79.835 61.63V53.3H58.585C58.84 51.685 59.095 50.155 59.265 48.455H75.585V20.49H33.085V48.455H49.32C49.15 50.155 48.895 51.77 48.64 53.3H29.175V61.63H45.41C42.265 66.05 36.655 69.195 26.03 71.32C27.9 73.275 30.28 76.93 31.13 79.395C45.155 75.995 52.04 70.725 55.61 63.415C59.86 71.235 66.32 76.59 75.84 79.225C77.2 76.675 79.92 72.85 82.045 70.895C74.48 69.365 68.785 66.135 64.96 61.63H79.835ZM132.705 67.325C131.175 65.37 128.03 62.395 125.31 60.1C125.565 59.165 125.735 58.315 125.905 57.465H133.98V49.645H126.755V48.71V42.505H133.215V34.855H119.7C120.21 33.155 120.635 31.455 120.975 29.755L113.495 28.14C112.815 31.88 111.71 35.79 110.35 39.19L109.415 34.345L104.4 36.045V25.335H109.585V16.07H104.4V0.0899987H95.73V16.07H87.4V25.335H95.73V38.935C92.075 40.21 88.76 41.23 85.955 41.995L88.335 51.6L95.73 49.05V69.195C95.73 70.3 95.305 70.64 94.285 70.64C93.35 70.64 90.29 70.64 87.315 70.555C88.505 73.105 89.525 77.015 89.865 79.395C95.135 79.395 98.62 79.055 101.085 77.525C103.55 76.08 104.4 73.615 104.4 69.195V45.905L107.29 44.885L107.035 45.225C108.82 46.245 111.965 48.455 113.41 49.645C114.685 47.605 115.96 45.225 117.065 42.505H118.85V48.54V49.645H108.055V57.465H117.915C116.64 63.075 113.41 69.11 105.675 73.785C107.545 75.145 110.095 77.525 111.37 79.31C116.47 75.91 119.87 71.915 122.165 67.75C124.29 69.875 126.33 72.17 127.52 73.785L132.705 67.325ZM157.525 70.215C156.25 70.215 154.975 70.13 153.785 69.96V57.72H163.475V49.815H153.785V38.935H157.865C157.44 41.485 157.1 43.865 156.76 45.735L162.625 47.265C163.645 43.185 164.75 37.065 165.6 31.795L160.925 30.605L159.735 30.86H155.4L160.16 25.845C158.8 24.23 156.93 22.615 154.72 20.915C158.46 16.41 162.2 10.885 164.835 5.7L159.225 1.875L157.695 2.38499H135.85V10.12H152.68C151.32 12.415 149.79 14.71 148.175 16.665C146.22 15.56 144.265 14.54 142.395 13.69L136.955 19.3C134.66 18.79 131.43 17.6 129.9 16.495C129.645 20.83 129.305 21.595 127.69 21.595H121.995C120.04 21.595 119.7 21.34 119.7 19.13V16.155C125.055 14.625 130.92 12.415 135.51 9.865L129.985 3.57499C127.35 5.445 123.61 7.315 119.7 8.93V0.0899987H111.54V19.13C111.54 26.61 113.155 28.735 120.72 28.735H128.625C133.895 28.735 136.19 26.695 137.04 19.3C142.99 22.275 149.535 26.865 153.19 30.86H134.49V38.935H146.135V65.88C144.69 64.18 143.5 61.97 142.48 58.825C143.16 54.32 143.585 49.39 143.755 44.035L136.275 43.695C136.02 57.04 134.745 67.92 128.625 74.89C130.41 75.825 133.555 78.205 134.745 79.48C137.04 76.59 138.74 73.19 140.015 69.45C144.095 76.335 149.875 78.035 156.93 78.035H164.92C165.175 75.91 166.195 72.085 167.3 70.215H157.525ZM235.725 65.795H226.545V31.37H235.725V65.795ZM186.68 31.37H195.435V65.795H186.68V31.37ZM217.45 37.235H204.445V31.37H217.45V37.235ZM204.445 59.505H217.45V65.795H204.445V59.505ZM217.45 51.6H204.445V45.14H217.45V51.6ZM249.92 14.37V4.85H173.42V14.37H204.445C204.105 16.92 203.595 19.555 203.085 22.02H176.905V79.395H186.68V75.06H235.725V79.395H246.01V22.02H213.71C214.39 19.555 215.24 17.005 216.005 14.37H249.92ZM285.11 2.64H260.885V10.29H285.11V2.64ZM287.575 14.03H256.805V22.02H287.575V14.03ZM277.035 57.21V66.985H268.705V57.21H277.035ZM285.45 49.22H260.375V78.205H268.705V74.89H285.45V49.22ZM260.63 45.055H285.62V37.49H260.63V45.055ZM260.63 33.58H285.62V25.845H260.63V33.58ZM305.255 62.31V43.1H311.885V34.43H288.765V43.1H295.905V63.925C292.675 64.435 289.7 64.945 287.15 65.285L289.19 74.55C296.5 73.02 305.765 71.065 314.52 69.11L313.84 60.78L305.255 62.31ZM335.26 25.25V16.07H322.68C322.595 12.33 322.595 8.505 322.68 4.595C325.315 7.91 328.205 12.415 329.48 15.305L336.79 11.225C335.345 8.335 332.2 4 329.48 0.854999L322.68 4.33999V0.0899987H312.99C312.99 5.7 313.075 10.97 313.16 16.07H288.85V25.25H313.415C314.435 59.08 317.58 79.14 328.12 79.395C331.265 79.48 335.515 76.505 337.725 62.65C336.195 61.63 332.2 58.825 330.67 56.615C330.33 62.99 329.65 66.9 328.545 66.9C325.315 66.645 323.36 49.56 322.765 25.25H335.26ZM53.848 115.744H27.688V120.736H53.848V115.744ZM45.256 137.68C44.2 135.712 42.184 132.688 40.072 130.144C41.656 127.84 43.432 125.152 44.824 122.656L40.072 121.552C39.016 123.808 36.856 127.36 34.84 130.192C37.48 133.456 39.688 137.104 40.84 139.6L45.256 137.68ZM31.912 121.504C30.808 123.808 28.84 127.312 26.92 130.192C29.32 133.504 31.336 137.104 32.296 139.6L36.856 137.776C35.896 135.808 34.072 132.736 32.104 130.144C33.64 127.84 35.272 125.104 36.664 122.656L31.912 121.504ZM53.8 137.584C52.696 135.616 50.44 132.592 48.28 130.144C49.816 127.84 51.64 125.152 53.128 122.704L48.376 121.552C47.224 123.808 45.016 127.36 43 130.192C45.736 133.456 48.232 137.104 49.384 139.6L53.8 137.584ZM11.416 141.424C11.032 145.456 10.36 149.728 8.96798 152.56C10.12 152.992 12.184 153.904 13.144 154.576C14.488 151.504 15.544 146.752 15.976 142.192L11.416 141.424ZM23.944 138.112C24.232 139.168 24.52 140.128 24.664 140.944L28.936 138.976C28.36 136.288 26.536 132.064 24.664 128.8L20.632 130.48C21.16 131.44 21.688 132.496 22.168 133.552L17.992 133.792C21.016 129.952 24.28 125.2 26.92 121.168L22.264 119.008C21.16 121.36 19.624 124.096 17.944 126.784C17.512 126.208 16.984 125.536 16.408 124.912C18.184 122.224 20.152 118.432 21.832 115.12L16.888 113.392C16.12 115.84 14.776 119.056 13.432 121.696C13.048 121.36 12.664 121.024 12.328 120.688L9.54398 124.528C11.464 126.496 13.672 129.088 15.016 131.248C14.296 132.256 13.576 133.216 12.856 134.08L9.39998 134.272L9.97598 139.216L16.648 138.688V158.176H21.544V138.304L23.944 138.112ZM21.976 142.432C23.032 145.168 23.944 148.72 24.184 151.072L28.408 149.68C28.12 147.376 27.112 143.872 25.96 141.232L21.976 142.432ZM43.576 151.84V145.264H52.648V140.224H29.416V145.264H37.816V151.84H26.536V156.88H54.664V151.84H43.576ZM84.376 124.72C86.44 122.704 88.168 120.496 89.32 118.432C90.568 120.496 92.44 122.752 94.504 124.72H84.376ZM83.224 128.896H95.848V125.968C97.336 127.216 98.872 128.32 100.36 129.184C101.128 127.6 102.232 125.536 103.24 124.144C98.872 122.176 94.552 117.952 91.72 113.392H86.632C84.568 117.472 80.296 122.224 75.784 124.576C76.744 125.776 77.848 127.84 78.328 129.328C80.008 128.368 81.688 127.168 83.224 125.776V128.896ZM94.12 134.56H97.144V139.12H94.12V134.56ZM90.424 142.72H101.128V131.008H90.424V142.72ZM82.12 134.56H84.808V139.12H82.12V134.56ZM78.376 142.72H88.696V131.008H78.376V142.72ZM60.136 155.536C61.912 152.752 62.296 148.288 62.488 143.872L59.416 143.296C59.272 147.424 58.84 151.504 57.256 154.048L60.136 155.536ZM62.968 144.304C63.304 147.136 63.4 150.736 63.208 153.136L65.8 152.848C65.896 150.496 65.8 146.848 65.368 144.016L62.968 144.304ZM65.896 143.968C66.616 146.464 67.144 149.68 67.24 151.744L69.64 151.312C69.544 149.2 68.92 146.032 68.248 143.536L65.896 143.968ZM64.168 133.792H67.144V136.864H64.168V133.792ZM67.144 119.536V122.512H64.168V119.536H67.144ZM67.144 129.616H64.168V126.688H67.144V129.616ZM93.4 143.488C93.016 147.568 92.008 150.928 89.704 153.328C88.744 151.984 87.016 150.112 85.432 148.528C85.816 147.04 86.056 145.504 86.248 143.824L81.544 143.536C81.112 148.672 79.576 152.608 75.928 155.008C76.504 152.704 76.696 147.904 76.936 138.688C76.984 138.064 76.984 136.864 76.984 136.864H71.464V133.792H75.736V129.616H71.464V126.688H75.592V122.512H71.464V119.536H76.456V115.072H59.704V141.184H72.472C72.424 143.056 72.376 144.688 72.28 146.08C71.896 144.976 71.416 143.824 70.936 142.864L68.824 143.536C69.736 145.504 70.552 148.048 70.84 149.728L72.136 149.248C71.944 151.888 71.752 153.136 71.416 153.616C71.08 154.096 70.744 154.192 70.216 154.192C69.592 154.192 68.584 154.192 67.384 154.048C68.008 155.2 68.392 156.976 68.488 158.32C70.072 158.32 71.656 158.32 72.568 158.128C73.72 157.984 74.536 157.552 75.304 156.496C75.544 156.208 75.736 155.728 75.928 155.104C76.984 155.824 78.616 157.456 79.24 158.32C81.208 156.88 82.696 155.104 83.8 152.896C85 154.288 86.104 155.68 86.728 156.688L88.072 155.248C89.128 156.112 90.616 157.504 91.144 158.272C93.016 156.928 94.408 155.296 95.512 153.28C97 155.056 98.44 156.88 99.256 158.176L102.856 155.392C101.704 153.616 99.256 150.928 97.24 148.864C97.672 147.328 97.96 145.6 98.152 143.776L93.4 143.488ZM115.672 138.304H120.712V133.6H115.528L115.432 129.568H120.712V124.864H115.288L115.192 121.408C117.544 120.496 120.136 119.344 122.44 118.24V130.576H129.592V142.24H126.856V132.208H122.344V142.24H115.816L115.672 138.304ZM150.328 142.24H145.72C146.152 135.04 146.344 124.528 146.344 116.128H135.544V121.072H141.112C141.112 122.32 141.112 123.568 141.064 124.864H136.12V129.568H140.968C140.92 130.96 140.872 132.304 140.824 133.648H136.072V138.352H140.632C140.536 139.696 140.44 141.04 140.392 142.24H134.44V126.112H127.288V122.896H134.632V118.144H127.288V113.92H122.44V117.28L118.792 113.776C117.352 114.88 115.24 116.224 113.128 117.376L109.912 116.512L110.68 142.24H106.216V147.568H118.984C115.816 149.872 110.632 152.656 106.408 154.24C107.752 155.296 109.768 157.024 110.776 158.176C115.144 156.352 120.952 153.28 124.744 150.64L120.52 147.568H134.872L131.416 150.688C136.264 153.04 141.592 156.208 144.616 158.224L150.232 154.336C147.16 152.464 141.976 149.824 137.224 147.568H150.328V142.24ZM169.816 133.744L165.4 134.848V127.744H170.104V122.464H165.4V113.392H159.736V122.464H154.216V127.744H159.736V136.24C157.432 136.816 155.368 137.248 153.592 137.632L155.08 143.056L159.736 141.904V151.792C159.736 152.512 159.496 152.752 158.824 152.752C158.2 152.752 156.232 152.752 154.36 152.704C155.032 154.192 155.752 156.448 155.944 157.888C159.352 157.888 161.656 157.744 163.24 156.88C164.872 155.968 165.4 154.624 165.4 151.84V140.368C167.128 139.936 168.856 139.456 170.536 138.976L169.816 133.744ZM189.928 136.336C188.488 139.6 186.376 142.48 183.88 144.832C181.48 142.384 179.56 139.504 178.216 136.336H189.928ZM193.48 130.96L192.472 131.2H186.712V125.44H197.464V120.16H186.712V113.296H181.048V120.16H170.728V125.44H181.048V131.2H171.592V136.336H174.088L172.648 136.768C174.424 141.184 176.68 144.976 179.464 148.192C176.104 150.352 172.216 151.888 167.992 152.896C169.048 154.144 170.392 156.544 171.016 158.08C175.72 156.688 179.944 154.768 183.688 152.176C187.048 154.816 190.984 156.832 195.64 158.224C196.456 156.736 198.088 154.432 199.288 153.28C195.016 152.224 191.32 150.64 188.152 148.432C192.232 144.4 195.304 139.12 197.128 132.496L193.48 130.96ZM214.072 125.392H219.544V119.728H202.408V125.392H208.264V141.904C205.72 142.48 203.368 142.96 201.448 143.344L202.84 149.2C208.12 147.904 215.272 146.128 221.848 144.4L221.176 138.976C218.824 139.552 216.424 140.08 214.072 140.608V125.392ZM245.992 121.888V116.128H219.832V121.888H225.496C224.44 127.744 223 134.128 221.752 138.544L227.752 139.456C228.04 138.352 228.328 137.104 228.664 135.808H239.368C238.552 145.792 237.544 150.496 236.152 151.696C235.576 152.272 234.904 152.32 233.896 152.32C232.504 152.32 229.384 152.32 226.264 152.032C227.368 153.712 228.184 156.208 228.328 157.936C231.352 158.08 234.376 158.08 236.104 157.888C238.312 157.696 239.8 157.168 241.192 155.584C243.304 153.328 244.408 147.328 245.464 132.832C245.56 132.112 245.608 130.288 245.608 130.288H229.864C230.44 127.552 231.016 124.672 231.544 121.888H245.992ZM275.56 116.128C278.2 121.168 281.8 126.448 285.592 130.864H259.672C263.464 126.544 266.824 121.264 269.176 115.744L263.032 113.968C260.152 121.264 254.872 127.888 248.872 131.92C250.264 132.928 252.712 135.232 253.768 136.528C255.064 135.52 256.36 134.368 257.608 133.072V136.432H265.72C264.76 143.44 262.264 149.728 251.416 153.232C252.808 154.528 254.488 156.88 255.208 158.512C267.64 153.856 270.76 145.648 271.96 136.432H281.416C280.984 146.464 280.456 150.736 279.496 151.744C278.968 152.32 278.44 152.416 277.576 152.416C276.376 152.416 273.88 152.368 271.24 152.176C272.248 153.808 273.016 156.208 273.112 157.936C275.944 158.032 278.728 158.032 280.36 157.792C282.232 157.552 283.528 157.072 284.728 155.536C286.408 153.52 286.984 147.856 287.512 133.36V133.024C288.568 134.128 289.576 135.184 290.584 136.096C291.688 134.464 293.896 132.16 295.432 130.96C290.2 126.928 284.2 119.968 281.176 113.872L275.56 116.128ZM341.032 116.896H322.984V113.344H317.032V116.896H299.32V121.696H341.032V116.896ZM310.552 127.744H329.848V130.48H310.552V127.744ZM335.896 134.416V123.856H304.84V134.416H335.896ZM341.752 144.64H325.672C329.848 143.104 333.784 141.184 337.048 139.216L333.496 136.096L332.2 136.336H303.352V140.8H324.472C322.984 141.472 321.352 142.096 319.768 142.624H317.08V144.64H298.648V149.488H317.08V152.752C317.08 153.472 316.792 153.664 315.832 153.712C315.016 153.712 311.272 153.712 308.488 153.568C309.256 154.912 310.072 156.784 310.456 158.272C314.632 158.272 317.8 158.272 320.008 157.648C322.312 156.976 323.128 155.824 323.128 152.992V149.488H341.752V144.64Z" fill="#2ABAF3" fill-opacity="0.85"/>
</svg>
