<svg width="1510" height="48" viewBox="0 0 1510 48" fill="none" xmlns="http://www.w3.org/2000/svg">
<line x1="1086.92" y1="5.51848" x2="1096.37" y2="17.19" stroke="#F2CFD9" stroke-width="7" stroke-linecap="round"/>
<line x1="1151.06" y1="5.83342" x2="1160.51" y2="17.5049" stroke="#F2CFD9" stroke-width="7" stroke-linecap="round"/>
<line x1="1215.19" y1="6.14837" x2="1224.64" y2="17.8199" stroke="#F2CFD9" stroke-width="7" stroke-linecap="round"/>
<line x1="1279.33" y1="6.46379" x2="1288.78" y2="18.1353" stroke="#F2CFD9" stroke-width="7" stroke-linecap="round"/>
<line x1="1343.46" y1="6.77874" x2="1352.91" y2="18.4502" stroke="#F2CFD9" stroke-width="7" stroke-linecap="round"/>
<line x1="1407.6" y1="7.09417" x2="1417.05" y2="18.7657" stroke="#F2CFD9" stroke-width="7" stroke-linecap="round"/>
<line x1="1471.73" y1="7.40911" x2="1481.18" y2="19.0806" stroke="#F2CFD9" stroke-width="7" stroke-linecap="round"/>
<line x1="1106.6" y1="29.4208" x2="1116.05" y2="41.0923" stroke="#F2CFD9" stroke-width="7" stroke-linecap="round"/>
<line x1="1170.74" y1="29.7358" x2="1180.19" y2="41.4073" stroke="#F2CFD9" stroke-width="7" stroke-linecap="round"/>
<line x1="1234.88" y1="30.0512" x2="1244.32" y2="41.7227" stroke="#F2CFD9" stroke-width="7" stroke-linecap="round"/>
<line x1="1299.01" y1="30.3661" x2="1308.46" y2="42.0376" stroke="#F2CFD9" stroke-width="7" stroke-linecap="round"/>
<line x1="1363.15" y1="30.6811" x2="1372.59" y2="42.3526" stroke="#F2CFD9" stroke-width="7" stroke-linecap="round"/>
<line x1="1427.28" y1="30.996" x2="1436.73" y2="42.6675" stroke="#F2CFD9" stroke-width="7" stroke-linecap="round"/>
<line x1="1491.42" y1="31.3115" x2="1500.86" y2="42.9829" stroke="#F2CFD9" stroke-width="7" stroke-linecap="round"/>
<line x1="1108.55" y1="18.7796" x2="1120.22" y2="9.33253" stroke="#F2CFD9" stroke-width="7" stroke-linecap="round"/>
<line x1="1172.69" y1="19.0946" x2="1184.36" y2="9.64748" stroke="#F2CFD9" stroke-width="7" stroke-linecap="round"/>
<line x1="1236.82" y1="19.41" x2="1248.49" y2="9.9629" stroke="#F2CFD9" stroke-width="7" stroke-linecap="round"/>
<line x1="1300.96" y1="19.7249" x2="1312.63" y2="10.2778" stroke="#F2CFD9" stroke-width="7" stroke-linecap="round"/>
<line x1="1365.09" y1="20.0399" x2="1376.76" y2="10.5928" stroke="#F2CFD9" stroke-width="7" stroke-linecap="round"/>
<line x1="1429.23" y1="20.3553" x2="1440.9" y2="10.9082" stroke="#F2CFD9" stroke-width="7" stroke-linecap="round"/>
<line x1="1493.36" y1="20.6703" x2="1505.03" y2="11.2232" stroke="#F2CFD9" stroke-width="7" stroke-linecap="round"/>
<line x1="1083.15" y1="37.8309" x2="1094.82" y2="28.3838" stroke="#F2CFD9" stroke-width="7" stroke-linecap="round"/>
<line x1="1147.28" y1="38.1463" x2="1158.96" y2="28.6992" stroke="#F2CFD9" stroke-width="7" stroke-linecap="round"/>
<line x1="1211.42" y1="38.4613" x2="1223.09" y2="29.0142" stroke="#F2CFD9" stroke-width="7" stroke-linecap="round"/>
<line x1="1275.56" y1="38.7762" x2="1287.23" y2="29.3291" stroke="#F2CFD9" stroke-width="7" stroke-linecap="round"/>
<line x1="1339.69" y1="39.0912" x2="1351.36" y2="29.6441" stroke="#F2CFD9" stroke-width="7" stroke-linecap="round"/>
<line x1="1403.83" y1="39.4066" x2="1415.5" y2="29.9595" stroke="#F2CFD9" stroke-width="7" stroke-linecap="round"/>
<line x1="1467.96" y1="39.7215" x2="1479.63" y2="30.2744" stroke="#F2CFD9" stroke-width="7" stroke-linecap="round"/>
<line x1="8.92252" y1="5.51848" x2="18.3696" y2="17.19" stroke="#F2CFD9" stroke-width="7" stroke-linecap="round"/>
<line x1="73.0581" y1="5.83342" x2="82.5052" y2="17.5049" stroke="#F2CFD9" stroke-width="7" stroke-linecap="round"/>
<line x1="137.193" y1="6.14837" x2="146.64" y2="17.8199" stroke="#F2CFD9" stroke-width="7" stroke-linecap="round"/>
<line x1="201.328" y1="6.46379" x2="210.775" y2="18.1353" stroke="#F2CFD9" stroke-width="7" stroke-linecap="round"/>
<line x1="265.464" y1="6.77874" x2="274.911" y2="18.4502" stroke="#F2CFD9" stroke-width="7" stroke-linecap="round"/>
<line x1="329.598" y1="7.09417" x2="339.045" y2="18.7657" stroke="#F2CFD9" stroke-width="7" stroke-linecap="round"/>
<line x1="393.734" y1="7.40911" x2="403.181" y2="19.0806" stroke="#F2CFD9" stroke-width="7" stroke-linecap="round"/>
<line x1="28.6048" y1="29.4208" x2="38.0519" y2="41.0923" stroke="#F2CFD9" stroke-width="7" stroke-linecap="round"/>
<line x1="92.7401" y1="29.7358" x2="102.187" y2="41.4073" stroke="#F2CFD9" stroke-width="7" stroke-linecap="round"/>
<line x1="156.875" y1="30.0512" x2="166.322" y2="41.7227" stroke="#F2CFD9" stroke-width="7" stroke-linecap="round"/>
<line x1="221.01" y1="30.3661" x2="230.457" y2="42.0376" stroke="#F2CFD9" stroke-width="7" stroke-linecap="round"/>
<line x1="285.146" y1="30.6811" x2="294.593" y2="42.3526" stroke="#F2CFD9" stroke-width="7" stroke-linecap="round"/>
<line x1="349.281" y1="30.996" x2="358.728" y2="42.6675" stroke="#F2CFD9" stroke-width="7" stroke-linecap="round"/>
<line x1="413.416" y1="31.3115" x2="422.863" y2="42.9829" stroke="#F2CFD9" stroke-width="7" stroke-linecap="round"/>
<line x1="30.5517" y1="18.7796" x2="42.2232" y2="9.33253" stroke="#F2CFD9" stroke-width="7" stroke-linecap="round"/>
<line x1="94.6863" y1="19.0946" x2="106.358" y2="9.64748" stroke="#F2CFD9" stroke-width="7" stroke-linecap="round"/>
<line x1="158.822" y1="19.41" x2="170.493" y2="9.9629" stroke="#F2CFD9" stroke-width="7" stroke-linecap="round"/>
<line x1="222.957" y1="19.7249" x2="234.629" y2="10.2778" stroke="#F2CFD9" stroke-width="7" stroke-linecap="round"/>
<line x1="287.092" y1="20.0399" x2="298.763" y2="10.5928" stroke="#F2CFD9" stroke-width="7" stroke-linecap="round"/>
<line x1="351.227" y1="20.3553" x2="362.899" y2="10.9082" stroke="#F2CFD9" stroke-width="7" stroke-linecap="round"/>
<line x1="415.362" y1="20.6703" x2="427.034" y2="11.2232" stroke="#F2CFD9" stroke-width="7" stroke-linecap="round"/>
<line x1="5.14995" y1="37.8309" x2="16.8214" y2="28.3838" stroke="#F2CFD9" stroke-width="7" stroke-linecap="round"/>
<line x1="69.2846" y1="38.1463" x2="80.9561" y2="28.6992" stroke="#F2CFD9" stroke-width="7" stroke-linecap="round"/>
<line x1="133.42" y1="38.4613" x2="145.091" y2="29.0142" stroke="#F2CFD9" stroke-width="7" stroke-linecap="round"/>
<line x1="197.555" y1="38.7762" x2="209.227" y2="29.3291" stroke="#F2CFD9" stroke-width="7" stroke-linecap="round"/>
<line x1="261.69" y1="39.0912" x2="273.361" y2="29.6441" stroke="#F2CFD9" stroke-width="7" stroke-linecap="round"/>
<line x1="325.825" y1="39.4066" x2="337.497" y2="29.9595" stroke="#F2CFD9" stroke-width="7" stroke-linecap="round"/>
<line x1="389.961" y1="39.7215" x2="401.632" y2="30.2744" stroke="#F2CFD9" stroke-width="7" stroke-linecap="round"/>
</svg>
