<svg width="504" height="82" viewBox="0 0 504 82" fill="none" xmlns="http://www.w3.org/2000/svg">
<path d="M64.725 28.12C62.685 35.005 59.88 41.295 56.565 46.99C55.12 40.19 53.93 32.2 53.165 23.7H79.43V13.67H70.59L74.67 9.335C71.695 6.52999 65.49 2.61999 60.815 0.239994L54.695 6.275C58.18 8.4 62.43 11.12 65.575 13.67H52.57C52.4 9.505 52.315 5.33999 52.4 1.09H41.775C41.775 5.33999 41.945 9.505 42.115 13.67H7.435V38.49C7.435 49.54 6.84 64.33 0.38 74.53C2.675 75.72 7.18 79.46 8.965 81.415C15.935 71.045 17.72 54.47 18.06 42.06H29.11C28.855 52.77 28.515 56.85 27.665 58.04C26.985 58.89 26.305 59.06 25.115 59.06C23.755 59.06 20.865 58.975 17.805 58.72C19.335 61.27 20.44 65.18 20.61 68.155C24.52 68.24 28.175 68.24 30.385 67.9C32.935 67.475 34.635 66.71 36.25 64.5C38.205 62.035 38.715 54.47 38.97 36.62C38.97 35.43 39.055 32.795 39.055 32.795H18.06V23.7H42.71C43.815 36.45 45.685 48.35 48.575 57.955C43.645 63.48 37.78 68.155 31.235 71.725C33.36 73.68 37.015 77.845 38.545 80.055C43.815 76.825 48.575 73 52.91 68.495C56.65 75.465 61.325 79.715 67.275 79.715C75.18 79.715 78.58 75.975 80.195 60.25C77.475 59.145 73.905 56.935 71.61 54.555C71.185 65.18 70.165 69.43 68.125 69.43C65.405 69.43 62.685 65.86 60.22 59.74C66.34 51.495 71.355 41.635 74.84 30.585L64.725 28.12ZM163.24 34.24V23.785H129.835C130.685 15.88 130.77 8.06 130.855 1.09H119.805C119.72 8.06 119.805 15.795 118.955 23.785H88.015V34.24H117.255C113.94 48.86 105.865 62.97 86.4 71.64C89.375 73.765 92.35 77.42 93.965 80.225C111.985 71.555 121.165 58.295 125.755 44.1C132.385 60.505 142.245 72.915 157.63 80.14C159.245 77.25 162.56 72.745 165.11 70.62C149.215 64.16 138.93 50.815 133.32 34.24H163.24ZM215.94 68.07V50.985H241.355V41.21H215.94V26.25H244.585V16.39H215.94V1.09H205.315V16.39H192.225C193.67 12.48 195.03 8.48499 196.22 4.405L185.765 2.11C182.875 13.67 177.35 25.4 170.72 32.54C173.27 33.9 177.775 36.96 179.815 38.575C182.62 35.26 185.255 30.925 187.72 26.25H205.315V41.21H182.28V50.985H205.315V68.07H172.505V78.015H248.92V68.07H215.94ZM281.73 10.61C278.075 8.23 270.68 4.49 265.92 2.11L260.225 9.42C265.155 12.225 272.38 16.22 275.695 18.77L281.73 10.61ZM277.65 33.56C273.91 31.265 266.345 27.61 261.67 25.315L256.23 32.795C261.245 35.515 268.555 39.51 272.04 41.975L277.65 33.56ZM265.92 79.46C271.105 71.215 276.46 61.525 280.965 52.6L273.57 45.8C268.47 55.66 261.925 66.2 257.42 72.575L265.92 79.46ZM321.085 67.73H295.585V55.235H321.085V67.73ZM334.94 35.345V25.655H313.35V14.01C319.98 12.735 326.355 11.035 331.795 8.995L324.06 1.00499C314.71 4.745 298.73 7.55 284.28 8.995C285.47 11.29 286.83 15.2 287.255 17.665C292.525 17.155 298.22 16.56 303.745 15.71V25.655H281.135V35.345H303.745V46.055H286.405V80.395H295.585V76.91H321.085V79.97H330.69V46.055H313.35V35.345H334.94ZM386.45 5.935C391.125 14.86 397.5 24.21 404.215 32.03H358.315C365.03 24.38 370.98 15.03 375.145 5.255L364.265 2.11C359.165 15.03 349.815 26.76 339.19 33.9C341.655 35.685 345.99 39.765 347.86 42.06C350.155 40.275 352.45 38.235 354.66 35.94V41.89H369.025C367.325 54.3 362.905 65.435 343.695 71.64C346.16 73.935 349.135 78.1 350.41 80.99C372.425 72.745 377.95 58.21 380.075 41.89H396.82C396.055 59.655 395.12 67.22 393.42 69.005C392.485 70.025 391.55 70.195 390.02 70.195C387.895 70.195 383.475 70.11 378.8 69.77C380.585 72.66 381.945 76.91 382.115 79.97C387.13 80.14 392.06 80.14 394.95 79.715C398.265 79.29 400.56 78.44 402.685 75.72C405.66 72.15 406.68 62.12 407.615 36.45V35.855C409.485 37.81 411.27 39.68 413.055 41.295C415.01 38.405 418.92 34.325 421.64 32.2C412.375 25.06 401.75 12.735 396.395 1.94L386.45 5.935ZM502.39 7.29499H470.43V1.00499H459.89V7.29499H428.525V15.795H502.39V7.29499ZM448.415 26.505H482.585V31.35H448.415V26.505ZM493.295 38.32V19.62H438.3V38.32H493.295ZM503.665 56.425H475.19C482.585 53.705 489.555 50.305 495.335 46.82L489.045 41.295L486.75 41.72H435.665V49.625H473.065C470.43 50.815 467.54 51.92 464.735 52.855H459.975V56.425H427.335V65.01H459.975V70.79C459.975 72.065 459.465 72.405 457.765 72.49C456.32 72.49 449.69 72.49 444.76 72.235C446.12 74.615 447.565 77.93 448.245 80.565C455.64 80.565 461.25 80.565 465.16 79.46C469.24 78.27 470.685 76.23 470.685 71.215V65.01H503.665V56.425Z" fill="#2ABAF3" fill-opacity="0.85"/>
</svg>
