<svg width="338" height="80" viewBox="0 0 338 80" fill="none" xmlns="http://www.w3.org/2000/svg">
<path d="M38.0163 71.1084C41.4163 63.4584 43.2013 54.7034 44.0513 46.4584C46.3463 52.3234 49.1513 57.6784 52.5513 62.2684C48.3013 66.0934 43.3713 69.0684 38.0163 71.1084ZM52.6363 21.3834V33.1984H44.7313V32.0084V21.3834H52.6363ZM65.8113 42.0384C64.1113 46.7984 61.8163 51.1334 59.0963 54.9584C56.1213 51.1334 53.7413 46.7134 51.8713 42.0384H65.8113ZM71.3363 32.8584L69.6363 33.1984H62.4113V21.3834H69.2963C68.6163 24.5284 67.9363 27.5884 67.3413 29.8834L75.9263 31.5834C77.5413 26.9084 79.3263 19.6834 80.6863 13.3084L73.4613 11.9484L71.9313 12.2034H62.4113V0.388376H52.6363V12.2034H35.2113V31.9234V35.1534L29.6863 31.1584C28.4963 33.4534 26.6263 36.5134 24.8413 39.1484L22.9713 36.9384C26.7963 31.1584 30.1113 24.7834 32.4913 18.3234L27.2213 14.7534L25.5213 15.1784H21.6113V0.473375H12.0063V15.1784H2.31625V24.1884H20.5063C15.5763 33.5384 7.84125 42.6334 0.0212501 47.7334C1.46625 49.6034 3.76125 54.4484 4.52625 57.0834C7.07625 55.2134 9.62625 52.9184 12.0913 50.3684V79.5234H21.6963V47.2234C23.9063 50.4534 26.0313 53.6834 27.3063 56.0634L33.0863 49.3484C32.3213 48.4134 30.7063 46.3734 28.8363 44.0784C30.7913 41.7834 33.0013 38.9784 35.2113 36.1734C34.9563 48.1584 33.3413 63.4584 24.9263 74.3384C27.2213 75.2734 31.3863 77.8234 33.0863 79.4384C34.9563 76.9734 36.5713 74.2534 37.8463 71.3634C39.9713 73.4034 42.3513 77.0584 43.6263 79.5234C49.4063 76.9734 54.6763 73.8284 59.1813 69.7484C63.6863 73.9134 69.0413 77.2284 75.2463 79.6084C76.6913 76.8884 79.6663 72.8934 81.9613 70.8534C75.8413 68.8984 70.5713 66.0084 66.1513 62.2684C71.5913 55.1284 75.6713 46.2034 77.9663 35.0684L71.3363 32.8584ZM98.7063 14.5834H152.511V22.9134H162.371V6.08337H131.006V0.303378H120.891V6.08337H89.3563V22.9134H98.7063V14.5834ZM109.841 49.0084C113.921 46.3734 117.661 43.3984 120.891 40.3384V48.1584H130.411V40.0834H131.091C134.576 43.3984 138.826 46.3734 143.331 49.0084H109.841ZM130.326 70.1734V66.0084H143.841V70.1734H130.326ZM108.056 66.0084H120.891V70.1734H108.056V66.0084ZM120.891 59.8884H108.056V55.8934H120.891V59.8884ZM143.841 59.8884H130.326V55.8934H143.841V59.8884ZM120.891 31.9234H111.711C111.201 30.0534 110.181 27.6734 108.906 25.7184C112.816 25.6334 116.896 25.5484 120.891 25.2934V31.9234ZM130.411 31.9234V24.7834C134.831 24.4434 139.166 24.0184 143.161 23.5934C142.396 25.9734 140.866 29.2884 139.506 31.9234H130.411ZM163.646 40.0834V31.9234H149.366C150.556 30.1384 151.916 28.0984 153.361 25.9734L143.331 23.5084C145.796 23.2534 148.091 22.9134 150.301 22.5734L145.116 15.8584C134.236 17.5584 116.301 18.6634 101.001 19.0034C101.851 20.7034 102.786 23.5934 103.041 25.5484L99.4713 26.2284C100.491 27.9284 101.426 30.0534 102.106 31.9234H88.3363V40.0834H108.056C101.426 44.3334 93.0963 47.9034 85.3613 50.1134C87.4863 51.9834 90.3763 55.6384 91.8213 58.1034C94.0312 57.3384 96.2413 56.3184 98.5363 55.2984V79.3534H108.056V77.1434H143.841V79.0984H153.786V54.1084C155.911 54.9584 157.951 55.7234 160.076 56.3184C161.436 53.8534 164.156 50.2834 166.281 48.3284C158.631 46.6284 150.641 43.7384 144.096 40.0834H163.646ZM205.211 47.6484L192.886 50.4534V19.9384H204.276V10.2484H172.061V19.9384H182.856V52.6634C178.266 53.6834 174.016 54.6184 170.616 55.2984L172.996 65.7534C182.346 63.2034 194.756 59.8034 206.231 56.6584L205.211 47.6484ZM233.516 24.9534C231.731 34.0484 229.096 41.6134 225.271 47.9034C221.531 41.1884 218.726 33.4534 216.856 24.9534H233.516ZM250.346 24.9534V15.2634H219.916C221.361 11.0134 222.636 6.50837 223.741 2.08837L213.796 0.0483758C210.566 14.4134 204.786 28.6084 197.051 37.1084C199.516 38.3834 203.851 41.4434 205.721 43.1434C207.251 41.1884 208.696 39.0634 210.056 36.8534C212.351 44.1634 215.071 50.7934 218.556 56.6584C212.436 62.8634 204.446 67.2834 194.076 70.4284C195.861 72.6384 198.581 77.3134 199.431 79.6934C209.716 76.1234 217.961 71.2784 224.506 65.0734C229.861 71.2784 236.406 76.2084 244.736 79.6934C246.351 76.8884 249.411 72.6384 251.706 70.5984C243.376 67.6234 236.831 62.8634 231.476 56.8284C237.511 48.4134 241.506 37.8734 244.141 24.9534H250.346ZM300.581 48.1584C304.661 45.7784 308.571 43.0584 312.226 39.9984C315.711 43.0584 319.621 45.8634 323.871 48.1584H300.581ZM303.216 67.9634V56.9984H320.641V67.9634H303.216ZM288.851 26.9084C290.466 28.4384 292.081 30.0534 292.931 31.1584C295.056 29.3734 297.181 27.2484 299.221 24.8684C301.006 27.6734 303.131 30.5634 305.511 33.2834C300.496 37.5334 294.716 41.0184 288.851 43.5684V26.9084ZM277.036 54.2784V37.2784H281.286V54.2784H277.036ZM266.751 37.2784H270.746V54.2784H266.751V37.2784ZM270.746 13.9034V28.9484H266.751V13.9034H270.746ZM281.286 28.9484H277.036V13.9034H281.286V28.9484ZM319.536 17.0484C317.496 20.6184 314.946 24.0184 312.056 27.1634C309.081 24.1034 306.701 20.8734 304.746 17.7284L305.256 17.0484H319.536ZM326.081 8.20838L324.381 8.63338H310.186C311.206 6.67838 312.141 4.72338 312.906 2.68338L303.386 0.0483758C300.326 8.03837 295.056 15.7734 288.851 21.2984V5.23337H259.441V69.9184H266.751V62.9484H288.851V48.1584C289.956 49.6884 291.061 51.3034 291.741 52.5784L293.866 51.6434V79.5234H303.216V76.8034H320.641V79.4384H330.501V51.3034L331.096 51.5584C332.541 49.0934 335.516 45.0134 337.556 43.0584C330.586 40.9334 324.381 37.4484 319.111 33.4534C324.891 27.2484 329.566 19.8534 332.711 11.4384L326.081 8.20838Z" fill="#2ABAF3" fill-opacity="0.85"/>
</svg>
