<svg width="328" height="102" viewBox="0 0 328 102" fill="none" xmlns="http://www.w3.org/2000/svg">
<rect x="75.1834" y="69.7568" width="217" height="17" rx="8.5" fill="#FFE3B8" fill-opacity="0.35"/>
<path d="M91.1314 61.2288C90.7794 64.9248 90.1634 68.8408 88.8874 71.4368C89.9434 71.8328 91.8354 72.6688 92.7154 73.2848C93.9474 70.4688 94.9154 66.1128 95.3114 61.9328L91.1314 61.2288ZM100.811 62.1528C101.735 64.5728 102.571 67.7408 102.747 69.8088L106.619 68.5768C106.355 66.5088 105.475 63.4288 104.463 61.0528L100.811 62.1528ZM112.207 49.9208H123.999V52.2528H112.207V49.9208ZM112.207 43.8928H123.999V46.1368H112.207V43.8928ZM126.595 57.3128C125.583 58.6328 124.087 60.2608 122.591 61.6688C121.755 60.0408 121.139 58.3248 120.655 56.6528V56.2568H128.927V39.8448H119.863C120.523 38.7448 121.183 37.5128 121.799 36.2808L115.903 35.4448C115.551 36.7648 114.979 38.3928 114.363 39.8448H107.499V56.2568H115.991V60.1288L113.351 59.0728L112.559 59.2048H106.707L107.191 58.9848C106.663 56.5208 104.991 52.6488 103.275 49.6568L99.5794 51.1968C100.063 52.0768 100.547 53.0448 100.987 54.0128L97.1594 54.2328C99.9314 50.7128 102.923 46.3568 105.343 42.6608L101.075 40.6808C100.063 42.8368 98.6554 45.3448 97.1154 47.8088C96.7194 47.2808 96.2354 46.6648 95.7074 46.0928C97.3354 43.6288 99.1394 40.1528 100.679 37.1168L96.1474 35.5328C95.4434 37.7768 94.2114 40.7248 92.9794 43.1448C92.6274 42.8368 92.2754 42.5288 91.9674 42.2208L89.4154 45.7408C91.1754 47.5448 93.1994 49.9208 94.4314 51.9008C93.7714 52.8248 93.1114 53.7048 92.4514 54.4968L89.2834 54.6728L89.8114 59.2048L95.9274 58.7208V76.5848H100.415V58.3688L102.615 58.1928C102.879 59.1608 103.143 60.0408 103.275 60.7888L106.355 59.3808V63.4728H110.623C109.171 66.9928 106.795 69.6768 103.803 71.3048C104.771 72.0088 106.399 73.8128 107.059 74.7808C111.151 72.2728 114.363 67.6528 115.991 60.9648V71.5248C115.991 72.0088 115.859 72.1408 115.287 72.1408C114.803 72.1408 113.175 72.1408 111.679 72.0968C112.251 73.3728 112.735 75.2208 112.911 76.5408C115.595 76.5408 117.487 76.4968 118.895 75.7488C120.303 75.0448 120.655 73.8128 120.655 71.5688V66.5528C122.415 69.8088 124.923 72.8448 128.355 74.7808C129.015 73.5048 130.511 71.4808 131.435 70.5568C128.663 69.3248 126.507 67.4328 124.791 65.2768C126.683 63.9128 128.795 62.1088 130.819 60.4368L126.595 57.3128ZM160.211 69.1488V53.9248H175.743V48.6008H160.211V36.0168H154.579V69.1488H138.827V74.4288H178.823V69.1488H160.211ZM200.603 39.3168C198.403 38.2608 194.223 36.8528 191.319 36.1488L189.031 39.7128C192.067 40.5928 196.203 42.1768 198.227 43.2768L200.603 39.3168ZM198.095 64.1328H217.147V66.0688H198.095V64.1328ZM198.095 59.2928H217.147V61.1848H198.095V59.2928ZM198.095 54.4528H217.147V56.3448H198.095V54.4528ZM205.223 51.3288C209.271 50.1848 211.735 48.6448 213.275 46.5768C214.595 48.4688 216.619 50.0968 220.007 51.3288H205.223ZM222.471 69.1928V52.0768C223.351 52.2968 224.319 52.4728 225.375 52.6488C225.859 51.3728 227.003 49.3488 227.971 48.3808C219.083 47.3248 216.575 44.9048 215.651 42.0888H220.535C219.963 43.0128 219.347 43.8488 218.819 44.5088L222.867 45.7848C224.319 44.1568 225.903 41.5168 227.047 39.1408L223.571 38.2608L222.779 38.3928H209.799C210.239 37.6888 210.591 36.9848 210.943 36.2368L206.323 35.4888C205.179 38.0408 203.023 40.9448 199.855 43.1448C201.043 43.6288 202.847 44.6848 203.771 45.6088C205.135 44.5088 206.279 43.3208 207.291 42.0888H210.459C209.491 45.2128 207.159 47.1048 200.163 48.2488L199.723 44.2888C195.059 45.3888 190.351 46.4888 187.095 47.1048L189.031 51.6808C192.331 50.7568 196.423 49.5688 200.207 48.4688L200.163 48.2928C200.867 48.9968 201.703 50.2728 202.231 51.3288H193.035V69.1928H199.503C196.467 70.6888 191.671 72.0968 187.403 72.8888C188.503 73.8128 190.351 75.7048 191.275 76.7168C195.719 75.4848 201.351 73.3288 205.003 70.9528L200.999 69.1928H213.847L209.887 71.4808C214.331 73.1528 218.819 75.2208 221.327 76.6728L227.399 74.3408C224.407 72.8888 219.347 70.7768 214.859 69.1928H222.471ZM247.771 40.0648C246.143 38.6128 242.931 36.8088 240.423 35.7528L237.475 39.5808C240.027 40.7688 243.151 42.7928 244.647 44.2448L247.771 40.0648ZM245.615 51.6808C244.031 50.2288 240.819 48.5568 238.267 47.5448L235.407 51.3728C237.915 52.5608 241.039 54.4088 242.491 55.8608L245.615 51.6808ZM242.095 59.0288C240.247 64.1768 237.739 69.7648 235.935 73.1968L240.731 76.0128C242.667 71.6568 244.735 66.5968 246.363 61.8888L242.095 59.0288ZM255.999 63.7368C255.031 66.6408 253.359 69.7648 251.335 71.7008C252.479 72.3608 254.415 73.5928 255.383 74.3848C257.407 72.0528 259.431 68.4008 260.619 64.8368L255.999 63.7368ZM259.871 55.8168H270.035V58.2368H259.871V55.8168ZM259.871 49.8768H270.035V52.2968H259.871V49.8768ZM274.875 61.9768V46.1368H266.911C267.263 44.9928 267.615 43.7608 268.055 42.4848H276.107V37.7768H248.651V49.9208C248.651 57.0488 248.211 66.9928 243.283 73.8128C244.559 74.3848 246.759 75.7488 247.683 76.5848C252.919 69.3248 253.711 57.6648 253.711 49.9208V42.4848H262.247C262.115 43.6288 261.895 44.9488 261.719 46.1368H255.251V61.9768H262.203V71.4808C262.203 71.9648 262.027 72.0968 261.543 72.0968C261.015 72.0968 259.211 72.0968 257.715 72.0528C258.243 73.3288 258.815 75.1768 259.035 76.5408C261.763 76.5848 263.787 76.4968 265.327 75.7928C266.867 75.0888 267.175 73.8568 267.175 71.6128V61.9768H274.875ZM268.407 65.0128C270.079 67.7848 271.795 71.4808 272.455 73.8568L277.207 71.7888C276.459 69.4128 274.611 65.8488 272.895 63.2088L268.407 65.0128Z" fill="#2ABAF3" fill-opacity="0.85"/>
<path d="M295.183 19.9959L308.632 7.9525" stroke="#2ABAF3" stroke-opacity="0.85" stroke-width="10" stroke-linecap="round" stroke-linejoin="round"/>
<path d="M302.175 35.7416L320.183 37.0018" stroke="#2ABAF3" stroke-opacity="0.85" stroke-width="10" stroke-linecap="round" stroke-linejoin="round"/>
<path fill-rule="evenodd" clip-rule="evenodd" d="M25.9204 76.4814C21.8904 73.2776 19.5264 68.7998 17.1142 64.2463C14.5346 59.377 10.2643 54.5401 11.4381 49.1444C12.6098 43.7583 18.0025 40.3363 22.8746 37.7669C26.9181 35.6346 31.6886 37.164 36.1353 36.1205C41.4781 34.8667 46.0324 29.9105 51.3882 31.0756C57.1752 32.3345 62.3767 36.8069 64.5836 42.3093C66.7578 47.7305 64.6237 53.7939 62.7191 59.3276C61.0359 64.2179 57.7539 68.0415 54.3782 71.9598C50.5084 76.4516 47.5101 82.8362 41.6659 83.7648C35.8041 84.6962 30.5609 80.1706 25.9204 76.4814Z" fill="url(#paint0_linear)"/>
<defs>
<linearGradient id="paint0_linear" x1="24.3627" y1="76.8233" x2="50.7141" y2="29.8421" gradientUnits="userSpaceOnUse">
<stop stop-color="#97D3F1"/>
<stop offset="0.9999" stop-color="#EDE3D8"/>
<stop offset="1" stop-color="#EDE3D8"/>
</linearGradient>
</defs>
</svg>
