<svg width="334" height="708" viewBox="0 0 334 708" fill="none" xmlns="http://www.w3.org/2000/svg">
<mask id="mask0" mask-type="alpha" maskUnits="userSpaceOnUse" x="171" y="149" width="375" height="424">
<path fill-rule="evenodd" clip-rule="evenodd" d="M343.883 151.202C381.974 153.044 414.338 170.798 447.301 188.812C482.552 208.077 528.474 219.282 541.783 259.353C555.067 299.353 533.821 346.352 512.611 385.462C495.008 417.92 458.644 430.26 434.268 457.605C404.981 490.46 395.004 543.409 356.306 560.804C314.492 579.599 264.027 575.058 228.717 550.001C193.927 525.313 184.177 476.498 175.005 432.148C166.898 392.954 173.117 353.179 179.568 312.363C186.963 265.572 181.494 210.683 215.239 177.586C249.085 144.39 300.021 149.08 343.883 151.202Z" fill="url(#paint0_linear)"/>
</mask>
<g mask="url(#mask0)">
<line x1="329.819" y1="208.601" x2="326.198" y2="216.984" stroke="#F2CFD9" stroke-opacity="0.6" stroke-width="6" stroke-linecap="round"/>
<line x1="321.546" y1="228.208" x2="317.925" y2="236.592" stroke="#F2CFD9" stroke-opacity="0.6" stroke-width="6" stroke-linecap="round"/>
<line x1="329.116" y1="224.908" x2="337.5" y2="228.528" stroke="#F2CFD9" stroke-opacity="0.6" stroke-width="6" stroke-linecap="round"/>
<line x1="309.415" y1="215.52" x2="317.798" y2="219.141" stroke="#F2CFD9" stroke-opacity="0.6" stroke-width="6" stroke-linecap="round"/>
<line x1="329.682" y1="254.666" x2="338.066" y2="258.287" stroke="#F2CFD9" stroke-opacity="0.6" stroke-width="6" stroke-linecap="round"/>
<line x1="300.72" y1="238.172" x2="297.1" y2="246.555" stroke="#F2CFD9" stroke-opacity="0.6" stroke-width="6" stroke-linecap="round"/>
<line x1="320.988" y1="277.319" x2="317.368" y2="285.702" stroke="#F2CFD9" stroke-opacity="0.6" stroke-width="6" stroke-linecap="round"/>
<line x1="341.256" y1="316.464" x2="337.635" y2="324.848" stroke="#F2CFD9" stroke-opacity="0.6" stroke-width="6" stroke-linecap="round"/>
<line x1="292.447" y1="257.78" x2="288.827" y2="266.163" stroke="#F2CFD9" stroke-opacity="0.6" stroke-width="6" stroke-linecap="round"/>
<line x1="312.715" y1="296.926" x2="309.095" y2="305.309" stroke="#F2CFD9" stroke-opacity="0.6" stroke-width="6" stroke-linecap="round"/>
<line x1="332.983" y1="336.072" x2="329.362" y2="344.456" stroke="#F2CFD9" stroke-opacity="0.6" stroke-width="6" stroke-linecap="round"/>
<line x1="300.018" y1="254.478" x2="308.401" y2="258.099" stroke="#F2CFD9" stroke-opacity="0.6" stroke-width="6" stroke-linecap="round"/>
<line x1="320.286" y1="293.625" x2="328.669" y2="297.245" stroke="#F2CFD9" stroke-opacity="0.6" stroke-width="6" stroke-linecap="round"/>
<line x1="280.316" y1="245.092" x2="288.699" y2="248.712" stroke="#F2CFD9" stroke-opacity="0.6" stroke-width="6" stroke-linecap="round"/>
<line x1="300.584" y1="284.238" x2="308.967" y2="287.858" stroke="#F2CFD9" stroke-opacity="0.6" stroke-width="6" stroke-linecap="round"/>
<line x1="320.852" y1="323.385" x2="329.235" y2="327.005" stroke="#F2CFD9" stroke-opacity="0.6" stroke-width="6" stroke-linecap="round"/>
<line x1="259.668" y1="244.93" x2="256.047" y2="253.314" stroke="#F2CFD9" stroke-opacity="0.6" stroke-width="6" stroke-linecap="round"/>
<line x1="279.936" y1="284.077" x2="276.315" y2="292.46" stroke="#F2CFD9" stroke-opacity="0.6" stroke-width="6" stroke-linecap="round"/>
<line x1="300.204" y1="323.223" x2="296.583" y2="331.606" stroke="#F2CFD9" stroke-opacity="0.6" stroke-width="6" stroke-linecap="round"/>
<line x1="320.471" y1="362.369" x2="316.85" y2="370.753" stroke="#F2CFD9" stroke-opacity="0.6" stroke-width="6" stroke-linecap="round"/>
<line x1="340.739" y1="401.516" x2="337.118" y2="409.9" stroke="#F2CFD9" stroke-opacity="0.6" stroke-width="6" stroke-linecap="round"/>
<line x1="251.395" y1="264.538" x2="247.774" y2="272.921" stroke="#F2CFD9" stroke-opacity="0.6" stroke-width="6" stroke-linecap="round"/>
<line x1="271.663" y1="303.684" x2="268.042" y2="312.068" stroke="#F2CFD9" stroke-opacity="0.6" stroke-width="6" stroke-linecap="round"/>
<line x1="291.93" y1="342.831" x2="288.309" y2="351.214" stroke="#F2CFD9" stroke-opacity="0.6" stroke-width="6" stroke-linecap="round"/>
<line x1="312.198" y1="381.977" x2="308.577" y2="390.361" stroke="#F2CFD9" stroke-opacity="0.6" stroke-width="6" stroke-linecap="round"/>
<line x1="332.465" y1="421.123" x2="328.845" y2="429.507" stroke="#F2CFD9" stroke-opacity="0.6" stroke-width="6" stroke-linecap="round"/>
<line x1="258.965" y1="261.237" x2="267.349" y2="264.858" stroke="#F2CFD9" stroke-opacity="0.6" stroke-width="6" stroke-linecap="round"/>
<line x1="279.233" y1="300.383" x2="287.616" y2="304.004" stroke="#F2CFD9" stroke-opacity="0.6" stroke-width="6" stroke-linecap="round"/>
<line x1="299.501" y1="339.53" x2="307.884" y2="343.151" stroke="#F2CFD9" stroke-opacity="0.6" stroke-width="6" stroke-linecap="round"/>
<line x1="319.769" y1="378.677" x2="328.152" y2="382.297" stroke="#F2CFD9" stroke-opacity="0.6" stroke-width="6" stroke-linecap="round"/>
<line x1="239.264" y1="251.85" x2="247.647" y2="255.471" stroke="#F2CFD9" stroke-opacity="0.6" stroke-width="6" stroke-linecap="round"/>
<line x1="259.531" y1="290.996" x2="267.915" y2="294.617" stroke="#F2CFD9" stroke-opacity="0.6" stroke-width="6" stroke-linecap="round"/>
<line x1="279.799" y1="330.143" x2="288.183" y2="333.764" stroke="#F2CFD9" stroke-opacity="0.6" stroke-width="6" stroke-linecap="round"/>
<line x1="300.067" y1="369.289" x2="308.45" y2="372.91" stroke="#F2CFD9" stroke-opacity="0.6" stroke-width="6" stroke-linecap="round"/>
<line x1="320.334" y1="408.435" x2="328.718" y2="412.056" stroke="#F2CFD9" stroke-opacity="0.6" stroke-width="6" stroke-linecap="round"/>
<line x1="230.569" y1="274.502" x2="226.949" y2="282.885" stroke="#F2CFD9" stroke-opacity="0.6" stroke-width="6" stroke-linecap="round"/>
<line x1="250.837" y1="313.648" x2="247.217" y2="322.031" stroke="#F2CFD9" stroke-opacity="0.6" stroke-width="6" stroke-linecap="round"/>
<line x1="271.105" y1="352.794" x2="267.484" y2="361.178" stroke="#F2CFD9" stroke-opacity="0.6" stroke-width="6" stroke-linecap="round"/>
<line x1="291.373" y1="391.94" x2="287.752" y2="400.324" stroke="#F2CFD9" stroke-opacity="0.6" stroke-width="6" stroke-linecap="round"/>
<line x1="311.64" y1="431.087" x2="308.02" y2="439.471" stroke="#F2CFD9" stroke-opacity="0.6" stroke-width="6" stroke-linecap="round"/>
<line x1="331.908" y1="470.234" x2="328.287" y2="478.617" stroke="#F2CFD9" stroke-opacity="0.6" stroke-width="6" stroke-linecap="round"/>
<line x1="222.296" y1="294.109" x2="218.676" y2="302.493" stroke="#F2CFD9" stroke-opacity="0.6" stroke-width="6" stroke-linecap="round"/>
<line x1="242.564" y1="333.255" x2="238.943" y2="341.639" stroke="#F2CFD9" stroke-opacity="0.6" stroke-width="6" stroke-linecap="round"/>
<line x1="262.832" y1="372.403" x2="259.211" y2="380.786" stroke="#F2CFD9" stroke-opacity="0.6" stroke-width="6" stroke-linecap="round"/>
<line x1="283.099" y1="411.548" x2="279.479" y2="419.931" stroke="#F2CFD9" stroke-opacity="0.6" stroke-width="6" stroke-linecap="round"/>
<line x1="303.367" y1="450.695" x2="299.747" y2="459.078" stroke="#F2CFD9" stroke-opacity="0.6" stroke-width="6" stroke-linecap="round"/>
<line x1="323.635" y1="489.842" x2="320.014" y2="498.225" stroke="#F2CFD9" stroke-opacity="0.6" stroke-width="6" stroke-linecap="round"/>
<line x1="229.867" y1="290.808" x2="238.251" y2="294.429" stroke="#F2CFD9" stroke-opacity="0.6" stroke-width="6" stroke-linecap="round"/>
<line x1="250.135" y1="329.955" x2="258.518" y2="333.576" stroke="#F2CFD9" stroke-opacity="0.6" stroke-width="6" stroke-linecap="round"/>
<line x1="270.403" y1="369.101" x2="278.786" y2="372.722" stroke="#F2CFD9" stroke-opacity="0.6" stroke-width="6" stroke-linecap="round"/>
<line x1="290.67" y1="408.248" x2="299.054" y2="411.868" stroke="#F2CFD9" stroke-opacity="0.6" stroke-width="6" stroke-linecap="round"/>
<line x1="310.938" y1="447.393" x2="319.321" y2="451.014" stroke="#F2CFD9" stroke-opacity="0.6" stroke-width="6" stroke-linecap="round"/>
<line x1="331.206" y1="486.541" x2="339.589" y2="490.161" stroke="#F2CFD9" stroke-opacity="0.6" stroke-width="6" stroke-linecap="round"/>
<line x1="210.165" y1="281.421" x2="218.548" y2="285.042" stroke="#F2CFD9" stroke-opacity="0.6" stroke-width="6" stroke-linecap="round"/>
<line x1="230.433" y1="320.567" x2="238.816" y2="324.188" stroke="#F2CFD9" stroke-opacity="0.6" stroke-width="6" stroke-linecap="round"/>
<line x1="250.7" y1="359.714" x2="259.084" y2="363.335" stroke="#F2CFD9" stroke-opacity="0.6" stroke-width="6" stroke-linecap="round"/>
<line x1="270.968" y1="398.86" x2="279.352" y2="402.481" stroke="#F2CFD9" stroke-opacity="0.6" stroke-width="6" stroke-linecap="round"/>
<line x1="291.236" y1="438.007" x2="299.619" y2="441.627" stroke="#F2CFD9" stroke-opacity="0.6" stroke-width="6" stroke-linecap="round"/>
<line x1="311.504" y1="477.153" x2="319.887" y2="480.774" stroke="#F2CFD9" stroke-opacity="0.6" stroke-width="6" stroke-linecap="round"/>
<line x1="331.772" y1="516.3" x2="340.155" y2="519.92" stroke="#F2CFD9" stroke-opacity="0.6" stroke-width="6" stroke-linecap="round"/>
<line x1="189.517" y1="281.26" x2="185.897" y2="289.644" stroke="#F2CFD9" stroke-opacity="0.6" stroke-width="6" stroke-linecap="round"/>
<line x1="209.785" y1="320.407" x2="206.164" y2="328.79" stroke="#F2CFD9" stroke-opacity="0.6" stroke-width="6" stroke-linecap="round"/>
<line x1="230.052" y1="359.553" x2="226.432" y2="367.937" stroke="#F2CFD9" stroke-opacity="0.6" stroke-width="6" stroke-linecap="round"/>
<line x1="250.32" y1="398.7" x2="246.699" y2="407.083" stroke="#F2CFD9" stroke-opacity="0.6" stroke-width="6" stroke-linecap="round"/>
<line x1="270.588" y1="437.846" x2="266.967" y2="446.229" stroke="#F2CFD9" stroke-opacity="0.6" stroke-width="6" stroke-linecap="round"/>
<line x1="290.855" y1="476.992" x2="287.235" y2="485.375" stroke="#F2CFD9" stroke-opacity="0.6" stroke-width="6" stroke-linecap="round"/>
<line x1="311.123" y1="516.138" x2="307.503" y2="524.522" stroke="#F2CFD9" stroke-opacity="0.6" stroke-width="6" stroke-linecap="round"/>
<line x1="181.244" y1="300.868" x2="177.623" y2="309.251" stroke="#F2CFD9" stroke-opacity="0.6" stroke-width="6" stroke-linecap="round"/>
<line x1="201.512" y1="340.015" x2="197.891" y2="348.398" stroke="#F2CFD9" stroke-opacity="0.6" stroke-width="6" stroke-linecap="round"/>
<line x1="221.779" y1="379.161" x2="218.159" y2="387.544" stroke="#F2CFD9" stroke-opacity="0.6" stroke-width="6" stroke-linecap="round"/>
<line x1="242.047" y1="418.307" x2="238.426" y2="426.69" stroke="#F2CFD9" stroke-opacity="0.6" stroke-width="6" stroke-linecap="round"/>
<line x1="262.315" y1="457.454" x2="258.694" y2="465.837" stroke="#F2CFD9" stroke-opacity="0.6" stroke-width="6" stroke-linecap="round"/>
<line x1="282.583" y1="496.6" x2="278.962" y2="504.984" stroke="#F2CFD9" stroke-opacity="0.6" stroke-width="6" stroke-linecap="round"/>
<line x1="302.85" y1="535.747" x2="299.23" y2="544.13" stroke="#F2CFD9" stroke-opacity="0.6" stroke-width="6" stroke-linecap="round"/>
<line x1="188.815" y1="297.567" x2="197.198" y2="301.188" stroke="#F2CFD9" stroke-opacity="0.6" stroke-width="6" stroke-linecap="round"/>
<line x1="209.082" y1="336.714" x2="217.465" y2="340.334" stroke="#F2CFD9" stroke-opacity="0.6" stroke-width="6" stroke-linecap="round"/>
<line x1="229.35" y1="375.86" x2="237.733" y2="379.481" stroke="#F2CFD9" stroke-opacity="0.6" stroke-width="6" stroke-linecap="round"/>
<line x1="249.618" y1="415.007" x2="258.001" y2="418.627" stroke="#F2CFD9" stroke-opacity="0.6" stroke-width="6" stroke-linecap="round"/>
<line x1="269.885" y1="454.153" x2="278.269" y2="457.773" stroke="#F2CFD9" stroke-opacity="0.6" stroke-width="6" stroke-linecap="round"/>
<line x1="290.153" y1="493.299" x2="298.536" y2="496.919" stroke="#F2CFD9" stroke-opacity="0.6" stroke-width="6" stroke-linecap="round"/>
<line x1="310.421" y1="532.445" x2="318.804" y2="536.066" stroke="#F2CFD9" stroke-opacity="0.6" stroke-width="6" stroke-linecap="round"/>
<line x1="169.113" y1="288.18" x2="177.496" y2="291.801" stroke="#F2CFD9" stroke-opacity="0.6" stroke-width="6" stroke-linecap="round"/>
<line x1="189.38" y1="327.326" x2="197.764" y2="330.947" stroke="#F2CFD9" stroke-opacity="0.6" stroke-width="6" stroke-linecap="round"/>
<line x1="209.648" y1="366.473" x2="218.032" y2="370.094" stroke="#F2CFD9" stroke-opacity="0.6" stroke-width="6" stroke-linecap="round"/>
<line x1="229.916" y1="405.619" x2="238.299" y2="409.24" stroke="#F2CFD9" stroke-opacity="0.6" stroke-width="6" stroke-linecap="round"/>
<line x1="250.183" y1="444.765" x2="258.567" y2="448.386" stroke="#F2CFD9" stroke-opacity="0.6" stroke-width="6" stroke-linecap="round"/>
<line x1="270.451" y1="483.911" x2="278.835" y2="487.532" stroke="#F2CFD9" stroke-opacity="0.6" stroke-width="6" stroke-linecap="round"/>
<line x1="290.719" y1="523.059" x2="299.102" y2="526.68" stroke="#F2CFD9" stroke-opacity="0.6" stroke-width="6" stroke-linecap="round"/>
<line x1="180.686" y1="349.979" x2="177.066" y2="358.362" stroke="#F2CFD9" stroke-opacity="0.6" stroke-width="6" stroke-linecap="round"/>
<line x1="200.954" y1="389.125" x2="197.334" y2="397.508" stroke="#F2CFD9" stroke-opacity="0.6" stroke-width="6" stroke-linecap="round"/>
<line x1="221.222" y1="428.272" x2="217.601" y2="436.655" stroke="#F2CFD9" stroke-opacity="0.6" stroke-width="6" stroke-linecap="round"/>
<line x1="241.49" y1="467.418" x2="237.869" y2="475.801" stroke="#F2CFD9" stroke-opacity="0.6" stroke-width="6" stroke-linecap="round"/>
<line x1="261.757" y1="506.564" x2="258.137" y2="514.948" stroke="#F2CFD9" stroke-opacity="0.6" stroke-width="6" stroke-linecap="round"/>
<line x1="282.025" y1="545.711" x2="278.404" y2="554.094" stroke="#F2CFD9" stroke-opacity="0.6" stroke-width="6" stroke-linecap="round"/>
<line x1="172.413" y1="369.587" x2="168.793" y2="377.97" stroke="#F2CFD9" stroke-opacity="0.6" stroke-width="6" stroke-linecap="round"/>
<line x1="192.681" y1="408.733" x2="189.06" y2="417.116" stroke="#F2CFD9" stroke-opacity="0.6" stroke-width="6" stroke-linecap="round"/>
<line x1="212.949" y1="447.879" x2="209.328" y2="456.262" stroke="#F2CFD9" stroke-opacity="0.6" stroke-width="6" stroke-linecap="round"/>
<line x1="233.216" y1="487.025" x2="229.596" y2="495.409" stroke="#F2CFD9" stroke-opacity="0.6" stroke-width="6" stroke-linecap="round"/>
<line x1="253.484" y1="526.172" x2="249.864" y2="534.556" stroke="#F2CFD9" stroke-opacity="0.6" stroke-width="6" stroke-linecap="round"/>
<line x1="273.752" y1="565.318" x2="270.131" y2="573.702" stroke="#F2CFD9" stroke-opacity="0.6" stroke-width="6" stroke-linecap="round"/>
<line x1="159.716" y1="327.138" x2="168.099" y2="330.759" stroke="#F2CFD9" stroke-opacity="0.6" stroke-width="6" stroke-linecap="round"/>
<line x1="179.984" y1="366.285" x2="188.367" y2="369.906" stroke="#F2CFD9" stroke-opacity="0.6" stroke-width="6" stroke-linecap="round"/>
<line x1="200.252" y1="405.431" x2="208.635" y2="409.052" stroke="#F2CFD9" stroke-opacity="0.6" stroke-width="6" stroke-linecap="round"/>
<line x1="220.519" y1="444.578" x2="228.903" y2="448.199" stroke="#F2CFD9" stroke-opacity="0.6" stroke-width="6" stroke-linecap="round"/>
<line x1="240.787" y1="483.725" x2="249.17" y2="487.346" stroke="#F2CFD9" stroke-opacity="0.6" stroke-width="6" stroke-linecap="round"/>
<line x1="261.055" y1="522.871" x2="269.438" y2="526.492" stroke="#F2CFD9" stroke-opacity="0.6" stroke-width="6" stroke-linecap="round"/>
<line x1="281.322" y1="562.017" x2="289.706" y2="565.638" stroke="#F2CFD9" stroke-opacity="0.6" stroke-width="6" stroke-linecap="round"/>
<line x1="160.282" y1="356.898" x2="168.665" y2="360.518" stroke="#F2CFD9" stroke-opacity="0.6" stroke-width="6" stroke-linecap="round"/>
<line x1="180.55" y1="396.044" x2="188.933" y2="399.665" stroke="#F2CFD9" stroke-opacity="0.6" stroke-width="6" stroke-linecap="round"/>
<line x1="200.818" y1="435.191" x2="209.201" y2="438.812" stroke="#F2CFD9" stroke-opacity="0.6" stroke-width="6" stroke-linecap="round"/>
<line x1="221.085" y1="474.337" x2="229.468" y2="477.958" stroke="#F2CFD9" stroke-opacity="0.6" stroke-width="6" stroke-linecap="round"/>
<line x1="241.353" y1="513.484" x2="249.736" y2="517.104" stroke="#F2CFD9" stroke-opacity="0.6" stroke-width="6" stroke-linecap="round"/>
<line x1="261.621" y1="552.63" x2="270.004" y2="556.251" stroke="#F2CFD9" stroke-opacity="0.6" stroke-width="6" stroke-linecap="round"/>
<line x1="180.169" y1="435.029" x2="176.548" y2="443.412" stroke="#F2CFD9" stroke-opacity="0.6" stroke-width="6" stroke-linecap="round"/>
<line x1="200.437" y1="474.175" x2="196.816" y2="482.558" stroke="#F2CFD9" stroke-opacity="0.6" stroke-width="6" stroke-linecap="round"/>
<line x1="220.705" y1="513.322" x2="217.084" y2="521.705" stroke="#F2CFD9" stroke-opacity="0.6" stroke-width="6" stroke-linecap="round"/>
<line x1="240.973" y1="552.468" x2="237.352" y2="560.851" stroke="#F2CFD9" stroke-opacity="0.6" stroke-width="6" stroke-linecap="round"/>
<line x1="171.896" y1="454.636" x2="168.276" y2="463.02" stroke="#F2CFD9" stroke-opacity="0.6" stroke-width="6" stroke-linecap="round"/>
<line x1="192.164" y1="493.783" x2="188.543" y2="502.167" stroke="#F2CFD9" stroke-opacity="0.6" stroke-width="6" stroke-linecap="round"/>
<line x1="212.432" y1="532.929" x2="208.811" y2="541.313" stroke="#F2CFD9" stroke-opacity="0.6" stroke-width="6" stroke-linecap="round"/>
<line x1="232.699" y1="572.075" x2="229.079" y2="580.459" stroke="#F2CFD9" stroke-opacity="0.6" stroke-width="6" stroke-linecap="round"/>
<line x1="159.199" y1="412.189" x2="167.582" y2="415.81" stroke="#F2CFD9" stroke-opacity="0.6" stroke-width="6" stroke-linecap="round"/>
<line x1="179.467" y1="451.335" x2="187.85" y2="454.956" stroke="#F2CFD9" stroke-opacity="0.6" stroke-width="6" stroke-linecap="round"/>
<line x1="199.735" y1="490.482" x2="208.118" y2="494.103" stroke="#F2CFD9" stroke-opacity="0.6" stroke-width="6" stroke-linecap="round"/>
<line x1="220.002" y1="529.629" x2="228.386" y2="533.249" stroke="#F2CFD9" stroke-opacity="0.6" stroke-width="6" stroke-linecap="round"/>
<line x1="240.27" y1="568.775" x2="248.653" y2="572.395" stroke="#F2CFD9" stroke-opacity="0.6" stroke-width="6" stroke-linecap="round"/>
<line x1="159.765" y1="441.949" x2="168.148" y2="445.569" stroke="#F2CFD9" stroke-opacity="0.6" stroke-width="6" stroke-linecap="round"/>
<line x1="180.033" y1="481.095" x2="188.416" y2="484.715" stroke="#F2CFD9" stroke-opacity="0.6" stroke-width="6" stroke-linecap="round"/>
<line x1="200.3" y1="520.241" x2="208.684" y2="523.862" stroke="#F2CFD9" stroke-opacity="0.6" stroke-width="6" stroke-linecap="round"/>
<line x1="220.568" y1="559.387" x2="228.952" y2="563.008" stroke="#F2CFD9" stroke-opacity="0.6" stroke-width="6" stroke-linecap="round"/>
<line x1="171.338" y1="503.747" x2="167.718" y2="512.131" stroke="#F2CFD9" stroke-opacity="0.6" stroke-width="6" stroke-linecap="round"/>
<line x1="191.606" y1="542.893" x2="187.985" y2="551.277" stroke="#F2CFD9" stroke-opacity="0.6" stroke-width="6" stroke-linecap="round"/>
<line x1="183.333" y1="562.501" x2="179.712" y2="570.885" stroke="#F2CFD9" stroke-opacity="0.6" stroke-width="6" stroke-linecap="round"/>
<line x1="170.636" y1="520.054" x2="179.019" y2="523.675" stroke="#F2CFD9" stroke-opacity="0.6" stroke-width="6" stroke-linecap="round"/>
<line x1="190.904" y1="559.2" x2="199.287" y2="562.821" stroke="#F2CFD9" stroke-opacity="0.6" stroke-width="6" stroke-linecap="round"/>
<line x1="171.202" y1="549.813" x2="179.585" y2="553.433" stroke="#F2CFD9" stroke-opacity="0.6" stroke-width="6" stroke-linecap="round"/>
</g>
<defs>
<linearGradient id="paint0_linear" x1="352.513" y1="141.775" x2="403.735" y2="560.899" gradientUnits="userSpaceOnUse">
<stop stop-color="#97D3F1"/>
<stop offset="0.9999" stop-color="#EDE3D8"/>
<stop offset="1" stop-color="#EDE3D8"/>
</linearGradient>
</defs>
</svg>
