<svg width="82" height="71" viewBox="0 0 82 71" fill="none" xmlns="http://www.w3.org/2000/svg">
<path d="M41 0C40.5071 6.33904e-05 40.0191 0.0981464 39.5642 0.288571C39.1094 0.478996 38.6967 0.75798 38.3501 1.10938L0.757102 33.9965C0.522317 34.1702 0.331493 34.3967 0.199992 34.6579C0.068491 34.919 -1.12105e-05 35.2075 1.37608e-09 35.5C1.37608e-09 35.9955 0.196347 36.4708 0.545846 36.8212C0.895346 37.1716 1.36937 37.3684 1.86364 37.3684H11.1818V67.2632C11.1818 69.3259 12.8516 71 14.9091 71H29.8182C31.8756 71 33.5455 69.3259 33.5455 67.2632V44.8421H48.4545V67.2632C48.4545 69.3259 50.1244 71 52.1818 71H67.0909C69.1484 71 70.8182 69.3259 70.8182 67.2632V37.3684H80.1364C80.6306 37.3684 81.1047 37.1716 81.4542 36.8212C81.8037 36.4708 82 35.9955 82 35.5C82 35.2075 81.9315 34.919 81.8 34.6579C81.6685 34.3967 81.4777 34.1702 81.2429 33.9965L43.6717 1.13127C43.6644 1.12394 43.6572 1.11664 43.6499 1.10938C43.3033 0.75798 42.8906 0.478996 42.4358 0.288571C41.9809 0.0981464 41.4929 6.33904e-05 41 0Z" fill="#2ABAF3" fill-opacity="0.85"/>
</svg>
