<svg width="69" height="53" viewBox="0 0 69 53" fill="none" xmlns="http://www.w3.org/2000/svg">
<path d="M3.49416 0.000378594C3.03764 -0.00671591 2.5844 0.085962 2.16076 0.273026C1.73712 0.460089 1.35154 0.737808 1.02643 1.09004C0.70132 1.44228 0.443158 1.862 0.26695 2.32483C0.0907409 2.78765 0 3.28434 0 3.78604C0 4.28773 0.0907409 4.78443 0.26695 5.24725C0.443158 5.71007 0.70132 6.1298 1.02643 6.48203C1.35154 6.83427 1.73712 7.11199 2.16076 7.29905C2.5844 7.48612 3.03764 7.57879 3.49416 7.5717H65.5058C65.9624 7.57879 66.4156 7.48612 66.8392 7.29905C67.2629 7.11199 67.6485 6.83427 67.9736 6.48203C68.2987 6.1298 68.5568 5.71007 68.7331 5.24725C68.9093 4.78443 69 4.28773 69 3.78604C69 3.28434 68.9093 2.78765 68.7331 2.32483C68.5568 1.862 68.2987 1.44228 67.9736 1.09004C67.6485 0.737808 67.2629 0.460089 66.8392 0.273026C66.4156 0.085962 65.9624 -0.00671591 65.5058 0.000378594H3.49416ZM3.49416 22.7143C3.03764 22.7072 2.5844 22.7999 2.16076 22.987C1.73712 23.174 1.35154 23.4518 1.02643 23.804C0.70132 24.1562 0.443158 24.576 0.26695 25.0388C0.0907409 25.5016 0 25.9983 0 26.5C0 27.0017 0.0907409 27.4984 0.26695 27.9612C0.443158 28.424 0.70132 28.8438 1.02643 29.196C1.35154 29.5482 1.73712 29.826 2.16076 30.013C2.5844 30.2001 3.03764 30.2928 3.49416 30.2857H65.5058C65.9624 30.2928 66.4156 30.2001 66.8392 30.013C67.2629 29.826 67.6485 29.5482 67.9736 29.196C68.2987 28.8438 68.5568 28.424 68.7331 27.9612C68.9093 27.4984 69 27.0017 69 26.5C69 25.9983 68.9093 25.5016 68.7331 25.0388C68.5568 24.576 68.2987 24.1562 67.9736 23.804C67.6485 23.4518 67.2629 23.174 66.8392 22.987C66.4156 22.7999 65.9624 22.7072 65.5058 22.7143H3.49416ZM3.49416 45.4283C3.03764 45.4212 2.5844 45.5139 2.16076 45.7009C1.73712 45.888 1.35154 46.1657 1.02643 46.518C0.70132 46.8702 0.443158 47.2899 0.26695 47.7527C0.0907409 48.2156 0 48.7123 0 49.214C0 49.7157 0.0907409 50.2123 0.26695 50.6752C0.443158 51.138 0.70132 51.5577 1.02643 51.91C1.35154 52.2622 1.73712 52.5399 2.16076 52.727C2.5844 52.914 3.03764 53.0067 3.49416 52.9996H65.5058C65.9624 53.0067 66.4156 52.914 66.8392 52.727C67.2629 52.5399 67.6485 52.2622 67.9736 51.91C68.2987 51.5577 68.5568 51.138 68.7331 50.6752C68.9093 50.2123 69 49.7157 69 49.214C69 48.7123 68.9093 48.2156 68.7331 47.7527C68.5568 47.2899 68.2987 46.8702 67.9736 46.518C67.6485 46.1657 67.2629 45.888 66.8392 45.7009C66.4156 45.5139 65.9624 45.4212 65.5058 45.4283H3.49416Z" fill="#4AC4F3"/>
</svg>
