<svg width="74" height="97" viewBox="0 0 74 97" fill="none" xmlns="http://www.w3.org/2000/svg">
<path d="M37 0C21.6274 0 9.25 12.3615 9.25 27.7143V32.3333C4.1625 32.3333 0 36.4905 0 41.5714V87.7619C0 92.8429 4.1625 97 9.25 97H64.75C69.8375 97 74 92.8429 74 87.7619V41.5714C74 36.4905 69.8375 32.3333 64.75 32.3333V27.7143C64.75 12.3615 52.3726 0 37 0ZM37 9.2381C47.5274 9.2381 55.5 17.2005 55.5 27.7143V32.3333H18.5V27.7143C18.5 17.2005 26.4726 9.2381 37 9.2381ZM37 55.4286C42.0875 55.4286 46.25 59.5857 46.25 64.6667C46.25 69.7476 42.0875 73.9048 37 73.9048C31.9125 73.9048 27.75 69.7476 27.75 64.6667C27.75 59.5857 31.9125 55.4286 37 55.4286Z" fill="#C9E9F7"/>
</svg>
