<svg width="540" height="440" viewBox="0 0 540 440" fill="none" xmlns="http://www.w3.org/2000/svg">
<path d="M415.261 279.132C413.13 282.029 410.765 284.84 408.506 287.651C403.318 294.099 397.616 300.117 391.456 305.646C390.454 306.455 386.789 310.097 385.574 310.097C384.977 309.692 384.764 309.5 384.764 309.096C384.764 309.096 392.266 295.317 393.076 293.89C399.469 281.922 410.53 256.601 411.34 243.824C411.5 243.601 411.717 243.426 411.968 243.318C412.22 243.209 412.496 243.17 412.768 243.206C414.899 243.206 428.39 248.488 431.224 249.914C432.652 250.511 435.486 251.725 435.486 253.556C435.486 255.387 430.009 257.198 428.773 257.602C426.642 261.201 424.511 264.843 422.38 268.506C420.23 272.192 417.853 275.741 415.261 279.132ZM417.819 365.594V399.05C425.321 396.409 432.737 393.768 440.324 390.744C438.294 386.209 435.854 381.868 433.036 377.775C432.822 377.158 432.226 376.753 432.226 375.944C432.226 375.539 433.632 375.539 433.845 375.539C434.847 375.539 440.729 379.585 441.752 380.203C448.657 384.654 462.851 397.24 462.851 405.928C462.851 411.21 460.208 418.11 453.921 418.11C444.182 418.11 444.587 406.546 443.265 400.264C442.904 398.676 442.427 397.117 441.837 395.6C430.286 404.736 418.714 413.85 407.568 423.583L397.423 403.309C401.281 400.668 402.304 399.859 402.304 395.004V326.473C402.304 323.045 401.686 318.572 401.686 314.931C401.473 312.695 400.258 310.48 400.258 308.244C400.258 307.222 401.068 307.009 402.091 307.009C404.222 307.009 416.093 311.886 418.714 312.695H443.287C443.691 312.29 448.572 305.816 449.382 305.816C451.193 305.816 464.982 314.335 464.982 316.741C464.982 318.871 460.72 320.809 459.313 321.618V355.074C459.313 359.716 459.931 364.593 460.315 369.257C455.065 370.723 449.716 371.805 444.309 372.494L444.906 365.594H417.819ZM444.991 319.999H419.63L417.819 322.64V333.778H444.991V319.999ZM444.991 358.524V341.082H417.819V358.524H444.991ZM422.486 281.07C426.131 281.07 435.06 286.543 438.108 288.992C439.372 289.804 440.42 290.911 441.162 292.216C441.905 293.522 442.319 294.988 442.37 296.489C442.37 300.535 439.131 306.625 434.677 306.625C433.795 306.604 432.927 306.405 432.125 306.039C431.322 305.673 430.603 305.148 430.009 304.496C425.96 301.472 427.153 293.571 425.15 288.907C423.725 286.614 422.437 284.239 421.293 281.794C421.271 281.283 421.975 281.07 422.486 281.07ZM487.594 272.36H517.004C518.219 271.146 524.314 263.246 525.934 263.246C528.172 263.246 536.078 272.147 537.293 273.574C538.58 274.582 539.446 276.031 539.723 277.642C539.723 278.189 539.514 278.715 539.137 279.111C538.76 279.508 538.245 279.744 537.698 279.771H482.927C477.31 287.772 470.882 295.172 463.746 301.855C462.936 302.686 460.293 305.497 459.079 305.497C458.839 305.47 458.62 305.35 458.468 305.162C458.316 304.975 458.245 304.736 458.269 304.496C458.791 302.617 459.611 300.834 460.698 299.214C464.961 290.909 468.605 282.795 472.058 274.085C474.704 267.908 476.745 261.489 478.153 254.919C478.345 253.3 478.749 251.49 478.963 249.659C479.154 248.637 478.963 243.568 480.582 243.568C483.012 243.568 498.015 249.659 500.466 251.277C501.276 252.087 502.597 253.109 502.597 254.323C502.597 255.941 497.333 258.177 496.204 258.582C493.284 263.033 490.428 267.696 487.594 272.36ZM492.048 313.504H509.353H492.048ZM492.048 320.532L490.237 323.577V415.149C490.237 421.219 490.855 427.501 491.238 433.592C485.703 435.185 480.082 436.465 474.402 437.425C474.807 429.737 475.617 421.836 475.617 414.127V331.755C475.519 326.461 475.114 321.178 474.402 315.932C474.21 313.93 472.569 309.543 472.569 308.436C472.569 307.328 473.997 307.009 474.7 307.009C476.533 307.009 489.619 312.503 491.942 313.398L492.048 320.532ZM511.122 320.489H491.942H511.122ZM509.353 313.504C510.184 312.503 515.044 306.008 516.663 306.008C518.283 306.008 532.903 316.145 532.903 317.55C532.903 318.956 527 322.64 526.403 323.236V394.386C526.474 397.456 526.13 400.522 525.38 403.501C523.249 410.613 510.462 412.637 504.281 413.659C503.684 406.951 502.47 403.117 496.587 399.859C495.778 399.263 492.112 397.836 492.112 396.622C492.112 395.408 492.922 395.195 493.945 395.195C497.589 395.195 501.255 396.004 504.899 396.004C508.948 396.004 511.293 395.004 511.293 390.744V320.532L509.353 313.504ZM493.028 281.006C495.266 281.006 499.933 283.647 501.958 284.456C506.22 286.586 513.744 290.547 513.744 296.212C513.744 300.684 510.696 307.775 505.624 307.775C503.749 307.71 501.956 306.995 500.551 305.752C496.076 302.302 498.42 292.166 493.242 285.266C492.837 284.456 491.409 282.838 491.409 282.029C491.409 281.219 492.304 281.07 492.858 281.07L493.028 281.006Z" fill="white"/>
<path d="M81.9867 22.2116C81.7236 18.4731 80.8452 14.8035 79.3866 11.3507C78.9331 10.5528 78.6569 9.66671 78.5768 8.75261C78.87 8.28152 79.2881 7.9008 79.7846 7.6527C80.2812 7.4046 80.8369 7.29881 81.3899 7.34708C84.608 7.34708 93.2607 9.75352 96.6705 10.5628C98.8017 11.1591 105.323 12.6924 105.323 15.7803C105.323 18.1867 101.892 20.6144 100.294 21.807C100.08 27.6421 99.6968 33.6688 99.6968 39.6956C99.6968 44.9131 100.294 49.9389 100.485 55.1564H126.827C127.637 54.1555 134.478 45.3177 136.694 45.3177C137.407 45.3552 138.103 45.555 138.727 45.902C139.351 46.2489 139.888 46.7338 140.296 47.3195L149.183 57.1795C150.268 58.2016 151.012 59.5325 151.314 60.9915C151.29 61.4829 151.096 61.9509 150.766 62.3158C150.436 62.6807 149.99 62.9201 149.503 62.9933H101.487C102.028 74.0651 103.374 85.0829 105.515 95.9594L112.356 124.091C117.91 112.674 121.642 100.459 123.417 87.8883C123.887 85.6378 124.158 83.3503 124.227 81.0523C124.196 80.4496 124.26 79.8458 124.419 79.2634C126.55 79.2634 143.322 86.0994 145.134 87.292C145.944 87.8883 147.137 88.8892 147.137 90.103C147.137 91.7002 143.514 93.7234 142.512 94.5326L137.078 110.739C133.263 122.068 127.04 132.525 121.009 142.683C122.82 146.282 133.071 163.382 136.076 163.382C139.081 163.382 144.324 148.092 144.921 146.899C146.135 143.875 147.542 140.66 148.949 137.444C149.14 136.848 149.758 136.848 150.355 136.848C150.952 136.848 151.357 137.657 151.357 138.253C150.355 146.09 149.545 153.735 148.949 161.679C148.757 164.298 148.352 166.896 148.352 169.707C148.352 175.734 151.762 181.569 151.762 187.596C151.762 191.855 149.353 192.217 145.539 192.217C137.888 192.217 118.984 171.922 114.572 165.895L108.541 157.59C101.305 165.02 93.2798 171.639 84.608 177.331C80.2039 180.24 75.6356 182.892 70.9258 185.275C68.5493 186.57 66.0598 187.646 63.488 188.49C63.1985 188.508 62.9131 188.415 62.6909 188.228C62.4687 188.042 62.3268 187.777 62.2945 187.489C62.327 187.087 62.4514 186.697 62.6584 186.35C62.8653 186.003 63.1491 185.708 63.488 185.487C70.6876 179.669 77.474 173.357 83.7982 166.598C88.3813 161.853 92.6526 156.816 96.5853 151.52L102.297 143.577C98.6952 134.164 95.0722 124.688 92.4508 114.998C87.6343 97.9612 86.6114 80.4347 85.013 62.9507H42.6237L40.8122 65.0803C40.6204 75.3237 40.2155 93.4039 40.0023 103.86H64.7028C65.5126 103.051 68.9651 89.7836 70.1373 89.7836C71.8547 90.2075 73.4848 90.9282 74.9538 91.9132C76.3603 92.7224 86.6114 98.1316 86.6114 100.751C86.6114 103.37 82.9883 105.777 81.1981 107.395C80.985 124.07 82.1998 142.938 76.1685 158.825C73.1423 166.662 59.865 169.068 52.7255 170.069C51.937 163.255 51.1271 159.421 44.8827 155.609C44.0942 155.205 39.4482 152.798 39.4482 151.797C39.4482 150.796 40.663 150.392 41.5794 150.392C45.3942 150.392 49.4222 151.584 53.6419 151.584C55.383 151.809 57.1473 151.408 58.6193 150.452C60.0912 149.496 61.1749 148.048 61.6765 146.367C63.8077 141.149 64.4897 109.184 64.7028 103.775H39.9597C38.958 127.073 39.7679 152.202 25.7021 172.284C23.2725 175.691 20.8643 179.12 18.0511 182.336C14.7003 186.627 10.6944 190.364 6.18042 193.41C4.98696 193.814 4.58203 193.197 4.58203 192.6C6.02441 189.361 7.7728 186.266 9.80343 183.358C14.0582 175.678 17.1738 167.421 19.0528 158.846C24.2742 136.549 23.3151 104.584 23.3151 82.2874C23.3151 73.7691 23.1233 65.0164 22.5266 56.5833C22.1217 54.1555 20.3954 49.3426 20.3954 48.3204C20.3954 46.9362 22.5266 46.9362 23.4217 46.9362C27.2365 46.9362 42.3253 53.7509 45.1385 55.1564H84.1392C83.6064 44.1038 82.3916 33.2642 81.9867 22.2116ZM110.822 14.5664C120.455 14.5664 138.953 20.6144 138.953 32.6679C138.953 38.2901 135.948 43.7205 129.512 43.7205C118.046 43.7205 121.264 27.2375 114.423 20.9978C113.422 20.2098 109.202 16.9941 109.202 15.9932C109.2 15.7886 109.242 15.5859 109.326 15.399C109.409 15.2121 109.532 15.0453 109.685 14.91C109.839 14.7746 110.02 14.6739 110.216 14.6146C110.412 14.5553 110.619 14.5389 110.822 14.5664Z" fill="white"/>
<path d="M69.2848 372.984H39.9384V379.096C33.8336 380.775 27.6446 382.133 21.3971 383.163C23.2299 364.444 22.825 345.299 22.825 326.367C22.825 322.896 22.825 319.446 22.6119 315.974C22.5886 313.378 22.0376 310.813 20.9922 308.436C20.5351 307.48 20.2604 306.447 20.1823 305.39C20.1823 304.368 20.5873 303.751 21.802 303.751C25.6808 303.751 42.6024 311.098 44.4139 311.098H115.34C116.959 309.671 121.243 303.751 123.481 303.751C125.719 303.751 137.547 311.907 139.998 313.525C140.594 313.738 141.425 314.548 141.425 315.165C141.425 316.784 135.906 320.873 134.904 321.873V354.243C134.904 361.59 135.501 369.321 135.906 376.859C129.605 379.286 123.138 381.258 116.555 382.758L117.364 372.984H87.2081V391.511H133.05C134.073 390.51 143.045 380.309 143.706 380.309C145.326 380.309 155.108 391.319 156.749 392.938C157.668 393.71 158.249 394.81 158.368 396.005C158.368 397.623 156.536 398.645 155.108 398.645H87.2081V413.297C87.2081 419.813 88.018 426.948 88.4442 433.464C81.635 435.793 74.6883 437.699 67.6438 439.171C68.2619 432.442 69.2848 424.264 69.2848 417.875V398.709H11.4018L7.94932 401.35L0 390.297C4.88041 390.702 9.99526 391.511 14.9183 391.511C33.0547 391.937 51.1484 391.511 69.3275 391.511L69.2848 372.984ZM31.9678 300.088C26.4693 301.323 20.7577 302.537 15.2593 303.559C15.6642 297.042 16.2823 290.121 16.2823 283.605V267.526C16.2823 263.65 15.8773 259.583 15.6642 255.494C15.4724 253.066 14.2363 249.595 14.2363 248.573C14.2794 248.121 14.4927 247.703 14.833 247.402C15.1733 247.102 15.6152 246.942 16.0691 246.954C18.3282 246.954 32.1809 253.343 33.6088 253.876H53.2796C53.8764 253.258 59.183 247.146 60.6109 247.146C62.7421 247.146 73.0357 254.685 74.8686 256.112C75.6784 256.516 76.9997 257.538 76.9997 258.561C76.9997 260.69 72.5242 263.033 71.0964 263.863V279.537C71.0964 285.436 71.7144 291.74 72.1193 297.66L54.3879 302.345L55.0059 294.593H31.9678V300.088ZM55.0059 287.459V261.01H35.058L32.6071 263.437V287.459H55.0059ZM69.2635 345.704V318.211L43.1778 318.423L39.9171 321.873V345.704H69.2635ZM69.2635 365.871V345.704H39.9384V365.871H69.2635ZM104.108 300.492C98.3968 301.919 92.8984 303.154 87.1868 304.177C87.5917 297.447 88.4229 290.717 88.4229 284.009V267.526C88.4229 263.267 87.8048 258.752 87.5917 254.28C87.3999 252.449 86.3769 250.404 86.3769 248.573C86.3816 248.343 86.4339 248.117 86.5305 247.909C86.6271 247.7 86.7659 247.514 86.9381 247.362C87.1104 247.21 87.3123 247.095 87.5312 247.025C87.7501 246.955 87.9811 246.931 88.2098 246.954C90.6606 246.954 103.703 253.066 105.728 253.876H125.74C126.763 252.853 131.452 247.146 133.071 247.146C135.202 247.146 145.304 254.685 147.35 256.112C148.16 256.516 149.588 257.538 149.588 258.561C149.588 260.69 145.112 263.033 143.685 263.863V280.346C143.685 286.245 144.281 292.357 144.708 298.256C138.783 300.088 132.872 301.72 126.976 303.154L127.573 294.636H104.13L104.108 300.492ZM117.343 345.704V318.211H90.8737C90.5147 318.946 90.109 319.657 89.659 320.34L87.2081 321.362V345.789L117.343 345.704ZM117.343 345.704H87.2081V365.871H117.364L117.343 345.704ZM127.53 287.459V261.01H106.772L104.13 263.437V287.459H127.53Z" fill="white"/>
<path d="M260.26 382.482V361.313H232.001V366.339C226.521 368.362 220.78 369.589 214.951 369.981C215.356 362.932 216.166 355.457 216.166 348.408V309.479C216.268 306.744 215.959 304.009 215.25 301.365C214.845 299.96 212.415 294.508 212.415 294.103C212.415 293.294 213.033 293.081 213.63 293.081C219.086 293.081 233.216 299.342 238.266 301.77H260.26V280.474H208.387L203.145 283.903L195.877 272.616C200.523 273.02 205.361 273.808 210.007 273.808H260.26V260.711C260.26 257.474 260.26 254.45 260.069 251.213C259.546 248.679 258.834 246.187 257.937 243.76C257.912 243.595 257.926 243.426 257.978 243.267C258.03 243.108 258.119 242.964 258.237 242.846C258.355 242.727 258.5 242.639 258.659 242.587C258.818 242.535 258.987 242.521 259.152 242.546C263.798 242.546 283.98 249.403 283.98 252.236C283.98 254.365 278.12 257.283 277.118 258.092V273.681H317.27C317.674 273.084 325.56 262.181 327.776 262.181C328.991 262.181 331.612 265.013 332.422 265.822C333.637 267.228 342.716 275.895 342.716 278.6C342.644 279.112 342.387 279.58 341.995 279.917C341.603 280.254 341.102 280.437 340.585 280.431H277.225V301.727H302.458C302.841 300.918 308.105 293.039 309.725 293.039C311.728 293.039 322.64 300.705 324.643 301.919C325.453 302.537 327.67 303.942 327.67 304.943C327.67 306.774 322.427 311.012 321.425 312.013V343.063C321.425 350.325 322.022 357.8 322.427 365.061C316.535 367.577 310.37 369.399 304.056 370.492L304.866 361.228H277.161V382.396H321.916C322.32 381.8 329.993 371.748 331.804 371.748C333.616 371.748 336.45 374.985 337.26 376.008C338.475 377.221 346.552 384.888 346.552 387.294C346.552 388.317 345.337 389.126 344.122 389.126H277.225V409.698C277.225 416.747 278.013 424.222 278.418 431.27C272.165 433.446 265.752 435.133 259.237 436.318C259.429 428.055 260.239 419.771 260.239 411.508V389.147L260.26 382.482ZM260.239 328.219V308.457H233.599L231.979 311.289V328.326L260.239 328.219ZM260.239 354.648V334.885H232.001V354.605L260.239 354.648ZM304.845 328.219V308.457H277.139V328.219H304.845ZM304.845 354.648V334.885H277.139V354.605L304.845 354.648Z" fill="white"/>
<path d="M447.72 22.8079C447.72 24.3199 447.72 25.9171 447.72 27.4504H466.73C466.964 23.0422 467.263 18.6339 467.476 14.2044C469.095 12.9905 474.146 9.9452 474.146 7.8156C474.146 6.62303 472.932 6.21841 472.122 5.81379C469.01 4.00363 450.149 0 447.315 0C446.505 0 445.29 0.191663 445.29 1.19257C445.29 2.19348 446.91 4.40826 446.91 5.45176C447.102 11.2017 447.72 17.0367 447.72 22.8079Z" fill="white"/>
<path d="M536.718 175.628C532.957 173.692 529.3 171.559 525.764 169.239C521.816 166.247 518.091 162.973 514.617 159.443C509.653 155.093 504.983 150.418 500.637 145.451C484.419 127.03 470.63 98.4085 466.176 74.5358H531.859C532.86 74.5358 535.311 73.7266 535.311 72.4062C535.311 71.0859 532.669 68.0193 531.646 67.0183C529.514 64.8888 522.929 57.2009 519.69 57.2009C517.26 57.2009 510.781 66.0174 509.545 67.4017H394.269C390.22 67.4017 385.553 66.6137 381.291 66.4008L388.6 77.2191L392.373 74.5358H444.672C444.182 79.945 443.564 85.2902 442.733 90.529C439.003 113.955 431.309 135.378 415.027 154.417C406.294 164.985 396.48 174.614 385.745 183.145C385.378 183.356 385.063 183.644 384.82 183.99C384.577 184.336 384.412 184.731 384.338 185.147C384.358 185.409 384.473 185.655 384.661 185.839C384.85 186.023 385.098 186.133 385.361 186.148C387.791 186.148 400.77 178.14 403.391 176.543C411.02 171.674 418.338 166.332 425.299 160.55C435.065 152.42 443.009 142.327 448.615 130.927C454.012 120.764 457.841 109.843 459.974 98.5363C460.358 95.853 460.762 93.191 461.189 90.529C461.849 86.2699 462.51 81.8616 463 77.5172C463.81 85.5245 464.215 93.5318 465.451 101.326C471.12 137.934 483.694 158.548 508.224 185.743C514.978 180.981 523.06 178.462 531.326 178.545C532.754 178.545 538.018 179.141 538.018 176.948C537.933 176.437 537.336 176.032 536.718 175.628Z" fill="white"/>
<path d="M230.283 186.192H228.248V47.0784L198.422 76.6747L197 75.2614L227.44 45H230.227L230.283 186.192Z" stroke="white" stroke-width="3" stroke-miterlimit="10" stroke-linejoin="round"/>
<path d="M342.286 111.758H321.992V186.192H319.958V111.758H270.256V109.735L319.149 45H321.937V109.735H342.23L342.286 111.758ZM319.985 109.735V47.6326L272.598 109.735H319.985Z" stroke="white" stroke-width="3" stroke-miterlimit="10" stroke-linejoin="round"/>
</svg>
