<svg width="198" height="94" viewBox="0 0 198 94" fill="none" xmlns="http://www.w3.org/2000/svg">
<path d="M21.5146 78.599V10.27" stroke="white" stroke-width="3" stroke-linecap="round" stroke-linejoin="round"/>
<path d="M9.63103 71.3201C9.63103 71.3201 -6.45894 50.4956 8.08849 25.6843C8.20465 25.4863 8.37822 25.3282 8.58621 25.2311C8.7942 25.1339 9.02681 25.1022 9.25323 25.1401C9.47965 25.1781 9.6892 25.2839 9.85414 25.4436C10.0191 25.6033 10.1316 25.8093 10.1769 26.0344L21.5146 78.5997" stroke="white" stroke-width="3" stroke-linecap="round" stroke-linejoin="round"/>
<path d="M46.6104 3.48358C43.4364 3.34119 37.1178 4.62863 34.7447 5.13292C34.4925 5.18724 34.2665 5.32644 34.1045 5.52727C33.9426 5.72811 33.8544 5.97843 33.8547 6.23644V88.3238C33.8538 88.5786 33.9396 88.8262 34.0981 89.0257C34.2567 89.2252 34.4784 89.3648 34.7269 89.4214C36.9576 89.9435 42.9736 91.2428 46.5926 91.0589" stroke="white" stroke-width="3" stroke-linecap="round" stroke-linejoin="round"/>
<path d="M54.1516 2V91.9662" stroke="white" stroke-width="3" stroke-linecap="round" stroke-linejoin="round"/>
<path d="M69.9982 7.63672L54.1396 51.0714" stroke="white" stroke-width="3" stroke-linecap="round" stroke-linejoin="round"/>
<path d="M69.9982 86.9176L58.8147 38.6714" stroke="white" stroke-width="3" stroke-linecap="round" stroke-linejoin="round"/>
<path d="M75.4505 13.854V77.7037C75.4489 77.925 75.5124 78.1418 75.6332 78.3273C75.754 78.5127 75.9267 78.6584 76.1298 78.7463C76.3328 78.8343 76.5573 78.8605 76.7751 78.8217C76.993 78.783 77.1946 78.681 77.3549 78.5284C101.68 54.7256 85.1567 25.6842 85.1567 25.6842" stroke="white" stroke-width="3" stroke-linecap="round" stroke-linejoin="round"/>
<path d="M191.812 27.956C189.569 22.3791 183.156 15.9775 179.578 12.6966C178.677 11.8719 177.087 12.4296 177.087 13.5747V82.3902C177.087 83.5115 178.617 84.081 179.537 83.3038C183.097 80.3018 189.451 74.3096 191.812 68.3055" stroke="white" stroke-width="3" stroke-linecap="round" stroke-linejoin="round"/>
<path d="M177.087 48.1343H195.674" stroke="white" stroke-width="3" stroke-linecap="round" stroke-linejoin="round"/>
<path d="M141.863 4.1123V89.8365" stroke="white" stroke-width="3" stroke-linecap="round" stroke-linejoin="round"/>
<path d="M107.701 47.6236L126.188 54.743C126.401 54.8308 126.581 54.981 126.706 55.1739C126.831 55.3667 126.895 55.593 126.888 55.8228V82.7521C126.883 82.9567 126.823 83.156 126.713 83.3289C126.604 83.5019 126.45 83.642 126.268 83.7345C126.085 83.827 125.881 83.8683 125.677 83.8541C125.473 83.8399 125.276 83.7708 125.108 83.6539C120.083 79.851 106.307 67.5877 106.307 47.2676" stroke="white" stroke-width="3" stroke-linecap="round" stroke-linejoin="round"/>
<path d="M156.968 2.29688V92.2512" stroke="white" stroke-width="3" stroke-linecap="round" stroke-linejoin="round"/>
<path d="M172.809 7.92139L156.95 51.356" stroke="white" stroke-width="3" stroke-linecap="round" stroke-linejoin="round"/>
<path d="M172.809 87.2022L161.661 39.0806" stroke="white" stroke-width="3" stroke-linecap="round" stroke-linejoin="round"/>
<path d="M106.302 47.2678C106.302 26.0577 120.173 14.7437 125.156 11.3679C125.326 11.2472 125.526 11.176 125.734 11.1622C125.942 11.1483 126.15 11.1924 126.334 11.2895C126.519 11.3867 126.673 11.533 126.779 11.7123C126.885 11.8916 126.939 12.0969 126.936 12.3053V39.294C126.936 39.5394 126.857 39.7782 126.709 39.9742C126.561 40.1702 126.353 40.3125 126.117 40.3797L107.53 45.7193" stroke="white" stroke-width="3" stroke-linecap="round" stroke-linejoin="round"/>
<path d="M132.513 6.78175C132.513 6.78175 144.224 2.2965 152.293 3.57207" stroke="white" stroke-width="3" stroke-linecap="round" stroke-linejoin="round"/>
<path d="M152.293 90.9572C145.014 92.031 132.513 87.7534 132.513 87.7534" stroke="white" stroke-width="3" stroke-linecap="round" stroke-linejoin="round"/>
</svg>
