<svg width="322" height="229" viewBox="0 0 322 229" fill="none" xmlns="http://www.w3.org/2000/svg">
<path fill-rule="evenodd" clip-rule="evenodd" d="M299.489 86.5936C291.768 113.213 274.296 134.139 256.547 155.459C237.566 178.259 222.202 209.413 192.929 214.594C163.708 219.765 135.643 199.9 112.889 180.884C94.0051 165.102 91.8729 138.217 77.5879 118.202C60.4242 94.1537 26.4313 81.5991 21.2888 52.5422C15.7323 21.1461 27.3771 -13.901 50.2727 -36.1377C72.8306 -58.0464 107.392 -59.8088 138.846 -61.6316C166.643 -63.2425 192.395 -54.71 218.809 -45.9047C249.09 -35.8104 287.017 -33.9249 303.586 -6.71471C320.205 20.5777 308.38 55.9412 299.489 86.5936Z" fill="url(#paint0_linear)"/>
<g style="mix-blend-mode:lighten">
<path fill-rule="evenodd" clip-rule="evenodd" d="M309.046 76.1588C305.899 103.145 292.44 126.201 278.776 149.683C264.164 174.795 254.385 207.4 227.015 217.138C199.693 226.859 169.447 212.185 144.456 197.474C123.715 185.265 117.324 159.613 100.332 142.568C79.9153 122.088 45.1367 115.441 35.4953 88.1758C25.0777 58.716 30.6456 22.9472 49.1202 -2.25252C67.3223 -27.0806 100.34 -34.3678 130.353 -41.2115C156.877 -47.2597 183.066 -43.1695 209.937 -38.9226C240.742 -34.054 277.591 -38.3579 297.945 -14.7245C318.359 8.98035 312.669 45.0842 309.046 76.1588Z" stroke="white" stroke-width="2"/>
</g>
<defs>
<linearGradient id="paint0_linear" x1="304.375" y1="93.6535" x2="16.523" y2="58.4207" gradientUnits="userSpaceOnUse">
<stop stop-color="#97D3F1"/>
<stop offset="0.9999" stop-color="#EDE3D8"/>
<stop offset="1" stop-color="#EDE3D8"/>
</linearGradient>
</defs>
</svg>
