<svg width="689" height="792" viewBox="0 0 689 792" fill="none" xmlns="http://www.w3.org/2000/svg">
<g style="mix-blend-mode:lighten">
<path fill-rule="evenodd" clip-rule="evenodd" d="M90.5809 193.987C134.099 168.161 161.981 112.586 216.047 115.35C271.944 118.207 323.115 168.661 373.481 208.447C429.97 253.071 497.979 291.465 525.388 359.715C553.402 429.474 542.445 504.704 515.559 562.24C490.937 614.932 431.597 626.957 386.118 657.758C339.223 689.518 306.702 757.929 245.352 745.24C183.947 732.54 144.607 653.532 99.1415 598.403C61.5513 552.823 27.7045 506.973 4.27768 452.927C-22.0275 392.24 -61.5236 323.495 -43.4826 269.366C-25.4746 215.336 45.4038 220.797 90.5809 193.987Z" stroke="white" stroke-width="2"/>
</g>
<path fill-rule="evenodd" clip-rule="evenodd" d="M113.075 198.675C157.506 167.344 184.634 107.914 241.026 104.133C299.33 100.224 354.343 144.888 408.152 178.893C468.504 217.032 540.637 247.489 571.517 312.986C603.079 379.931 594.248 457.128 568.224 518.415C544.392 574.543 483.014 593.878 436.712 630.464C388.97 668.189 357.451 741.128 293.133 735.784C228.757 730.435 185.085 655.539 135.852 605.467C95.1473 564.069 58.3312 521.942 32.0846 470.285C2.61307 412.281 -40.8702 347.754 -23.9397 290.976C-7.04024 234.302 66.952 231.199 113.075 198.675Z" fill="url(#paint0_linear)"/>
<defs>
<linearGradient id="paint0_linear" x1="465.453" y1="603.728" x2="134.427" y2="192.479" gradientUnits="userSpaceOnUse">
<stop stop-color="#75D9DE"/>
<stop offset="0.520833" stop-color="#CFD2DA"/>
<stop offset="0.9375" stop-color="#F2CFD9"/>
</linearGradient>
</defs>
</svg>
