<svg width="119" height="135" viewBox="0 0 119 135" fill="none" xmlns="http://www.w3.org/2000/svg">
<rect x="0.421875" y="103.303" width="118.47" height="31.294" rx="15.647" fill="white" fill-opacity="0.71"/>
<path d="M22.2021 111.033C21.2561 110.417 19.3421 109.449 18.1101 108.833L16.6361 110.725C17.9121 111.451 19.7821 112.485 20.6401 113.145L22.2021 111.033ZM21.1461 116.973C20.1781 116.379 18.2201 115.433 17.0101 114.839L15.6021 116.775C16.9001 117.479 18.7921 118.513 19.6941 119.151L21.1461 116.973ZM18.1101 128.853C19.4521 126.719 20.8381 124.211 22.0041 121.901L20.0901 120.141C18.7701 122.693 17.0761 125.421 15.9101 127.071L18.1101 128.853ZM32.3881 125.817H25.7881V122.583H32.3881V125.817ZM35.9741 117.435V114.927H30.3861V111.913C32.1021 111.583 33.7521 111.143 35.1601 110.615L33.1581 108.547C30.7381 109.515 26.6021 110.241 22.8621 110.615C23.1701 111.209 23.5221 112.221 23.6321 112.859C24.9961 112.727 26.4701 112.573 27.9001 112.353V114.927H22.0481V117.435H27.9001V120.207H23.4121V129.095H25.7881V128.193H32.3881V128.985H34.8741V120.207H30.3861V117.435H35.9741ZM44.3341 124.541H48.3161V122.693H44.3341V121.835H48.2281V115.037H44.3341V114.179H48.5581V115.895H50.5601C50.4061 119.833 49.8781 122.979 48.1621 125.355C46.8861 125.465 45.5881 125.575 44.3341 125.663V124.541ZM40.2421 120.207V119.217H41.9581V120.207H40.2421ZM46.0501 119.217V120.207H44.3341V119.217H46.0501ZM44.3341 117.655V116.687H46.0501V117.655H44.3341ZM40.2421 116.687H41.9581V117.655H40.2421V116.687ZM53.1121 113.497C53.1561 112.045 53.1561 110.505 53.1561 108.899H50.6481C50.6481 110.527 50.6481 112.045 50.6261 113.497H48.5581V112.287H44.3341V111.209C45.7641 111.055 47.1281 110.857 48.2941 110.615L47.1501 108.657C44.7301 109.185 40.9241 109.559 37.6681 109.735C37.9101 110.241 38.1521 111.055 38.2401 111.583C39.4281 111.561 40.6821 111.495 41.9581 111.407V112.287H37.6241V114.179H41.9581V115.037H38.1741V121.835H41.9581V122.693H38.0861V124.541H41.9581V125.861C40.2641 125.971 38.7241 126.081 37.4921 126.169L37.8001 128.369C40.1761 128.171 43.3441 127.841 46.5121 127.511C47.0841 127.995 47.7221 128.721 48.0521 129.249C51.7481 126.323 52.7601 121.791 53.0461 115.895H55.0261C54.8941 123.001 54.6741 125.685 54.2121 126.279C54.0141 126.565 53.7941 126.653 53.4641 126.653C53.0461 126.653 52.2101 126.631 51.2421 126.543C51.6821 127.269 51.9681 128.325 52.0121 129.051C53.0681 129.073 54.0801 129.095 54.7401 128.963C55.4661 128.809 55.9721 128.589 56.4781 127.863C57.1821 126.851 57.3581 123.661 57.5561 114.663C57.5561 114.355 57.5781 113.497 57.5781 113.497H53.1121ZM69.6781 111.165C71.4601 114.025 75.0681 117.083 78.5661 118.865C79.0501 118.051 79.6221 117.149 80.2821 116.467C76.7181 115.081 73.2201 112.199 70.9541 108.503H68.1601C66.6201 111.385 63.2101 114.927 59.3381 116.775C59.9101 117.303 60.6141 118.293 60.9441 118.931C64.6181 116.995 67.9841 113.959 69.6781 111.165ZM72.1201 116.555V129.073H74.8481V116.555H72.1201ZM64.5521 116.665V119.327C64.5521 121.835 64.1781 124.937 60.3281 127.225C61.0101 127.643 62.0661 128.523 62.5061 129.095C66.7961 126.389 67.2581 122.495 67.2581 119.393V116.665H64.5521ZM82.3281 121.417C82.1521 123.265 81.8001 125.223 81.1621 126.521C81.7341 126.719 82.7021 127.181 83.1641 127.467C83.8021 126.059 84.2641 123.859 84.4841 121.791L82.3281 121.417ZM87.1021 121.813C87.6081 123.111 88.1801 124.805 88.3781 125.905L90.3141 125.201C90.0721 124.101 89.5001 122.495 88.9501 121.241L87.1021 121.813ZM86.6401 116.379C86.9041 116.863 87.1681 117.413 87.4101 117.963L85.2981 118.051C86.6841 116.269 88.2021 114.047 89.4121 112.133L87.2781 111.143C86.7721 112.221 86.0681 113.475 85.3201 114.707C85.1001 114.443 84.8581 114.135 84.5721 113.827C85.3641 112.595 86.2441 110.901 87.0361 109.405L84.7701 108.569C84.3961 109.735 83.7801 111.187 83.1641 112.397C82.9881 112.243 82.8121 112.089 82.6581 111.957L81.4041 113.739C82.3061 114.619 83.3621 115.785 84.0001 116.731C83.6481 117.237 83.2961 117.721 82.9661 118.139L81.3821 118.205L81.6021 120.471L84.7921 120.273V129.117H87.0581V120.119L88.1801 120.031C88.3121 120.449 88.4001 120.823 88.4661 121.153L90.3141 120.317C90.0721 119.063 89.2141 117.149 88.3781 115.653L86.6401 116.379ZM98.5641 122.077V125.817H93.4601V122.077H98.5641ZM91.0621 129.051H93.4601V128.127H98.5641V128.963H101.094V119.767H91.0621V129.051ZM90.2921 109.581V111.979H93.2621C92.9321 114.179 92.1181 116.027 89.3901 117.215C89.9401 117.655 90.6441 118.579 90.9301 119.173C94.3181 117.567 95.3961 115.037 95.8361 111.979H99.0481C98.9381 114.619 98.8061 115.719 98.5421 116.049C98.3661 116.225 98.1461 116.269 97.8381 116.269C97.4201 116.269 96.5401 116.269 95.6161 116.181C96.0341 116.841 96.3201 117.831 96.3641 118.601C97.4201 118.623 98.4541 118.623 99.0481 118.535C99.7301 118.447 100.214 118.249 100.676 117.677C101.226 116.995 101.38 115.103 101.512 110.527C101.534 110.219 101.534 109.581 101.534 109.581H90.2921Z" fill="#2ABAF3" fill-opacity="0.85"/>
<path d="M51.6305 15.0923C51.0837 15.0923 50.5977 15.5528 50.5977 16.0708C50.5977 16.5889 51.0837 17.0494 51.6305 17.0494C57.767 17.0494 62.6883 21.7694 62.6883 27.5255C62.6883 28.0435 63.1743 28.504 63.7211 28.504C64.2679 28.504 64.754 28.0435 64.754 27.5255C64.8147 20.6757 58.9213 15.0923 51.6305 15.0923Z" fill="white" stroke="white" stroke-width="5"/>
<path d="M96.2768 35.4186C96.2768 36.2823 96.9678 36.8869 97.7451 36.8869L107.765 36.8869C108.542 36.8869 109.233 36.1959 109.233 35.4186C109.233 34.6412 108.542 33.9502 107.765 33.9502L97.7451 33.9502C96.9678 33.9502 96.2768 34.6412 96.2768 35.4186Z" fill="white" stroke="white" stroke-width="7"/>
<path d="M93.2449 54.8679L101.851 59.8282C102.534 60.1904 103.49 59.9543 103.852 59.2719C104.3 58.5916 104.064 57.6354 103.295 57.2712L94.6893 52.3109C94.4323 52.2182 94.2617 52.1277 94.0026 52.1214C93.4846 52.1089 92.9602 52.3554 92.6886 52.8672C92.3265 53.5496 92.5625 54.5057 93.2449 54.8679Z" fill="white" stroke="white" stroke-width="7"/>
<path d="M103.927 10.633C103.582 9.94197 102.632 9.68285 101.941 10.0283L93.1305 14.7789C92.4395 15.1244 92.1804 16.0745 92.5259 16.7655C92.785 17.2838 93.3033 17.5429 93.8215 17.5429C94.0806 17.5429 94.3398 17.4565 94.5125 17.3701L103.323 12.6196C104.014 12.2741 104.273 11.324 103.927 10.633Z" fill="white" stroke="white" stroke-width="7"/>
<path d="M46.7557 73.4346C42.1479 73.4346 38.4126 77.1699 38.4126 81.7777C38.4126 86.3855 42.1479 90.1208 46.7557 90.1208H55.6968C60.3046 90.1208 64.04 86.3855 64.04 81.7777C64.04 77.1699 60.3046 73.4346 55.6969 73.4346H46.7557Z" stroke="white" stroke-width="7" stroke-linecap="round" stroke-linejoin="round"/>
<path d="M67.7556 47.9597L65.4404 45.3349L67.7556 47.9597ZM72.7249 29.205C72.7249 35.6282 69.9125 41.3902 65.4404 45.3349L70.0709 50.5845C75.9856 45.3674 79.7249 37.7207 79.7249 29.205H72.7249ZM51.2255 7.70557C63.0993 7.70557 72.7249 17.3312 72.7249 29.205H79.7249C79.7249 13.4652 66.9653 0.705566 51.2255 0.705566V7.70557ZM29.7261 29.205C29.7261 17.3312 39.3517 7.70557 51.2255 7.70557V0.705566C35.4857 0.705566 22.7261 13.4652 22.7261 29.205H29.7261ZM37.0109 45.3352C32.5386 41.3905 29.7261 35.6284 29.7261 29.205H22.7261C22.7261 37.7209 26.4656 45.3678 32.3805 50.5849L37.0109 45.3352ZM56.4026 59.277H46.0485V66.277H56.4026V59.277ZM34.726 54.9545C34.726 61.2078 39.7953 66.277 46.0485 66.277V59.277C43.6613 59.277 41.726 57.3418 41.726 54.9545H34.726ZM32.3805 50.5849C33.9339 51.955 34.726 53.5339 34.726 54.9545H41.726C41.726 50.9202 39.5485 47.5734 37.0109 45.3352L32.3805 50.5849ZM56.4026 66.277C62.656 66.277 67.7254 61.2077 67.7254 54.9543H60.7254C60.7254 57.3417 58.79 59.277 56.4026 59.277V66.277ZM65.4404 45.3349C62.9028 47.5732 60.7254 50.92 60.7254 54.9543H67.7254C67.7254 53.5336 68.5175 51.9547 70.0709 50.5845L65.4404 45.3349Z" fill="white"/>
</svg>
