<svg width="159" height="180" viewBox="0 0 159 180" fill="none" xmlns="http://www.w3.org/2000/svg">
<rect y="137.3" width="159" height="42" rx="21" fill="white" fill-opacity="0.71"/>
<path d="M41.39 150.01C40.49 148.69 38.39 146.92 36.77 145.69L34.43 147.73C36.11 149.02 38.06 150.94 38.9 152.23L41.39 150.01ZM40.55 157.87C39.56 156.58 37.34 154.72 35.63 153.52L33.35 155.56C35.09 156.91 37.19 158.83 38.12 160.15L40.55 157.87ZM32.96 160.21C32.39 159.52 29.93 156.7 29.06 155.86V155.62H33.02V152.29H29.06V148.18C30.44 147.88 31.76 147.52 32.93 147.07L30.92 144.16C28.43 145.18 24.68 146.08 21.26 146.62C21.65 147.4 22.1 148.57 22.22 149.38C23.33 149.26 24.44 149.08 25.61 148.9V152.29H21.08V155.62H25.13C24.05 158.53 22.37 161.74 20.69 163.66C21.23 164.56 22.01 166.03 22.34 167.05C23.51 165.55 24.62 163.42 25.61 161.11V171.91H29.06V159.73C29.78 160.93 30.5 162.19 30.86 163.03L32.96 160.21ZM49.19 163.69L48.62 160.36L45.65 160.87V143.89H42.14V161.47L32.51 163.12L33.08 166.51L42.14 164.95V171.88H45.65V164.32L49.19 163.69ZM57.44 163.81C55.88 165.73 53.27 167.77 50.84 169.03C51.74 169.6 53.3 170.8 54.05 171.49C56.39 169.99 59.27 167.53 61.13 165.16L57.44 163.81ZM79.13 162.25C77.66 160.21 74.54 157.24 72.11 155.23L69.17 157.09C69.86 157.69 70.61 158.38 71.36 159.1C68.6 159.19 65.84 159.25 63.2 159.28C66.44 156.82 69.92 153.85 72.71 150.97L69.29 149.11C67.52 151.15 65.12 153.46 62.66 155.56C62 154.99 61.19 154.39 60.35 153.79C61.94 152.35 63.71 150.52 65.21 148.75L65.12 148.69C69.29 148.36 73.34 147.88 76.7 147.16L74.18 144.16C68.84 145.24 60.05 145.87 52.34 146.02C52.7 146.86 53.12 148.3 53.21 149.23C55.46 149.2 57.86 149.14 60.26 149.02C59.45 150.04 58.49 151.06 57.62 151.96C57.08 151.63 56.6 151.33 56.12 151.06L53.66 153.34C55.7 154.6 58.13 156.4 59.78 157.9C59.09 158.44 58.4 158.95 57.74 159.4C55.43 159.43 53.3 159.46 51.47 159.49L51.77 163.06C54.89 162.97 58.82 162.88 63.02 162.73V171.91H66.83V162.61C69.32 162.52 71.84 162.4 74.36 162.31C74.99 163.06 75.56 163.78 75.95 164.41L79.13 162.25ZM68.57 165.67C70.97 167.35 74.06 169.81 75.44 171.43L78.65 169.15C77.09 167.5 73.91 165.16 71.54 163.63L68.57 165.67ZM95.42 148.18V150.61H93.38V148.18H95.42ZM93.38 155.86V153.31H95.42V155.86H93.38ZM102.56 155.98V148.3H104.03V150.55C104.03 152.14 103.97 154 103.67 155.98H102.56ZM106.25 168.64C106.1 168.64 105.95 168.61 105.89 168.49C105.83 168.4 105.83 168.22 105.83 168.04V159.76C105.89 159.52 105.95 159.28 106.01 159.04H108.98V155.98H106.58C106.85 154 106.91 152.17 106.91 150.55V148.3H108.56V145.3H98.93V148.3H99.86V155.98H98.72V159.04H102.98C102.32 161.23 101.27 163.45 99.59 165.55C99.08 163.81 98.24 161.65 97.43 159.88L94.7 160.81C95.09 161.74 95.48 162.79 95.84 163.84L93.38 164.56V158.71H98.27V145.36H90.5V158.38C89.81 157.51 88.22 155.65 87.65 155.05V153.13H89.9V149.89H87.65V143.89H84.41V149.89H81.23V153.13H84.26C83.57 156.73 82.1 161.08 80.57 163.63C81.11 164.47 81.83 165.76 82.19 166.72C83 165.4 83.75 163.57 84.41 161.56V171.88H87.65V159.19C88.19 160.12 88.73 161.08 89.03 161.77L90.5 159.22V165.43C89.81 165.61 89.18 165.79 88.64 165.94L90.02 169.18C92 168.43 94.37 167.53 96.68 166.63C96.83 167.14 96.92 167.59 97.01 167.98L97.46 167.8C96.74 168.46 95.93 169.12 95.03 169.72C95.72 170.23 96.8 171.25 97.25 171.91C99.77 170.14 101.63 168.13 103.01 166.03V168.25C103.01 169.96 103.13 170.44 103.58 170.92C104.03 171.43 104.72 171.61 105.41 171.61H106.82C107.36 171.61 107.93 171.46 108.29 171.16C108.71 170.83 109.01 170.44 109.16 169.75C109.34 169.12 109.46 167.53 109.49 166.03C108.8 165.76 107.84 165.25 107.33 164.8C107.33 166.18 107.3 167.35 107.24 167.86C107.21 168.16 107.12 168.4 107.03 168.49C106.97 168.61 106.82 168.64 106.64 168.64H106.25ZM115.46 152.74H117.59V153.97H115.46V152.74ZM117.59 146.83V147.85H115.46V146.83H117.59ZM121.1 150.88H115.46V149.74H121.1V150.88ZM124.94 153.97H120.38V152.74H124.07V148.72C124.79 149.17 125.75 150.01 126.26 150.61C126.83 150.13 127.37 149.62 127.82 149.11V150.43H137.06V148.48H128.33C128.54 148.21 128.75 147.94 128.93 147.64H138.41V145.42H130.13C130.28 145.09 130.43 144.73 130.55 144.4L127.49 143.92C126.92 145.45 125.84 147.16 124.07 148.51V147.85H120.38V146.83H124.7V144.79H112.43V155.98H124.94V153.97ZM128.42 152.86H129.56V154.39H128.42V152.86ZM131.3 152.86H132.53V154.39H131.3V152.86ZM134.27 152.86H135.47V154.39H134.27V152.86ZM126.05 156.01H137.96V151.24H126.05V156.01ZM118.91 164.08H130.97V165.07H118.91V164.08ZM118.91 161.38H130.97V162.34H118.91V161.38ZM118.91 158.68H130.97V159.64H118.91V158.68ZM131.15 168.91C129.95 168.91 129.71 168.82 129.71 168.07V166.9H134.48V156.85H115.52V166.9H119.33C118.52 168.31 116.66 168.91 110.93 169.18C111.53 169.87 112.25 171.1 112.46 171.91C119.69 171.22 122.03 169.81 122.96 166.9H126.26V168.1C126.26 170.77 127.13 171.58 130.7 171.58H135.14C137.75 171.58 138.62 170.77 138.98 167.68C138.11 167.56 136.73 167.11 136.04 166.66C135.92 168.58 135.71 168.91 134.78 168.91H131.15Z" fill="#2ABAF3" fill-opacity="0.85"/>
<path d="M79.7633 5.19832L16.4885 34.8937C15.7184 35.2551 15.7226 36.352 16.4955 36.7074L79.7703 65.8088C80.0342 65.9302 80.3379 65.9309 80.6023 65.8105L144.56 36.7091C145.338 36.3552 145.342 35.2518 144.567 34.8919L80.6093 5.19658C80.3409 5.07198 80.0311 5.07262 79.7633 5.19832Z" stroke="white" stroke-width="10" stroke-linecap="round" stroke-linejoin="round"/>
<path d="M138.8 95.8252L134.255 103.489L138.8 111L143.739 103.489L138.8 95.8252Z" fill="white" stroke="white" stroke-width="6" stroke-linecap="round" stroke-linejoin="round"/>
<path d="M41.54 52V86C41.54 91.5228 46.0172 96 51.54 96H109.54C115.063 96 119.54 91.5228 119.54 86V52" stroke="white" stroke-width="10" stroke-linecap="round" stroke-linejoin="round"/>
<path d="M138.997 43.1331L138.789 98.0591" stroke="white" stroke-width="10" stroke-linecap="round" stroke-linejoin="round"/>
<path d="M87.54 35H138.54" stroke="white" stroke-width="10" stroke-linecap="round" stroke-linejoin="round"/>
</svg>
