<svg width="120" height="131" viewBox="0 0 120 131" fill="none" xmlns="http://www.w3.org/2000/svg">
<rect x="0.804199" y="98.7275" width="118.47" height="31.294" rx="15.647" fill="white" fill-opacity="0.71"/>
<path d="M33.031 112.019H26.255V110.897H33.031V112.019ZM33.031 114.835H26.255V113.735H33.031V114.835ZM33.031 117.695H26.255V116.573H33.031V117.695ZM23.791 109.071V119.521H35.627V109.071H29.269C29.357 108.697 29.423 108.279 29.511 107.861H37.893V105.463H29.907C30.017 104.869 30.083 104.275 30.171 103.681L27.091 103.593C27.069 104.165 27.047 104.803 27.003 105.463H18.401V107.861H26.761C26.717 108.279 26.651 108.697 26.585 109.071H23.791ZM38.113 120.797H22.009V109.753H19.413V124.229H22.009V123.239H38.113V120.797ZM48.827 115.319C50.059 114.527 51.181 113.493 52.083 112.327V114.989H54.437V112.085C55.405 113.317 56.637 114.461 57.913 115.319H48.827ZM54.283 121.523V120.247H56.527V121.523H54.283ZM50.081 120.247H52.127V121.523H50.081V120.247ZM52.127 118.443H50.081V117.211H52.127V118.443ZM56.527 118.443H54.283V117.211H56.527V118.443ZM52.083 109.137H50.015L51.225 108.719C51.071 108.169 50.653 107.311 50.323 106.607C50.917 106.585 51.489 106.541 52.083 106.497V109.137ZM60.003 111.227V109.137H57.495C57.891 108.389 58.353 107.531 58.793 106.673L56.549 106.079C56.241 107.003 55.669 108.213 55.207 109.137H54.437V106.299C56.175 106.123 57.847 105.903 59.277 105.639L57.913 103.747C55.185 104.297 50.719 104.693 46.913 104.847C47.133 105.353 47.419 106.167 47.485 106.717C48.233 106.695 49.003 106.673 49.795 106.629L48.211 107.113C48.497 107.729 48.827 108.521 49.025 109.137H46.847V111.227H50.257C49.311 112.305 47.947 113.295 46.517 113.933L46.319 112.877L44.713 113.405V110.237H46.693V107.817H44.713V103.681H42.315V107.817H40.005V110.237H42.315V114.197C41.303 114.483 40.401 114.769 39.631 114.989L40.093 117.519L42.315 116.771V121.435C42.315 121.721 42.205 121.809 41.941 121.809C41.677 121.831 40.929 121.831 40.137 121.787C40.445 122.491 40.731 123.569 40.797 124.207C42.227 124.229 43.173 124.141 43.833 123.723C44.493 123.305 44.713 122.645 44.713 121.435V115.935C45.373 115.693 46.011 115.451 46.671 115.209C46.935 115.539 47.155 115.869 47.309 116.133C47.463 116.067 47.617 116.001 47.771 115.913V124.163H50.081V123.349H56.527V124.075H58.947V115.913L59.057 115.979C59.431 115.385 60.157 114.527 60.685 114.087C59.167 113.493 57.539 112.393 56.417 111.227H60.003ZM73.357 114.175H75.667L75.227 114.527C75.513 114.637 75.821 114.791 76.129 114.923L73.357 114.945V114.175ZM66.911 112.569V111.733H70.805V112.569H66.911ZM66.911 109.423H70.805V110.237H66.911V109.423ZM77.449 109.423V110.237H73.357V109.423H77.449ZM73.357 112.569V111.733H77.449V112.569H73.357ZM82.135 117.475H77.229V116.595L78.835 116.551C79.187 116.793 79.495 117.057 79.759 117.277L81.365 115.935C80.661 115.407 79.627 114.747 78.527 114.175H80.001V107.839H73.357V107.047H81.387V105.067H73.357V103.681H70.805V105.067H62.731V107.047H70.805V107.839H64.469V114.175H70.805V114.967C67.835 114.967 65.129 114.989 63.061 114.967L63.127 116.837C66.207 116.815 70.365 116.749 74.699 116.661V117.475H62.137V119.543H66.537L65.613 120.313C66.801 121.127 68.275 122.381 68.913 123.239L70.849 121.567C70.343 120.973 69.419 120.203 68.495 119.543H74.699V121.589C74.699 121.875 74.589 121.941 74.237 121.963C73.885 121.963 72.631 121.963 71.575 121.919C71.883 122.579 72.213 123.503 72.323 124.207C73.995 124.207 75.227 124.185 76.107 123.855C77.009 123.503 77.229 122.887 77.229 121.677V119.543H82.135V117.475ZM104.245 120.973H87.525V106.717H103.673V104.407H84.973V124.207H87.525V123.327H104.245V120.973ZM97.139 111.271H93.531V109.467H97.139V111.271ZM99.713 107.751H91.089V112.987H99.713V107.751ZM90.957 115.715H92.673V118.113H90.957V115.715ZM88.845 119.873H94.917V113.955H88.845V119.873ZM99.823 118.113H98.041V115.715H99.823V118.113ZM102.089 113.955H95.885V119.873H102.089V113.955Z" fill="#2ABAF3" fill-opacity="0.85"/>
<path d="M44.1264 77.7437H104.372M16.4507 77.7437H31.5587M44.1264 82.1407V74.2261M31.5587 82.1407V74.2261" stroke="white" stroke-width="7" stroke-linecap="round" stroke-linejoin="round"/>
<rect x="22.9312" y="3.875" width="75.7055" height="54.8429" rx="11.5" stroke="white" stroke-width="7" stroke-linecap="round" stroke-linejoin="round"/>
<path d="M51.8345 45.4273V16.813L74.3606 30.6866L51.8345 45.4273Z" stroke="white" stroke-width="7" stroke-linecap="round" stroke-linejoin="round"/>
</svg>
