<svg width="120" height="132" viewBox="0 0 120 132" fill="none" xmlns="http://www.w3.org/2000/svg">
<path d="M75.5324 77.3652V58.7378H48.709V77.3652" stroke="white" stroke-width="7" stroke-linecap="round" stroke-linejoin="round"/>
<path d="M37.4468 77.873H86.8208" stroke="white" stroke-width="7" stroke-linecap="round" stroke-linejoin="round"/>
<rect x="21.1406" y="4.3457" width="81.2153" height="54.3919" rx="10" stroke="white" stroke-width="7" stroke-linecap="round" stroke-linejoin="round"/>
<path d="M21.8857 44.5811L101.611 44.5811" stroke="white" stroke-width="7" stroke-linecap="round" stroke-linejoin="round"/>
<rect x="0.27832" y="100.463" width="119.215" height="30.5489" rx="15.2744" fill="white" fill-opacity="0.71"/>
<path d="M17.1981 117.546C17.0221 119.394 16.7141 121.352 16.0761 122.65C16.6041 122.848 17.5501 123.266 17.9901 123.574C18.6061 122.166 19.0901 119.988 19.2881 117.898L17.1981 117.546ZM22.0381 118.008C22.5001 119.218 22.9181 120.802 23.0061 121.836L24.9421 121.22C24.8101 120.186 24.3701 118.646 23.8641 117.458L22.0381 118.008ZM27.7361 111.892H33.6321V113.058H27.7361V111.892ZM27.7361 108.878H33.6321V110H27.7361V108.878ZM34.9301 115.588C34.4241 116.248 33.6761 117.062 32.9281 117.766C32.5101 116.952 32.2021 116.094 31.9601 115.258V115.06H36.0961V106.854H31.5641C31.8941 106.304 32.2241 105.688 32.5321 105.072L29.5841 104.654C29.4081 105.314 29.1221 106.128 28.8141 106.854H25.3821V115.06H29.6281V116.996L28.3081 116.468L27.9121 116.534H24.9861L25.2281 116.424C24.9641 115.192 24.1281 113.256 23.2701 111.76L21.4221 112.53C21.6641 112.97 21.9061 113.454 22.1261 113.938L20.2121 114.048C21.5981 112.288 23.0941 110.11 24.3041 108.262L22.1701 107.272C21.6641 108.35 20.9601 109.604 20.1901 110.836C19.9921 110.572 19.7501 110.264 19.4861 109.978C20.3001 108.746 21.2021 107.008 21.9721 105.49L19.7061 104.698C19.3541 105.82 18.7381 107.294 18.1221 108.504C17.9461 108.35 17.7701 108.196 17.6161 108.042L16.3401 109.802C17.2201 110.704 18.2321 111.892 18.8481 112.882C18.5181 113.344 18.1881 113.784 17.8581 114.18L16.2741 114.268L16.5381 116.534L19.5961 116.292V125.224H21.8401V116.116L22.9401 116.028C23.0721 116.512 23.2041 116.952 23.2701 117.326L24.8101 116.622V118.668H26.9441C26.2181 120.428 25.0301 121.77 23.5341 122.584C24.0181 122.936 24.8321 123.838 25.1621 124.322C27.2081 123.068 28.8141 120.758 29.6281 117.414V122.694C29.6281 122.936 29.5621 123.002 29.2761 123.002C29.0341 123.002 28.2201 123.002 27.4721 122.98C27.7581 123.618 28.0001 124.542 28.0881 125.202C29.4301 125.202 30.3761 125.18 31.0801 124.806C31.7841 124.454 31.9601 123.838 31.9601 122.716V120.208C32.8401 121.836 34.0941 123.354 35.8101 124.322C36.1401 123.684 36.8881 122.672 37.3501 122.21C35.9641 121.594 34.8861 120.648 34.0281 119.57C34.9741 118.888 36.0301 117.986 37.0421 117.15L34.9301 115.588ZM49.4281 121.506V113.894H57.1941V111.232H49.4281V104.94H46.6121V121.506H38.7361V124.146H58.7341V121.506H49.4281ZM67.3141 106.59C66.2141 106.062 64.1241 105.358 62.6721 105.006L61.5281 106.788C63.0461 107.228 65.1141 108.02 66.1261 108.57L67.3141 106.59ZM66.0601 118.998H75.5861V119.966H66.0601V118.998ZM66.0601 116.578H75.5861V117.524H66.0601V116.578ZM66.0601 114.158H75.5861V115.104H66.0601V114.158ZM69.6241 112.596C71.6481 112.024 72.8801 111.254 73.6501 110.22C74.3101 111.166 75.3221 111.98 77.0161 112.596H69.6241ZM78.2481 121.528V112.97C78.6881 113.08 79.1721 113.168 79.7001 113.256C79.9421 112.618 80.5141 111.606 80.9981 111.122C76.5541 110.594 75.3001 109.384 74.8381 107.976H77.2801C76.9941 108.438 76.6861 108.856 76.4221 109.186L78.4461 109.824C79.1721 109.01 79.9641 107.69 80.5361 106.502L78.7981 106.062L78.4021 106.128H71.9121C72.1321 105.776 72.3081 105.424 72.4841 105.05L70.1741 104.676C69.6021 105.952 68.5241 107.404 66.9401 108.504C67.5341 108.746 68.4361 109.274 68.8981 109.736C69.5801 109.186 70.1521 108.592 70.6581 107.976H72.2421C71.7581 109.538 70.5921 110.484 67.0941 111.056L66.8741 109.076C64.5421 109.626 62.1881 110.176 60.5601 110.484L61.5281 112.772C63.1781 112.31 65.2241 111.716 67.1161 111.166L67.0941 111.078C67.4461 111.43 67.8641 112.068 68.1281 112.596H63.5301V121.528H66.7641C65.2461 122.276 62.8481 122.98 60.7141 123.376C61.2641 123.838 62.1881 124.784 62.6501 125.29C64.8721 124.674 67.6881 123.596 69.5141 122.408L67.5121 121.528H73.9361L71.9561 122.672C74.1781 123.508 76.4221 124.542 77.6761 125.268L80.7121 124.102C79.2161 123.376 76.6861 122.32 74.4421 121.528H78.2481ZM88.5881 106.964C87.7741 106.238 86.1681 105.336 84.9141 104.808L83.4401 106.722C84.7161 107.316 86.2781 108.328 87.0261 109.054L88.5881 106.964ZM87.5101 112.772C86.7181 112.046 85.1121 111.21 83.8361 110.704L82.4061 112.618C83.6601 113.212 85.2221 114.136 85.9481 114.862L87.5101 112.772ZM85.7501 116.446C84.8261 119.02 83.5721 121.814 82.6701 123.53L85.0681 124.938C86.0361 122.76 87.0701 120.23 87.8841 117.876L85.7501 116.446ZM92.7021 118.8C92.2181 120.252 91.3821 121.814 90.3701 122.782C90.9421 123.112 91.9101 123.728 92.3941 124.124C93.4061 122.958 94.4181 121.132 95.0121 119.35L92.7021 118.8ZM94.6381 114.84H99.7201V116.05H94.6381V114.84ZM94.6381 111.87H99.7201V113.08H94.6381V111.87ZM102.14 117.92V110H98.1581C98.3341 109.428 98.5101 108.812 98.7301 108.174H102.756V105.82H89.0281V111.892C89.0281 115.456 88.8081 120.428 86.3441 123.838C86.9821 124.124 88.0821 124.806 88.5441 125.224C91.1621 121.594 91.5581 115.764 91.5581 111.892V108.174H95.8261C95.7601 108.746 95.6501 109.406 95.5621 110H92.3281V117.92H95.8041V122.672C95.8041 122.914 95.7161 122.98 95.4741 122.98C95.2101 122.98 94.3081 122.98 93.5601 122.958C93.8241 123.596 94.1101 124.52 94.2201 125.202C95.5841 125.224 96.5961 125.18 97.3661 124.828C98.1361 124.476 98.2901 123.86 98.2901 122.738V117.92H102.14ZM98.9061 119.438C99.7421 120.824 100.6 122.672 100.93 123.86L103.306 122.826C102.932 121.638 102.008 119.856 101.15 118.536L98.9061 119.438Z" fill="#2ABAF3" fill-opacity="0.85"/>
</svg>
