<svg width="119" height="125" viewBox="0 0 119 125" fill="none" xmlns="http://www.w3.org/2000/svg">
<rect x="0.479492" y="94.4507" width="118.47" height="30.5489" rx="15.2744" fill="white" fill-opacity="0.71"/>
<path d="M19.4697 102.844H32.8677V105.374H35.5517V100.468H27.4997V98.7523H24.8157V100.468H16.8957V105.374H19.4697V102.844ZM33.5057 106.606C32.7137 107.354 31.5477 108.256 30.4477 109.004C30.0957 108.19 29.7877 107.332 29.5457 106.452H32.0537V104.252H20.2397V106.452H23.4517C21.5157 107.442 19.0737 108.212 16.7197 108.674C17.1377 109.18 17.7977 110.214 18.0617 110.72C19.7997 110.258 21.6037 109.62 23.2757 108.85C23.4737 109.026 23.6497 109.202 23.8257 109.378C22.1757 110.5 19.2497 111.71 17.0277 112.238C17.5117 112.744 18.0617 113.646 18.3477 114.218C20.4377 113.492 23.1437 112.172 25.0137 110.918C25.1677 111.16 25.2997 111.424 25.4317 111.688C23.2537 113.536 19.4257 115.34 16.2577 116.132C16.7417 116.704 17.3137 117.65 17.6217 118.31C20.3717 117.364 23.6277 115.714 26.0257 113.954C26.1137 115.12 25.8057 116.022 25.2997 116.418C24.9477 116.814 24.5297 116.88 23.9797 116.88C23.4077 116.88 22.7037 116.836 21.8677 116.77C22.3517 117.496 22.5717 118.552 22.6157 119.278C23.2537 119.322 23.9357 119.344 24.4857 119.322C25.6297 119.322 26.3557 119.102 27.1697 118.398C29.3477 116.814 29.5017 111.336 25.3657 107.728C26.0257 107.332 26.6417 106.914 27.1917 106.452H27.2357C28.4897 111.578 30.6677 115.626 34.5837 117.716C35.0017 116.99 35.8377 115.956 36.4097 115.45C34.3417 114.526 32.7137 112.964 31.5037 111.028C32.7797 110.302 34.2977 109.312 35.5517 108.366L33.5057 106.606ZM54.9777 111.38C54.0317 112.128 52.7777 112.986 51.6117 113.668C50.9297 112.986 50.3577 112.238 49.8737 111.38H54.9777ZM55.7477 111.38H58.1017V109.07H44.6157V107.926H55.1977V105.902H44.6157V104.802H55.1977V102.778H44.6157V101.612H55.8137V99.4783H41.9317V109.07H38.2797V111.38H41.9097V116.418C40.9197 116.528 40.0177 116.66 39.2257 116.748L39.8197 119.146C42.4817 118.75 46.1117 118.2 49.4777 117.65L49.3677 115.34C47.7837 115.582 46.1557 115.824 44.6157 116.044V111.38H47.1457C48.9717 115.538 51.8977 118.156 56.8697 119.3C57.2217 118.596 57.9697 117.518 58.5197 116.946C56.4957 116.572 54.8017 115.934 53.3937 115.054C54.7137 114.35 56.1877 113.47 57.4417 112.568L55.7477 111.38ZM71.4117 109.246H73.7217L73.2817 109.598C73.5677 109.708 73.8757 109.862 74.1837 109.994L71.4117 110.016V109.246ZM64.9657 107.64V106.804H68.8597V107.64H64.9657ZM64.9657 104.494H68.8597V105.308H64.9657V104.494ZM75.5037 104.494V105.308H71.4117V104.494H75.5037ZM71.4117 107.64V106.804H75.5037V107.64H71.4117ZM80.1897 112.546H75.2837V111.666L76.8897 111.622C77.2417 111.864 77.5497 112.128 77.8137 112.348L79.4197 111.006C78.7157 110.478 77.6817 109.818 76.5817 109.246H78.0557V102.91H71.4117V102.118H79.4417V100.138H71.4117V98.7523H68.8597V100.138H60.7857V102.118H68.8597V102.91H62.5237V109.246H68.8597V110.038C65.8897 110.038 63.1837 110.06 61.1157 110.038L61.1817 111.908C64.2617 111.886 68.4197 111.82 72.7537 111.732V112.546H60.1917V114.614H64.5917L63.6677 115.384C64.8557 116.198 66.3297 117.452 66.9677 118.31L68.9037 116.638C68.3977 116.044 67.4737 115.274 66.5497 114.614H72.7537V116.66C72.7537 116.946 72.6437 117.012 72.2917 117.034C71.9397 117.034 70.6857 117.034 69.6297 116.99C69.9377 117.65 70.2677 118.574 70.3777 119.278C72.0497 119.278 73.2817 119.256 74.1617 118.926C75.0637 118.574 75.2837 117.958 75.2837 116.748V114.614H80.1897V112.546ZM97.6797 104.78V103.812H99.5057V104.78H97.6797ZM99.5057 101.282V102.184H97.6797V101.282H99.5057ZM93.5437 112.722H94.6217V113.338H93.5437V112.722ZM93.5437 110.962H94.6217V111.578H93.5437V110.962ZM97.1517 111.578H96.0517V110.962H97.1517V111.578ZM97.1517 113.338H96.0517V112.722H97.1517V113.338ZM92.9717 101.282V102.184H91.2337V101.282H92.9717ZM91.2337 104.78V103.812H92.9717V104.78H91.2337ZM101.816 99.3903H95.6997V106.65H99.5057V116.836C99.5057 117.078 99.4397 117.144 99.2197 117.166H99.1317C99.2197 117.078 99.3077 117.012 99.3737 116.946C98.4937 116.396 97.5037 115.45 96.8217 114.526H98.6917V109.752H96.1837V109.202H98.9777V107.816H96.1837V106.914H94.4237V107.816H91.7837V109.202H94.4237V109.752H92.0477V114.526H93.9397C93.2357 115.472 92.2017 116.374 91.2337 116.946V106.65H94.9517V99.3903H89.0337V110.28C88.5057 109.378 87.4057 107.53 86.8997 106.804V105.638H88.7257V103.262H86.8997V98.7303H84.5677V103.262H82.2137V105.638H84.3917C83.8857 108.256 82.8517 111.314 81.7077 113.052C82.0597 113.646 82.5657 114.592 82.8077 115.274C83.4677 114.218 84.0617 112.744 84.5677 111.138V119.256H86.8997V109.796C87.3397 110.786 87.8017 111.82 88.0217 112.48L89.0337 111.006V119.3H91.2337V117.188C91.5857 117.54 92.0477 118.068 92.3117 118.42C93.0157 117.958 93.7637 117.254 94.4017 116.462V118.86H96.2717V116.264C96.8437 117.078 97.4817 117.826 98.0757 118.332C98.1417 118.244 98.2297 118.134 98.3177 118.024C98.4497 118.486 98.5817 118.97 98.6257 119.322C99.7257 119.322 100.474 119.256 101.068 118.882C101.662 118.486 101.816 117.87 101.816 116.858V99.3903Z" fill="#2ABAF3" fill-opacity="0.85"/>
<rect x="12.4014" y="35.5884" width="17.1372" height="36.5096" rx="8.56859" stroke="white" stroke-width="7" stroke-linecap="round" stroke-linejoin="round"/>
<path d="M29.5386 40.0591H45.0619C46.8225 40.0591 48.5519 40.5239 50.0752 41.4065L61.0792 47.7823C62.6026 48.665 64.332 49.1298 66.0925 49.1298H77.3542C79.0999 49.1298 80.8755 49.5201 82.1746 50.6862C84.6179 52.8794 86.3042 56.2586 82.1566 59.5342C80.8447 60.5703 79.1425 60.9217 77.4708 60.9217H56.6954" stroke="white" stroke-width="7" stroke-linecap="round" stroke-linejoin="round"/>
<path d="M32.519 69.4756C34.9346 69.8744 40.4904 71.2702 43.3891 73.6631C48.7235 78.2494 66.0938 83.0033 74.7916 78.4488L110.021 63.5327C111.475 62.9171 112.845 62.0113 113.599 60.624C115.779 56.6136 113.828 53.3379 108.652 52.8023C107.63 52.6965 106.601 52.8842 105.621 53.1957L82.6422 60.5024" stroke="white" stroke-width="7" stroke-linecap="round" stroke-linejoin="round"/>
<path d="M73.499 34.0982L88.5127 20.3228C88.9309 19.9391 89.3325 19.5302 89.6057 19.0328C91.1582 16.2063 90.919 11.3662 89.1411 8.67465C87.2027 5.74006 81.1372 -0.100586 73.499 9.90482" stroke="white" stroke-width="7" stroke-linecap="round" stroke-linejoin="round"/>
<path d="M73.499 34.0982L59.1034 19.9832C58.7264 19.6135 58.3647 19.223 58.1155 18.7576C56.6053 15.9378 56.8278 11.0627 58.537 8.35789C60.3912 5.42374 66.1929 0.104882 73.499 10.1088" stroke="white" stroke-width="7" stroke-linecap="round" stroke-linejoin="round"/>
</svg>
