<svg width="119" height="134" viewBox="0 0 119 134" fill="none" xmlns="http://www.w3.org/2000/svg">
<rect x="0.479492" y="102.417" width="118.47" height="31.294" rx="15.647" fill="white" fill-opacity="0.71"/>
<path d="M31.8671 109.975H22.5391V109.073H31.8671V109.975ZM31.8671 112.483H22.5391V111.559H31.8671V112.483ZM34.4851 107.401H20.0311V114.155H34.4851V107.401ZM33.2311 119.853C32.8351 120.645 32.3291 121.371 31.7351 122.009C31.1411 121.371 30.6351 120.645 30.2611 119.853H33.2311ZM21.5711 122.471H24.4311V123.329C23.4631 123.417 22.4951 123.483 21.5711 123.549V122.471ZM21.5711 119.743H24.4311V120.667H21.5711V119.743ZM24.4311 117.037V117.917H21.5711V117.037H24.4311ZM34.7711 117.763L34.3311 117.851H27.4891V119.853H29.5131L28.0611 120.249C28.5891 121.459 29.2711 122.559 30.0631 123.505C29.1391 124.187 28.0611 124.715 26.9391 125.089V117.037H37.0151V114.969H17.4571V117.037H19.1731V123.725C18.4911 123.791 17.8311 123.813 17.2591 123.857L17.4571 126.101C19.3931 125.925 21.9011 125.705 24.4311 125.463V127.245H26.9391V125.463C27.3791 125.991 27.8631 126.717 28.1051 127.223C29.4691 126.717 30.7231 126.035 31.8451 125.177C33.0111 126.079 34.3751 126.761 35.9371 127.223C36.2891 126.607 36.9711 125.661 37.4771 125.177C36.0251 124.825 34.7051 124.275 33.6051 123.549C34.8371 122.163 35.7831 120.447 36.3771 118.379L34.7711 117.763ZM45.9691 111.009C45.7931 111.757 45.4411 112.769 45.1551 113.429L46.6071 113.737H42.2951L43.3951 113.429C43.3071 112.769 43.0211 111.757 42.6471 111.009H45.9691ZM45.6831 119.787H49.3131V117.587H45.6831V115.893H49.5111V113.737H47.2891C47.5971 113.077 47.9491 112.197 48.3451 111.251L47.0691 111.009H49.3351V108.875H45.6831V106.873H43.1531V108.875H39.4571V111.009H41.9211L40.5791 111.317C40.8871 112.065 41.1511 113.011 41.2391 113.737H39.2151V115.893H43.1531V117.587H39.2811V119.787H42.6251C41.6131 121.437 40.0951 123.087 38.6651 124.033C39.2151 124.451 39.9631 125.309 40.3591 125.881C41.3051 125.111 42.2951 124.011 43.1531 122.779V127.201H45.6831V122.515C46.3211 123.131 46.9371 123.791 47.2891 124.231L48.8071 122.361C48.3011 121.965 46.4751 120.513 45.6831 119.963V119.787ZM59.4991 113.935H52.6351V110.855C54.9451 110.371 57.4531 109.689 59.3891 108.831L57.2991 106.917C55.9571 107.643 53.7791 108.347 51.6891 108.853L50.1711 108.435V116.047C50.1711 119.083 49.9071 122.823 47.3771 125.507C47.9711 125.815 48.9171 126.717 49.2471 127.289C52.1511 124.275 52.6131 119.633 52.6351 116.355H54.8791V127.113H57.4091V116.355H59.4991V113.935ZM78.7051 107.203C78.2651 108.523 77.4291 110.283 76.7691 111.405L79.0351 112.241C79.7171 111.207 80.5531 109.645 81.2571 108.105L78.7051 107.203ZM63.8331 127.135C65.0211 124.913 66.2311 122.383 67.2431 120.029L65.3071 118.445C64.1191 121.019 62.6231 123.791 61.5231 125.463L63.8331 127.135ZM66.4291 115.189C65.5491 114.375 63.7671 113.319 62.4031 112.681L60.9291 114.529C62.3151 115.255 64.0531 116.399 64.8671 117.235L66.4291 115.189ZM61.9411 108.721C63.2831 109.447 64.9991 110.591 65.7691 111.427L67.3971 109.403C66.5391 108.567 64.8231 107.511 63.4591 106.895L61.9411 108.721ZM72.1711 111.317C71.8411 110.173 70.8951 108.567 70.0151 107.357L67.8151 108.325C68.6731 109.601 69.5311 111.317 69.7951 112.395L72.1711 111.317ZM71.0711 120.711V119.061H77.7371V120.711H71.0711ZM77.7371 115.255V116.861H71.0711V115.255H77.7371ZM80.2891 112.813H75.8011V106.697H73.1611V112.813H68.4971V127.201H71.0711V122.911H77.7371V124.363C77.7371 124.649 77.6271 124.759 77.2971 124.781C76.9451 124.781 75.8011 124.781 74.7891 124.715C75.1411 125.397 75.4931 126.475 75.5811 127.179C77.2311 127.179 78.4191 127.157 79.2331 126.739C80.0691 126.343 80.2891 125.661 80.2891 124.385V112.813ZM88.8911 116.311H97.7791V117.433H88.8911V116.311ZM88.8911 113.319H97.7791V114.441H88.8911V113.319ZM88.8911 110.371H97.7791V111.449H88.8911V110.371ZM90.9811 120.491C92.1471 121.437 93.4231 122.801 93.9731 123.747L96.0191 122.339C95.4471 121.415 94.2371 120.249 93.1371 119.413H100.419V108.369H94.2811C94.5231 107.907 94.8091 107.401 95.0731 106.851L91.9051 106.477C91.8171 107.027 91.6191 107.731 91.4211 108.369H86.3611V119.413H92.6311L90.9811 120.491ZM84.9971 126.497C86.3171 125.199 87.1091 123.241 87.6591 121.437L85.3271 120.601C84.8651 122.229 83.9851 123.923 82.7971 124.979L84.9971 126.497ZM92.3671 124.847C91.3111 124.847 91.1571 124.781 91.1571 124.143V120.997H88.5611V124.187C88.5611 126.453 89.2431 127.179 92.1031 127.179H95.6671C97.8011 127.179 98.5271 126.519 98.8131 123.923C98.1311 123.769 97.0311 123.373 96.5031 122.999C96.3931 124.627 96.2391 124.847 95.4251 124.847H92.3671ZM97.8011 121.657C99.3191 123.109 100.881 125.133 101.497 126.541L103.741 125.067C103.081 123.593 101.431 121.679 99.8911 120.315L97.8011 121.657Z" fill="#2ABAF3" fill-opacity="0.85"/>
<path d="M89.3096 11.9575H33.052C28.6133 11.9575 25.0151 15.5208 25.0151 19.9163V75.6278C25.0151 80.0233 28.6133 83.5866 33.052 83.5866H89.3096C93.7483 83.5866 97.3465 80.0233 97.3465 75.6278V19.9163C97.3465 15.5208 93.7483 11.9575 89.3096 11.9575Z" stroke="white" stroke-width="7" stroke-linecap="round" stroke-linejoin="round"/>
<path d="M76.981 4.2334V20.3851" stroke="white" stroke-width="7" stroke-linecap="round" stroke-linejoin="round"/>
<path d="M45.3804 4.2334V20.3851" stroke="white" stroke-width="7" stroke-linecap="round" stroke-linejoin="round"/>
<path d="M25.0151 35.8345H97.3465" stroke="white" stroke-width="7" stroke-linecap="round" stroke-linejoin="round"/>
<path d="M48.8921 55.9185L56.055 68.1376L72.7684 47.7725" stroke="white" stroke-width="7" stroke-linecap="round" stroke-linejoin="round"/>
</svg>
