<svg width="119" height="131" viewBox="0 0 119 131" fill="none" xmlns="http://www.w3.org/2000/svg">
<rect x="0.393555" y="99.8574" width="118.47" height="30.5489" rx="15.2744" fill="white" fill-opacity="0.71"/>
<path d="M30.8946 117.996V121.582H22.2046V117.996H30.8946ZM19.6306 124.706H22.2046V123.892H30.8946V124.706H33.5786V115.686H19.6306V124.706ZM22.0726 111.198C23.8766 109.768 25.4166 108.206 26.4506 106.732C27.5066 108.184 29.1346 109.768 30.9606 111.198H22.0726ZM24.9766 104.158C23.3266 106.842 19.8066 110.164 16.0226 111.99C16.5946 112.54 17.3206 113.486 17.6726 114.124C18.8386 113.486 20.0046 112.76 21.0826 111.968V113.508H32.0386V111.99C33.1386 112.782 34.2826 113.508 35.4046 114.08C35.8666 113.266 36.4606 112.408 37.0986 111.726C33.6006 110.318 30.0366 107.524 27.6826 104.158H24.9766ZM43.0606 104.224C41.9606 107.348 40.0466 110.472 38.0446 112.452C38.5066 113.112 39.2546 114.608 39.4966 115.246C39.9366 114.762 40.3986 114.212 40.8606 113.662V124.662H43.5006V109.592C44.3146 108.118 45.0406 106.556 45.6126 105.016L43.0606 104.224ZM58.8346 110.208V107.722H50.2986C50.7166 106.82 51.0686 105.918 51.3766 104.994L48.8466 104.356C47.8566 107.502 46.1186 110.67 44.1826 112.65C44.7326 113.068 45.7666 113.992 46.1846 114.476C47.1746 113.332 48.1866 111.836 49.0666 110.208H49.9026V124.684H52.5866V119.8H58.5706V117.38H52.5866V114.894H58.2846V112.518H52.5866V110.208H58.8346ZM76.6766 107.832H73.5306V106.556H76.6766V107.832ZM79.1186 104.994H71.2206V109.394H79.1186V104.994ZM67.4366 107.832H64.3566V106.556H67.4366V107.832ZM69.8786 104.994H62.0246V109.394H69.8786V104.994ZM65.3686 116.5V115.312H69.0866V116.5H65.3686ZM65.3686 112.276H69.0866V113.442H65.3686V112.276ZM75.7306 113.442H71.7706V112.276H75.7306V113.442ZM75.7306 116.5H71.7706V115.312H75.7306V116.5ZM80.3286 119.646H71.7706V118.502H78.4146V110.252H62.8166V118.502H69.0866V119.646H60.7266V121.89H69.0866V124.684H71.7706V121.89H80.3286V119.646ZM89.1066 108.096V110.582H102.417V108.096H96.9166V104.422H94.2766V108.096H89.1066ZM94.5406 120.042C94.3866 117.886 93.7266 114.344 92.9786 111.572L90.6246 111.99C91.3286 114.806 91.8786 118.458 91.9446 120.592L94.5406 120.042ZM87.1486 104.18C85.9606 107.304 83.9366 110.384 81.8466 112.32C82.2866 112.958 82.9906 114.41 83.2326 115.048C83.8486 114.432 84.4426 113.75 85.0366 112.98V124.618H87.5226V109.24C88.3146 107.854 89.0186 106.402 89.5906 104.994L87.1486 104.18ZM98.4126 121.296C99.2706 118.722 100.217 115.092 100.855 111.902L97.9946 111.44C97.6426 114.542 96.7406 118.612 95.8826 121.296H88.6666V123.76H102.879V121.296H98.4126Z" fill="#2ABAF3" fill-opacity="0.85"/>
<path d="M80.1188 78.2498V70.7989C80.1188 66.8466 78.5488 63.0563 75.7541 60.2616C72.9595 57.467 69.1691 55.897 65.2169 55.897H35.4131C31.4609 55.897 27.6705 57.467 24.8759 60.2616C22.0812 63.0563 20.5112 66.8466 20.5112 70.7989V78.2498" stroke="white" stroke-width="7" stroke-linecap="round" stroke-linejoin="round"/>
<path d="M50.315 40.9947C58.5451 40.9947 65.2169 34.3229 65.2169 26.0928C65.2169 17.8627 58.5451 11.1909 50.315 11.1909C42.0849 11.1909 35.4131 17.8627 35.4131 26.0928C35.4131 34.3229 42.0849 40.9947 50.315 40.9947Z" stroke="white" stroke-width="7" stroke-linecap="round" stroke-linejoin="round"/>
<path d="M102.471 78.2494V70.7984C102.469 67.4967 101.37 64.2892 99.347 61.6797C97.3241 59.0701 94.4919 57.2063 91.2949 56.3809" stroke="white" stroke-width="7" stroke-linecap="round" stroke-linejoin="round"/>
<path d="M76.3931 11.6753C79.5985 12.496 82.4396 14.3602 84.4685 16.9741C86.4974 19.5879 87.5987 22.8026 87.5987 26.1115C87.5987 29.4204 86.4974 32.6351 84.4685 35.2489C82.4396 37.8628 79.5985 39.727 76.3931 40.5477" stroke="white" stroke-width="7" stroke-linecap="round" stroke-linejoin="round"/>
</svg>
