<svg width="159" height="172" viewBox="0 0 159 172" fill="none" xmlns="http://www.w3.org/2000/svg">
<rect y="131" width="159" height="41" rx="20.5" fill="white" fill-opacity="0.71"/>
<path d="M49.23 143.2C48.36 141.79 46.38 139.81 44.79 138.43L42.09 140.26C43.71 141.7 45.57 143.83 46.35 145.21L49.23 143.2ZM45.39 150.46C44.61 151.9 43.62 153.25 42.54 154.54C42.21 153.01 41.91 151.27 41.67 149.47H49.47V146.08H41.31C41.07 143.44 40.95 140.65 41.01 137.86H37.26C37.29 140.59 37.38 143.38 37.62 146.08H31.86V142.03C33.6 141.67 35.25 141.28 36.75 140.83L34.35 137.8C31.29 138.79 26.64 139.75 22.44 140.32C22.83 141.13 23.31 142.45 23.46 143.32C24.99 143.14 26.64 142.93 28.26 142.66V146.08H22.59V149.47H28.26V153.49C25.89 153.91 23.73 154.24 22.02 154.51L22.89 158.11C24.48 157.81 26.34 157.42 28.26 157.03V161.38C28.26 161.86 28.08 162.01 27.54 162.01C27 162.04 25.26 162.07 23.58 161.98C24.09 162.97 24.69 164.59 24.84 165.58C27.27 165.61 29.07 165.46 30.24 164.89C31.44 164.32 31.86 163.36 31.86 161.41V156.28L36.75 155.29L36.48 152.05C34.95 152.32 33.39 152.62 31.86 152.89V149.47H37.95C38.31 152.41 38.82 155.14 39.48 157.51C37.41 159.22 35.1 160.69 32.79 161.74C33.66 162.55 34.65 163.78 35.16 164.62C37.08 163.63 38.97 162.4 40.71 160.96C42 163.9 43.68 165.7 45.87 165.7C48.6 165.7 49.71 164.38 50.28 159.13C49.32 158.74 48.12 157.93 47.34 157.09C47.19 160.63 46.83 162.07 46.2 162.07C45.3 162.07 44.37 160.69 43.56 158.38C45.51 156.43 47.19 154.24 48.54 151.81L45.39 150.46ZM62.64 156.64H69.96C69.24 157.75 68.34 158.68 67.23 159.43C65.4 158.95 63.51 158.5 61.65 158.11L62.64 156.64ZM57.6 146.26H60.75V149.05H57.6V146.26ZM64.11 141.73H67.5V143.44H64.11V141.73ZM74.46 146.26V149.05H70.86V146.26H74.46ZM64.11 149.05V146.26H67.5V149.05H64.11ZM79.71 156.64V153.76H64.56C64.98 153.1 65.37 152.47 65.76 151.84H78.03V143.44H70.86V141.73H78.99V138.64H52.86V141.73H60.75V143.44H54.24V151.84H61.68C61.29 152.47 60.9 153.1 60.48 153.76H52.32V156.64H58.56C57.66 157.93 56.79 159.1 56.04 160.06L59.49 161.14L59.82 160.69C60.81 160.9 61.77 161.14 62.73 161.38C60.06 162.07 56.82 162.43 52.86 162.58C53.4 163.36 53.97 164.62 54.21 165.64C60.03 165.19 64.47 164.41 67.83 162.76C71.22 163.75 74.25 164.8 76.53 165.73L78.72 162.82C76.68 162.1 74.07 161.29 71.16 160.48C72.27 159.43 73.2 158.17 73.95 156.64H79.71ZM91.14 151.75H86.79L87.75 151.48C87.63 150.64 87.21 149.35 86.7 148.27H91.26C90.99 149.29 90.54 150.58 90.18 151.48L91.14 151.75ZM90.63 143.2H94.53V140.26H90.63V137.65H87.33V140.26H83.04V143.2H87.33V145.27H81.99V148.27H84.96L83.88 148.54C84.3 149.53 84.69 150.79 84.87 151.75H82.62V154.75H87.33V157.06H82.86V160.06H87.33V165.52H90.63V160.06H94.86V157.06H90.63V154.75H95.19V151.75H92.94C93.36 150.85 93.81 149.68 94.32 148.57L93.15 148.27H95.64V145.27H90.63V143.2ZM99.42 153.19C100.17 155.56 101.13 157.75 102.3 159.67C101.46 160.84 100.5 161.86 99.42 162.73V153.19ZM105.66 151.96C105.3 153.58 104.76 155.17 104.07 156.61C103.2 155.17 102.48 153.61 101.94 151.96H105.66ZM107.25 148.99L106.65 149.14H99.42V141.97H105.39V144.43C105.39 144.76 105.24 144.85 104.79 144.88C104.34 144.88 102.69 144.88 101.22 144.82C101.64 145.69 102.09 146.92 102.24 147.88C104.43 147.88 106.05 147.85 107.19 147.37C108.36 146.89 108.69 146.02 108.69 144.49V138.85H96.18V165.58H99.42V163.81C100.05 164.38 100.68 165.07 101.07 165.67C102.3 164.77 103.38 163.69 104.34 162.46C105.45 163.72 106.68 164.8 108.09 165.64C108.6 164.74 109.62 163.48 110.4 162.82C108.84 162.04 107.46 160.9 106.23 159.55C107.76 156.73 108.81 153.37 109.38 149.74L107.25 148.99ZM123.99 161.2V155.35H134.16V161.2H123.99ZM129.27 143.65C128.19 145.63 126.78 147.49 125.1 149.14C123.84 147.85 121.92 146.35 120.33 145.18C120.84 144.67 121.32 144.16 121.8 143.65H129.27ZM137.88 152.11H127.17C130.17 149.26 132.6 145.75 134.13 141.64L131.67 140.35L131.07 140.53H124.26C124.8 139.75 125.31 138.97 125.76 138.19L121.74 137.44C120 140.71 116.7 144.37 111.78 146.98C112.59 147.58 113.76 148.9 114.3 149.77C115.5 149.05 116.61 148.3 117.63 147.49C119.22 148.75 121.02 150.31 122.22 151.63C119.1 153.94 115.47 155.74 111.72 156.82C112.47 157.54 113.37 159.01 113.79 160C116.07 159.22 118.32 158.26 120.42 157.06V165.58H123.99V164.41H134.16V165.61H137.88V152.11Z" fill="#2ABAF3" fill-opacity="0.85"/>
<path d="M77.5 99.9639H127.375" stroke="white" stroke-width="10" stroke-linecap="round" stroke-linejoin="round"/>
<path d="M102.437 8.52665C104.642 6.32203 107.632 5.0835 110.75 5.0835C112.294 5.0835 113.822 5.38756 115.249 5.97834C116.675 6.56912 117.971 7.43503 119.062 8.52665C120.154 9.61826 121.02 10.9142 121.611 12.3405C122.202 13.7667 122.506 15.2954 122.506 16.8391C122.506 18.3829 122.202 19.9116 121.611 21.3378C121.02 22.7641 120.154 24.06 119.062 25.1516L49.7917 94.4225L27.625 99.9641L33.1667 77.7975L102.437 8.52665Z" stroke="white" stroke-width="10" stroke-linecap="round" stroke-linejoin="round"/>
</svg>
